<svg xmlns="http://www.w3.org/2000/svg" width="1005" height="600"><rect width="1005" height="600" x="0" y="0" fill="#FFFFFF" id="backgorund"/><g transform="translate(20,20)" id="viz"><g id="nodes"><g transform="translate(383.5,281)"><path id="p_945.5" d="M-5.143516556418883e-14,280A280,280,0,1,1,5.143516556418883e-14,-280A280,280,0,1,1,-5.143516556418883e-14,280Z" fill="none" stroke="#ccc"/><text fill="black" text-anchor="middle" font-family="'Arial', sans-serif" font-size="8" dominant-baseline="middle"><textPath href="#p_945.5" startOffset="50%"/></text></g><g transform="translate(282.54724753356436,298.5838143752462)" id="MPSV"><path id="p_693.7875825968684" d="M-2.051097009968404e-14,111.65652068805785A111.65652068805785,111.65652068805785,0,1,1,2.051097009968404e-14,-111.65652068805785A111.65652068805785,111.65652068805785,0,1,1,-2.051097009968404e-14,111.65652068805785Z" fill="none" stroke="#ccc"/><text fill="black" text-anchor="middle" font-family="'Arial', sans-serif" font-size="8" dominant-baseline="middle"><textPath href="#p_693.7875825968684" startOffset="50%">MPSV</textPath></text></g><g transform="translate(500.45495339515026,298.5838143752462)" id="MFČR"><path id="p_902.163963060048" d="M-1.876009402856551e-14,102.12519528965151A102.12519528965151,102.12519528965151,0,1,1,1.876009402856551e-14,-102.12519528965151A102.12519528965151,102.12519528965151,0,1,1,-1.876009402856551e-14,102.12519528965151Z" fill="none" stroke="#ccc"/><text fill="black" text-anchor="middle" font-family="'Arial', sans-serif" font-size="8" dominant-baseline="middle"><textPath href="#p_902.163963060048" startOffset="50%">MFČR</textPath></text></g><g transform="translate(399.4942934622257,445.15360707838596)" id="MZe"><path id="p_917.3735649490812" d="M-1.317579080018242e-14,71.72566440846956A71.72566440846956,71.72566440846956,0,1,1,1.317579080018242e-14,-71.72566440846956A71.72566440846956,71.72566440846956,0,1,1,-1.317579080018242e-14,71.72566440846956Z" fill="none" stroke="#ccc"/><text fill="black" text-anchor="middle" font-family="'Arial', sans-serif" font-size="8" dominant-baseline="middle"><textPath href="#p_917.3735649490812" startOffset="50%">MZe</textPath></text></g><g transform="translate(399.1149788743583,162.95806248127647)" id="MVČR"><path id="p_626.1267143896591" d="M-1.1582771828340245e-14,63.0536730340243A63.0536730340243,63.0536730340243,0,1,1,1.1582771828340245e-14,-63.0536730340243A63.0536730340243,63.0536730340243,0,1,1,-1.1582771828340245e-14,63.0536730340243Z" fill="none" stroke="#ccc"/><text fill="black" text-anchor="middle" font-family="'Arial', sans-serif" font-size="8" dominant-baseline="middle"><textPath href="#p_626.1267143896591" startOffset="50%">MVČR</textPath></text></g><g transform="translate(279.0258562188667,123.66118731570472)" id="MZd"><path id="p_462.86260123673145" d="M-1.0870373599156466e-14,59.17555770216002A59.17555770216002,59.17555770216002,0,1,1,1.0870373599156466e-14,-59.17555770216002A59.17555770216002,59.17555770216002,0,1,1,-1.0870373599156466e-14,59.17555770216002Z" fill="none" stroke="#ccc"/><text fill="black" text-anchor="middle" font-family="'Arial', sans-serif" font-size="8" dominant-baseline="middle"><textPath href="#p_462.86260123673145" startOffset="50%">MZd</textPath></text></g><g transform="translate(271.17771428647643,468.5706960431373)" id="MŽP"><path id="p_795.3325814340865" d="M-1.0026949564080602e-14,54.584171104472766A54.584171104472766,54.584171104472766,0,1,1,1.0026949564080602e-14,-54.584171104472766A54.584171104472766,54.584171104472766,0,1,1,-1.0026949564080602e-14,54.584171104472766Z" fill="none" stroke="#ccc"/><text fill="black" text-anchor="middle" font-family="'Arial', sans-serif" font-size="8" dominant-baseline="middle"><textPath href="#p_795.3325814340865" startOffset="50%">MŽP</textPath></text></g><g transform="translate(500.8863488704323,157.60066919501355)" id="MZV"><path id="p_694.2196380858715" d="M-6.380278790102319e-15,34.73262002042558A34.73262002042558,34.73262002042558,0,1,1,6.380278790102319e-15,-34.73262002042558A34.73262002042558,34.73262002042558,0,1,1,-6.380278790102319e-15,34.73262002042558Z" fill="none" stroke="#ccc"/><text fill="black" text-anchor="middle" font-family="'Arial', sans-serif" font-size="8" dominant-baseline="middle"><textPath href="#p_694.2196380858715" startOffset="50%">MZV</textPath></text></g><g transform="translate(526.1307532370821,453.8058030323138)" id="MPO"><path id="p_1032.0165900582142" d="M-9.383249981972246e-15,51.0800337888183A51.0800337888183,51.0800337888183,0,1,1,9.383249981972246e-15,-51.0800337888183A51.0800337888183,51.0800337888183,0,1,1,-9.383249981972246e-15,51.0800337888183Z" fill="none" stroke="#ccc"/><text fill="black" text-anchor="middle" font-family="'Arial', sans-serif" font-size="8" dominant-baseline="middle"><textPath href="#p_1032.0165900582142" startOffset="50%">MPO</textPath></text></g><g transform="translate(585.0722947476513,171.45898853879348)" id="MŠMT"><path id="p_803.9916425406848" d="M-8.534629537191154e-15,46.46035925423992A46.46035925423992,46.46035925423992,0,1,1,8.534629537191154e-15,-46.46035925423992A46.46035925423992,46.46035925423992,0,1,1,-8.534629537191154e-15,46.46035925423992Z" fill="none" stroke="#ccc"/><text fill="black" text-anchor="middle" font-family="'Arial', sans-serif" font-size="8" dominant-baseline="middle"><textPath href="#p_803.9916425406848" startOffset="50%">MŠMT</textPath></text></g><g transform="translate(181.04543960301976,172.4220954093701)" id="MMR"><path id="p_400.6090694294375" d="M-8.476062364737732e-15,46.14153441704769A46.14153441704769,46.14153441704769,0,1,1,8.476062364737732e-15,-46.14153441704769A46.14153441704769,46.14153441704769,0,1,1,-8.476062364737732e-15,46.14153441704769Z" fill="none" stroke="#ccc"/><text fill="black" text-anchor="middle" font-family="'Arial', sans-serif" font-size="8" dominant-baseline="middle"><textPath href="#p_400.6090694294375" startOffset="50%">MMR</textPath></text></g><g transform="translate(472.4934845131535,81.03911826978165)" id="MD"><path id="p_597.3307490381065" d="M-7.861891923125398e-15,42.798146255171446A42.798146255171446,42.798146255171446,0,1,1,7.861891923125398e-15,-42.798146255171446A42.798146255171446,42.798146255171446,0,1,1,-7.861891923125398e-15,42.798146255171446Z" fill="none" stroke="#ccc"/><text fill="black" text-anchor="middle" font-family="'Arial', sans-serif" font-size="8" dominant-baseline="middle"><textPath href="#p_597.3307490381065" startOffset="50%">MD</textPath></text></g><g transform="translate(209.64087831271775,415.8650445324796)" id="ÚV"><path id="p_648.8183999453736" d="M-4.09873554926691e-15,22.312477100176203A22.312477100176203,22.312477100176203,0,1,1,4.09873554926691e-15,-22.312477100176203A22.312477100176203,22.312477100176203,0,1,1,-4.09873554926691e-15,22.312477100176203Z" fill="none" stroke="#ccc"/><text fill="black" text-anchor="middle" font-family="'Arial', sans-serif" font-size="8" dominant-baseline="middle"><textPath href="#p_648.8183999453736" startOffset="50%">ÚV</textPath></text></g><g transform="translate(355.10963766796596,85.71260029005697)" id="MSp"><path id="p_463.54325829861085" d="M-3.990086705147336e-15,21.721020340587945A21.721020340587945,21.721020340587945,0,1,1,3.990086705147336e-15,-21.721020340587945A21.721020340587945,21.721020340587945,0,1,1,-3.990086705147336e-15,21.721020340587945Z" fill="none" stroke="#ccc"/><text fill="black" text-anchor="middle" font-family="'Arial', sans-serif" font-size="8" dominant-baseline="middle"><textPath href="#p_463.54325829861085" startOffset="50%">MSp</textPath></text></g><g transform="translate(576.7363259885977,398.69784383690154)" id="MKČR"><path id="p_996.0466676577913" d="M-3.60275740404012e-15,19.612497832292A19.612497832292,19.612497832292,0,1,1,3.60275740404012e-15,-19.612497832292A19.612497832292,19.612497832292,0,1,1,-3.60275740404012e-15,19.612497832292Z" fill="none" stroke="#ccc"/><text fill="black" text-anchor="middle" font-family="'Arial', sans-serif" font-size="8" dominant-baseline="middle"><textPath href="#p_996.0466676577913" startOffset="50%">MKČR</textPath></text></g><g transform="translate(335.2480918528982,525.2931651434052)" id="MO"><path id="p_888.4024217095856" d="M-4.934315908123621e-15,26.861164713282143A26.861164713282143,26.861164713282143,0,1,1,4.934315908123621e-15,-26.861164713282143A26.861164713282143,26.861164713282143,0,1,1,-4.934315908123621e-15,26.861164713282143Z" fill="none" stroke="#ccc"/><text fill="black" text-anchor="middle" font-family="'Arial', sans-serif" font-size="8" dominant-baseline="middle"><textPath href="#p_888.4024217095856" startOffset="50%">MO</textPath></text></g><g transform="translate(254.8565874348795,298.5838143752462)" id="Mimo ministerstvo"><path id="p_634.2802725156222" d="M-1.466634631557372e-14,79.8398707054965A79.8398707054965,79.8398707054965,0,1,1,1.466634631557372e-14,-79.8398707054965A79.8398707054965,79.8398707054965,0,1,1,-1.466634631557372e-14,79.8398707054965Z" fill="none" stroke="#ccc"/><text fill="black" text-anchor="middle" font-family="'Arial', sans-serif" font-size="8" dominant-baseline="middle"><textPath href="#p_634.2802725156222" startOffset="50%">Mimo ministerstvo</textPath></text></g><g transform="translate(364.4501131809991,298.5838143752462)" id="Centrální ministerstvo"><path id="p_689.6615927129919" d="M-4.707725715574488e-15,25.627665156746634A25.627665156746634,25.627665156746634,0,1,1,4.707725715574488e-15,-25.627665156746634A25.627665156746634,25.627665156746634,0,1,1,-4.707725715574488e-15,25.627665156746634Z" fill="none" stroke="#ccc"/><text fill="black" text-anchor="middle" font-family="'Arial', sans-serif" font-size="8" dominant-baseline="middle"><textPath href="#p_689.6615927129919" startOffset="50%">Centrální ministerstvo</textPath></text></g><g transform="translate(472.6871401988353,298.5838143752462)" id="Mimo ministerstvo"><path id="p_842.5023467835417" d="M-1.2901297450346654e-14,70.23139220946013A70.23139220946013,70.23139220946013,0,1,1,1.2901297450346654e-14,-70.23139220946013A70.23139220946013,70.23139220946013,0,1,1,-1.2901297450346654e-14,70.23139220946013Z" fill="none" stroke="#ccc"/><text fill="black" text-anchor="middle" font-family="'Arial', sans-serif" font-size="8" dominant-baseline="middle"><textPath href="#p_842.5023467835417" startOffset="50%">Mimo ministerstvo</textPath></text></g><g transform="translate(572.7493405465486,298.5838143752462)" id="Centrální ministerstvo"><path id="p_898.0379731761715" d="M-4.7218985096830246e-15,25.70481825437666A25.70481825437666,25.70481825437666,0,1,1,4.7218985096830246e-15,-25.70481825437666A25.70481825437666,25.70481825437666,0,1,1,-4.7218985096830246e-15,25.70481825437666Z" fill="none" stroke="#ccc"/><text fill="black" text-anchor="middle" font-family="'Arial', sans-serif" font-size="8" dominant-baseline="middle"><textPath href="#p_898.0379731761715" startOffset="50%">Centrální ministerstvo</textPath></text></g><g transform="translate(377.12027738270893,445.15360707838596)" id="Mimo ministerstvo"><path id="p_868.4995429061712" d="M-8.307818678114127e-15,45.22565844507632A45.22565844507632,45.22565844507632,0,1,1,8.307818678114127e-15,-45.22565844507632A45.22565844507632,45.22565844507632,0,1,1,-8.307818678114127e-15,45.22565844507632Z" fill="none" stroke="#ccc"/><text fill="black" text-anchor="middle" font-family="'Arial', sans-serif" font-size="8" dominant-baseline="middle"><textPath href="#p_868.4995429061712" startOffset="50%">Mimo ministerstvo</textPath></text></g><g transform="translate(446.78294684924026,445.15360707838596)" id="Centrální ministerstvo"><path id="p_913.2475750652047" d="M-3.7310740535324625e-15,20.311021137578507A20.311021137578507,20.311021137578507,0,1,1,3.7310740535324625e-15,-20.311021137578507A20.311021137578507,20.311021137578507,0,1,1,-3.7310740535324625e-15,20.311021137578507Z" fill="none" stroke="#ccc"/><text fill="black" text-anchor="middle" font-family="'Arial', sans-serif" font-size="8" dominant-baseline="middle"><textPath href="#p_913.2475750652047" startOffset="50%">Centrální ministerstvo</textPath></text></g><g transform="translate(373.0874185135596,162.95806248127647)" id="Centrální ministerstvo"><path id="p_569.9456037841852" d="M-6.0436545098296955e-15,32.90012278934913A32.90012278934913,32.90012278934913,0,1,1,6.0436545098296955e-15,-32.90012278934913A32.90012278934913,32.90012278934913,0,1,1,-6.0436545098296955e-15,32.90012278934913Z" fill="none" stroke="#ccc"/><text fill="black" text-anchor="middle" font-family="'Arial', sans-serif" font-size="8" dominant-baseline="middle"><textPath href="#p_569.9456037841852" startOffset="50%">Centrální ministerstvo</textPath></text></g><g transform="translate(434.07809660564567,162.95806248127647)" id="Mimo ministerstvo"><path id="p_622.0007245057825" d="M-4.402219249974719e-15,23.964565418860445A23.964565418860445,23.964565418860445,0,1,1,4.402219249974719e-15,-23.964565418860445A23.964565418860445,23.964565418860445,0,1,1,-4.402219249974719e-15,23.964565418860445Z" fill="none" stroke="#ccc"/><text fill="black" text-anchor="middle" font-family="'Arial', sans-serif" font-size="8" dominant-baseline="middle"><textPath href="#p_622.0007245057825" startOffset="50%">Mimo ministerstvo</textPath></text></g><g transform="translate(258.72215134794266,123.66118731570472)" id="Mimo ministerstvo"><path id="p_418.12920161100686" d="M-6.3827114763144676e-15,34.74586294735952A34.74586294735952,34.74586294735952,0,1,1,6.3827114763144676e-15,-34.74586294735952A34.74586294735952,34.74586294735952,0,1,1,-6.3827114763144676e-15,34.74586294735952Z" fill="none" stroke="#ccc"/><text fill="black" text-anchor="middle" font-family="'Arial', sans-serif" font-size="8" dominant-baseline="middle"><textPath href="#p_418.12920161100686" startOffset="50%">Mimo ministerstvo</textPath></text></g><g transform="translate(315.83471410816446,123.66118731570472)" id="Centrální ministerstvo"><path id="p_458.736611352855" d="M-3.3507640543061666e-15,18.24070992898578A18.24070992898578,18.24070992898578,0,1,1,3.3507640543061666e-15,-18.24070992898578A18.24070992898578,18.24070992898578,0,1,1,-3.3507640543061666e-15,18.24070992898578Z" fill="none" stroke="#ccc"/><text fill="black" text-anchor="middle" font-family="'Arial', sans-serif" font-size="8" dominant-baseline="middle"><textPath href="#p_458.736611352855" startOffset="50%">Centrální ministerstvo</textPath></text></g><g transform="translate(249.67931279585673,468.5706960431373)" id="Mimo ministerstvo"><path id="p_748.2097885689707" d="M-5.319825232549236e-15,28.9597797299766A28.9597797299766,28.9597797299766,0,1,1,5.319825232549236e-15,-28.9597797299766A28.9597797299766,28.9597797299766,0,1,1,-5.319825232549236e-15,28.9597797299766Z" fill="none" stroke="#ccc"/><text fill="black" text-anchor="middle" font-family="'Arial', sans-serif" font-size="8" dominant-baseline="middle"><textPath href="#p_748.2097885689707" startOffset="50%">Mimo ministerstvo</textPath></text></g><g transform="translate(302.20048895839125,468.5706960431373)" id="Centrální ministerstvo"><path id="p_791.20659155021" d="M-3.5702262629955355e-15,19.435406548681446A19.435406548681446,19.435406548681446,0,1,1,3.5702262629955355e-15,-19.435406548681446A19.435406548681446,19.435406548681446,0,1,1,-3.5702262629955355e-15,19.435406548681446Z" fill="none" stroke="#ccc"/><text fill="black" text-anchor="middle" font-family="'Arial', sans-serif" font-size="8" dominant-baseline="middle"><textPath href="#p_791.20659155021" startOffset="50%">Centrální ministerstvo</textPath></text></g><g transform="translate(500.8863488704323,157.60066919501355)" id="Centrální ministerstvo"><path id="p_690.093648201995" d="M-5.6223467444117655e-15,30.6066301365491A30.6066301365491,30.6066301365491,0,1,1,5.6223467444117655e-15,-30.6066301365491A30.6066301365491,30.6066301365491,0,1,1,-5.6223467444117655e-15,30.6066301365491Z" fill="none" stroke="#ccc"/><text fill="black" text-anchor="middle" font-family="'Arial', sans-serif" font-size="8" dominant-baseline="middle"><textPath href="#p_690.093648201995" startOffset="50%">Centrální ministerstvo</textPath></text></g><g transform="translate(501.6437841913897,453.8058030323138)" id="Mimo ministerstvo"><path id="p_978.9166620829529" d="M-4.1271346968875726e-15,22.467074859249458A22.467074859249458,22.467074859249458,0,1,1,4.1271346968875726e-15,-22.467074859249458A22.467074859249458,22.467074859249458,0,1,1,-4.1271346968875726e-15,22.467074859249458Z" fill="none" stroke="#ccc"/><text fill="black" text-anchor="middle" font-family="'Arial', sans-serif" font-size="8" dominant-baseline="middle"><textPath href="#p_978.9166620829529" startOffset="50%">Mimo ministerstvo</textPath></text></g><g transform="translate(550.6608230382698,453.8058030323138)" id="Centrální ministerstvo"><path id="p_1027.8906001743376" d="M-4.119217216548844e-15,22.423974103754126A22.423974103754126,22.423974103754126,0,1,1,4.119217216548844e-15,-22.423974103754126A22.423974103754126,22.423974103754126,0,1,1,-4.119217216548844e-15,22.423974103754126Z" fill="none" stroke="#ccc"/><text fill="black" text-anchor="middle" font-family="'Arial', sans-serif" font-size="8" dominant-baseline="middle"><textPath href="#p_1027.8906001743376" startOffset="50%">Centrální ministerstvo</textPath></text></g><g transform="translate(565.1656627376916,171.45898853879348)" id="Centrální ministerstvo"><path id="p_760.0523886368887" d="M-4.11990851558038e-15,22.427737360403675A22.427737360403675,22.427737360403675,0,1,1,4.11990851558038e-15,-22.427737360403675A22.427737360403675,22.427737360403675,0,1,1,-4.11990851558038e-15,22.427737360403675Z" fill="none" stroke="#ccc"/><text fill="black" text-anchor="middle" font-family="'Arial', sans-serif" font-size="8" dominant-baseline="middle"><textPath href="#p_760.0523886368887" startOffset="50%">Centrální ministerstvo</textPath></text></g><g transform="translate(609.5630270499933,171.45898853879348)" id="Mimo ministerstvo"><path id="p_799.8656526568083" d="M-3.2778229530749427e-15,17.843637068021522A17.843637068021522,17.843637068021522,0,1,1,3.2778229530749427e-15,-17.843637068021522A17.843637068021522,17.843637068021522,0,1,1,-3.2778229530749427e-15,17.843637068021522Z" fill="none" stroke="#ccc"/><text fill="black" text-anchor="middle" font-family="'Arial', sans-serif" font-size="8" dominant-baseline="middle"><textPath href="#p_799.8656526568083" startOffset="50%">Mimo ministerstvo</textPath></text></g><g transform="translate(160.4523682022592,172.4220954093701)" id="Centrální ministerstvo"><path id="p_355.29693674403995" d="M-3.9352444727140345e-15,21.42247313241067A21.42247313241067,21.42247313241067,0,1,1,3.9352444727140345e-15,-21.42247313241067A21.42247313241067,21.42247313241067,0,1,1,-3.9352444727140345e-15,21.42247313241067Z" fill="none" stroke="#ccc"/><text fill="black" text-anchor="middle" font-family="'Arial', sans-serif" font-size="8" dominant-baseline="middle"><textPath href="#p_355.29693674403995" startOffset="50%">Centrální ministerstvo</textPath></text></g><g transform="translate(204.53090767736867,172.4220954093701)" id="Mimo ministerstvo"><path id="p_396.48307954556105" d="M-3.4039198234878684e-15,18.530076458822304A18.530076458822304,18.530076458822304,0,1,1,3.4039198234878684e-15,-18.530076458822304A18.530076458822304,18.530076458822304,0,1,1,-3.4039198234878684e-15,18.530076458822304Z" fill="none" stroke="#ccc"/><text fill="black" text-anchor="middle" font-family="'Arial', sans-serif" font-size="8" dominant-baseline="middle"><textPath href="#p_396.48307954556105" startOffset="50%">Mimo ministerstvo</textPath></text></g><g transform="translate(452.76062509480596,81.03911826978165)" id="Mimo ministerstvo"><path id="p_553.739040317535" d="M-3.479092408729241e-15,18.93929695294742A18.93929695294742,18.93929695294742,0,1,1,3.479092408729241e-15,-18.93929695294742A18.93929695294742,18.93929695294742,0,1,1,-3.479092408729241e-15,18.93929695294742Z" fill="none" stroke="#ccc"/><text fill="black" text-anchor="middle" font-family="'Arial', sans-serif" font-size="8" dominant-baseline="middle"><textPath href="#p_553.739040317535" startOffset="50%">Mimo ministerstvo</textPath></text></g><g transform="translate(493.49577640803915,81.03911826978165)" id="Centrální ministerstvo"><path id="p_593.2047591542301" d="M-3.2459014458603265e-15,17.669864476409305A17.669864476409305,17.669864476409305,0,1,1,3.2459014458603265e-15,-17.669864476409305A17.669864476409305,17.669864476409305,0,1,1,-3.2459014458603265e-15,17.669864476409305Z" fill="none" stroke="#ccc"/><text fill="black" text-anchor="middle" font-family="'Arial', sans-serif" font-size="8" dominant-baseline="middle"><textPath href="#p_593.2047591542301" startOffset="50%">Centrální ministerstvo</textPath></text></g><g transform="translate(209.64087831271775,415.8650445324796)" id="Centrální ministerstvo"><path id="p_644.6924100614971" d="M-3.3408035035763573e-15,18.186487216299724A18.186487216299724,18.186487216299724,0,1,1,3.3408035035763573e-15,-18.186487216299724A18.186487216299724,18.186487216299724,0,1,1,-3.3408035035763573e-15,18.186487216299724Z" fill="none" stroke="#ccc"/><text fill="black" text-anchor="middle" font-family="'Arial', sans-serif" font-size="8" dominant-baseline="middle"><textPath href="#p_644.6924100614971" startOffset="50%">Centrální ministerstvo</textPath></text></g><g transform="translate(355.10963766796596,85.71260029005697)" id="Centrální ministerstvo"><path id="p_459.4172684147344" d="M-3.2321546594567827e-15,17.595030456711463A17.595030456711463,17.595030456711463,0,1,1,3.2321546594567827e-15,-17.595030456711463A17.595030456711463,17.595030456711463,0,1,1,-3.2321546594567827e-15,17.595030456711463Z" fill="none" stroke="#ccc"/><text fill="black" text-anchor="middle" font-family="'Arial', sans-serif" font-size="8" dominant-baseline="middle"><textPath href="#p_459.4172684147344" startOffset="50%">Centrální ministerstvo</textPath></text></g><g transform="translate(576.7363259885977,398.69784383690154)" id="Centrální ministerstvo"><path id="p_991.9206777739148" d="M-2.844825358349566e-15,15.486507948415518A15.486507948415518,15.486507948415518,0,1,1,2.844825358349566e-15,-15.486507948415518A15.486507948415518,15.486507948415518,0,1,1,-2.844825358349566e-15,15.486507948415518Z" fill="none" stroke="#ccc"/><text fill="black" text-anchor="middle" font-family="'Arial', sans-serif" font-size="8" dominant-baseline="middle"><textPath href="#p_991.9206777739148" startOffset="50%">Centrální ministerstvo</textPath></text></g><g transform="translate(324.54977186202075,525.2931651434052)" id="Centrální ministerstvo"><path id="p_862.8797918439542" d="M-2.211134362470737e-15,12.036854838528217A12.036854838528217,12.036854838528217,0,1,1,2.211134362470737e-15,-12.036854838528217A12.036854838528217,12.036854838528217,0,1,1,-2.211134362470737e-15,12.036854838528217Z" fill="none" stroke="#ccc"/><text fill="black" text-anchor="middle" font-family="'Arial', sans-serif" font-size="8" dominant-baseline="middle"><textPath href="#p_862.8797918439542" startOffset="50%">Centrální ministerstvo</textPath></text></g><g transform="translate(349.34794163336466,525.2931651434052)" id="Mimo ministerstvo"><path id="p_884.2764318257091" d="M-1.5862834771170534e-15,8.635325048939203A8.635325048939203,8.635325048939203,0,1,1,1.5862834771170534e-15,-8.635325048939203A8.635325048939203,8.635325048939203,0,1,1,-1.5862834771170534e-15,8.635325048939203Z" fill="none" stroke="#ccc"/><text fill="black" text-anchor="middle" font-family="'Arial', sans-serif" font-size="8" dominant-baseline="middle"><textPath href="#p_884.2764318257091" startOffset="50%">Mimo ministerstvo</textPath></text></g><g transform="translate(234.62069097662965,298.5838143752462)" id="Běžní zaměstnanci"><path id="p_589.6824897152461" d="M-1.0191140396062227e-14,55.47798436337017A55.47798436337017,55.47798436337017,0,1,1,1.0191140396062227e-14,-55.47798436337017A55.47798436337017,55.47798436337017,0,1,1,-1.0191140396062227e-14,55.47798436337017Z" fill="#1f77b4" stroke="none"/></g><g transform="translate(312.3975667401879,298.5838143752462)" id="Představení"><path id="p_630.1542826317458" d="M-3.3383078509756624e-15,18.1729015163116A18.1729015163116,18.1729015163116,0,1,1,3.3383078509756624e-15,-18.1729015163116A18.1729015163116,18.1729015163116,0,1,1,-3.3383078509756624e-15,18.1729015163116Z" fill="#ff7f0e" stroke="none"/></g><g transform="translate(357.38304543079283,298.5838143752462)" id="Běžní zaměstnanci"><path id="p_671.401467328703" d="M-2.6515943849367962e-15,14.434607522663894A14.434607522663894,14.434607522663894,0,1,1,2.6515943849367962e-15,-14.434607522663894A14.434607522663894,14.434607522663894,0,1,1,-2.6515943849367962e-15,14.434607522663894Z" fill="#1f77b4" stroke="none"/></g><g transform="translate(380.94771564560125,298.5838143752462)" id="Představení"><path id="p_685.5356028291154" d="M-9.1923326210186e-16,5.004072808268018A5.004072808268018,5.004072808268018,0,1,1,9.1923326210186e-16,-5.004072808268018A5.004072808268018,5.004072808268018,0,1,1,-9.1923326210186e-16,5.004072808268018Z" fill="#ff7f0e" stroke="none"/></g><g transform="translate(452.80567888781667,298.5838143752462)" id="Běžní zaměstnanci"><path id="p_798.6134342776278" d="M-8.49120021111946e-15,46.22394101456499A46.22394101456499,46.22394101456499,0,1,1,8.49120021111946e-15,-46.22394101456499A46.22394101456499,46.22394101456499,0,1,1,-8.49120021111946e-15,46.22394101456499Z" fill="#1f77b4" stroke="none"/></g><g transform="translate(520.9740761553386,298.5838143752462)" id="Představení"><path id="p_838.3763568996652" d="M-3.2731991706913626e-15,17.81846636908041A17.81846636908041,17.81846636908041,0,1,1,3.2731991706913626e-15,-17.81846636908041A17.81846636908041,17.81846636908041,0,1,1,-3.2731991706913626e-15,17.81846636908041Z" fill="#ff7f0e" stroke="none"/></g><g transform="translate(565.1731460510881,298.5838143752462)" id="Běžní zaměstnanci"><path id="p_878.759594301374" d="M-2.5722421132049456e-15,14.002633875039676A14.002633875039676,14.002633875039676,0,1,1,2.5722421132049456e-15,-14.002633875039676A14.002633875039676,14.002633875039676,0,1,1,-2.5722421132049456e-15,14.002633875039676Z" fill="#1f77b4" stroke="none"/></g><g transform="translate(588.8149693635265,298.5838143752462)" id="Představení"><path id="p_893.911983292295" d="M-1.012758327942249e-15,5.513199553522266A5.513199553522266,5.513199553522266,0,1,1,1.012758327942249e-15,-5.513199553522266A5.513199553522266,5.513199553522266,0,1,1,-1.012758327942249e-15,5.513199553522266Z" fill="#ff7f0e" stroke="none"/></g><g transform="translate(364.12411634922415,445.15360707838596)" id="Běžní zaměstnanci"><path id="p_838.3812309553251" d="M-5.162530580794468e-15,28.103507527715056A28.103507527715056,28.103507527715056,0,1,1,5.162530580794468e-15,-28.103507527715056A28.103507527715056,28.103507527715056,0,1,1,-5.162530580794468e-15,28.103507527715056Z" fill="#1f77b4" stroke="none"/></g><g transform="translate(407.2867798523622,445.15360707838596)" id="Představení"><path id="p_864.3735530222948" d="M-2.0083900287838276e-15,10.933166091546543A10.933166091546543,10.933166091546543,0,1,1,2.0083900287838276e-15,-10.933166091546543A10.933166091546543,10.933166091546543,0,1,1,-2.0083900287838276e-15,10.933166091546543Z" fill="#ff7f0e" stroke="none"/></g><g transform="translate(440.31868594129253,445.15360707838596)" id="Běžní zaměstnanci"><path id="p_896.1930633654329" d="M-1.7856765433761725e-15,9.720770345754277A9.720770345754277,9.720770345754277,0,1,1,1.7856765433761725e-15,-9.720770345754277A9.720770345754277,9.720770345754277,0,1,1,-1.7856765433761725e-15,9.720770345754277Z" fill="#1f77b4" stroke="none"/></g><g transform="translate(458.5667121369328,445.15360707838596)" id="Představení"><path id="p_909.1215851813283" d="M-8.084994416204595e-16,4.40126596600951A4.40126596600951,4.40126596600951,0,1,1,8.084994416204595e-16,-4.40126596600951A4.40126596600951,4.40126596600951,0,1,1,-8.084994416204595e-16,4.40126596600951Z" fill="#ff7f0e" stroke="none"/></g><g transform="translate(364.2546903851712,162.95806248127647)" id="Běžní zaměstnanci"><path id="p_548.1541576435319" d="M-3.663176629613699e-15,19.941404777084273A19.941404777084273,19.941404777084273,0,1,1,3.663176629613699e-15,-19.941404777084273A19.941404777084273,19.941404777084273,0,1,1,-3.663176629613699e-15,19.941404777084273Z" fill="#1f77b4" stroke="none"/></g><g transform="translate(395.0918182325821,162.95806248127647)" id="Představení"><path id="p_565.8196139003087" d="M-1.243579811680167e-15,6.769733186450144A6.769733186450144,6.769733186450144,0,1,1,1.243579811680167e-15,-6.769733186450144A6.769733186450144,6.769733186450144,0,1,1,-1.243579811680167e-15,6.769733186450144Z" fill="#ff7f0e" stroke="none"/></g><g transform="translate(427.0743741029446,162.95806248127647)" id="Běžní zaměstnanci"><path id="p_603.867289616504" d="M-2.3577242525267925e-15,12.834853032282897A12.834853032282897,12.834853032282897,0,1,1,2.3577242525267925e-15,-12.834853032282897A12.834853032282897,12.834853032282897,0,1,1,-2.3577242525267925e-15,12.834853032282897Z" fill="#1f77b4" stroke="none"/></g><g transform="translate(448.9759445798668,162.95806248127647)" id="Představení"><path id="p_617.8747346219061" d="M-9.075969289120957e-16,4.940727560762826A4.940727560762826,4.940727560762826,0,1,1,9.075969289120957e-16,-4.940727560762826A4.940727560762826,4.940727560762826,0,1,1,-9.075969289120957e-16,4.940727560762826Z" fill="#ff7f0e" stroke="none"/></g><g transform="translate(247.36069206262331,123.66118731570472)" id="Běžní zaměstnanci"><path id="p_391.2802931564917" d="M-3.53771321851252e-15,19.258413778163707A19.258413778163707,19.258413778163707,0,1,1,3.53771321851252e-15,-19.258413778163707A19.258413778163707,19.258413778163707,0,1,1,-3.53771321851252e-15,19.258413778163707Z" fill="#1f77b4" stroke="none"/></g><g transform="translate(280.0435600680446,123.66118731570472)" id="Představení"><path id="p_414.00321172713046" d="M-1.7081001892661172e-15,9.298464343381092A9.298464343381092,9.298464343381092,0,1,1,1.7081001892661172e-15,-9.298464343381092A9.298464343381092,9.298464343381092,0,1,1,-1.7081001892661172e-15,9.298464343381092Z" fill="#ff7f0e" stroke="none"/></g><g transform="translate(310.22219570309494,123.66118731570472)" id="Běžní zaměstnanci"><path id="p_443.3855846588395" d="M-1.561829103627015e-15,8.502201640039786A8.502201640039786,8.502201640039786,0,1,1,1.561829103627015e-15,-8.502201640039786A8.502201640039786,8.502201640039786,0,1,1,-1.561829103627015e-15,8.502201640039786Z" fill="#1f77b4" stroke="none"/></g><g transform="translate(326.39991069014246,123.66118731570472)" id="Představení"><path id="p_454.6106214689784" d="M-6.520368821433213e-16,3.5495234631312735A3.5495234631312735,3.5495234631312735,0,1,1,6.520368821433213e-16,-3.5495234631312735A3.5495234631312735,3.5495234631312735,0,1,1,-6.520368821433213e-16,3.5495234631312735Z" fill="#ff7f0e" stroke="none"/></g><g transform="translate(240.75416082443743,468.5706960431373)" id="Běžní zaměstnanci"><path id="p_726.2334947422555" d="M-2.922369367803332e-15,15.908637874680817A15.908637874680817,15.908637874680817,0,1,1,2.922369367803332e-15,-15.908637874680817A15.908637874680817,15.908637874680817,0,1,1,-2.922369367803332e-15,15.908637874680817Z" fill="#1f77b4" stroke="none"/></g><g transform="translate(267.65094561247577,468.5706960431373)" id="Představení"><path id="p_744.083798685094" d="M-1.2605577962100739e-15,6.862157029481063A6.862157029481063,6.862157029481063,0,1,1,1.2605577962100739e-15,-6.862157029481063A6.862157029481063,6.862157029481063,0,1,1,-1.2605577962100739e-15,6.862157029481063Z" fill="#ff7f0e" stroke="none"/></g><g transform="translate(295.61272166583757,468.5706960431373)" id="Běžní zaměstnanci"><path id="p_773.9050670812261" d="M-1.6021409980519568e-15,8.721649372251274A8.721649372251274,8.721649372251274,0,1,1,1.6021409980519568e-15,-8.721649372251274A8.721649372251274,8.721649372251274,0,1,1,-1.6021409980519568e-15,8.721649372251274Z" fill="#1f77b4" stroke="none"/></g><g transform="translate(312.98513327258075,468.5706960431373)" id="Představení"><path id="p_787.0806016663335" d="M-8.311871964077484e-16,4.52477235061545A4.52477235061545,4.52477235061545,0,1,1,8.311871964077484e-16,-4.52477235061545A4.52477235061545,4.52477235061545,0,1,1,-8.311871964077484e-16,4.52477235061545Z" fill="#ff7f0e" stroke="none"/></g><g transform="translate(490.76820330303116,157.60066919501355)" id="Běžní zaměstnanci"><path id="p_665.7313671833163" d="M-3.0057415113574966e-15,16.362494685271493A16.362494685271493,16.362494685271493,0,1,1,3.0057415113574966e-15,-16.362494685271493A16.362494685271493,16.362494685271493,0,1,1,-3.0057415113574966e-15,16.362494685271493Z" fill="#1f77b4" stroke="none"/></g><g transform="translate(519.311838497642,157.60066919501355)" id="Představení"><path id="p_685.9676583181184" d="M-1.4797071645184377e-15,8.055150625462883A8.055150625462883,8.055150625462883,0,1,1,1.4797071645184377e-15,-8.055150625462883A8.055150625462883,8.055150625462883,0,1,1,-1.4797071645184377e-15,8.055150625462883Z" fill="#ff7f0e" stroke="none"/></g><g transform="translate(494.28616604150875,453.8058030323138)" id="Běžní zaměstnanci"><path id="p_960.0754358993146" d="M-2.017630123706989e-15,10.983466825492009A10.983466825492009,10.983466825492009,0,1,1,2.017630123706989e-15,-10.983466825492009A10.983466825492009,10.983466825492009,0,1,1,-2.017630123706989e-15,10.983466825492009Z" fill="#1f77b4" stroke="none"/></g><g transform="translate(514.69024595882,453.8058030323138)" id="Představení"><path id="p_974.7906721990767" d="M-9.726065046447525e-16,5.294623207942726A5.294623207942726,5.294623207942726,0,1,1,9.726065046447525e-16,-5.294623207942726A5.294623207942726,5.294623207942726,0,1,1,-9.726065046447525e-16,5.294623207942726Z" fill="#ff7f0e" stroke="none"/></g><g transform="translate(543.3032048883888,453.8058030323138)" id="Běžní zaměstnanci"><path id="p_1009.0493739906993" d="M-2.009712643368261e-15,10.940366069996678A10.940366069996678,10.940366069996678,0,1,1,2.009712643368261e-15,-10.940366069996678A10.940366069996678,10.940366069996678,0,1,1,-2.009712643368261e-15,10.940366069996678Z" fill="#1f77b4" stroke="none"/></g><g transform="translate(563.6641840502047,453.8058030323138)" id="Představení"><path id="p_1023.7646102904612" d="M-9.726065046447525e-16,5.294623207942726A5.294623207942726,5.294623207942726,0,1,1,9.726065046447525e-16,-5.294623207942726A5.294623207942726,5.294623207942726,0,1,1,-9.726065046447525e-16,5.294623207942726Z" fill="#ff7f0e" stroke="none"/></g><g transform="translate(558.4407501102481,171.45898853879348)" id="Běžní zaměstnanci"><path id="p_742.4765734981254" d="M-2.1266300613281956e-15,11.57683484908377A11.57683484908377,11.57683484908377,0,1,1,2.1266300613281956e-15,-11.57683484908377A11.57683484908377,11.57683484908377,0,1,1,-2.1266300613281956e-15,11.57683484908377Z" fill="#1f77b4" stroke="none"/></g><g transform="translate(578.8054925287136,171.45898853879348)" id="Představení"><path id="p_755.9263987530122" d="M-8.563803857163541e-16,4.661917685505184A4.661917685505184,4.661917685505184,0,1,1,8.563803857163541e-16,-4.661917685505184A4.661917685505184,4.661917685505184,0,1,1,-8.563803857163541e-16,4.661917685505184Z" fill="#ff7f0e" stroke="none"/></g><g transform="translate(604.9901399972941,171.45898853879348)" id="Běžní zaměstnanci"><path id="p_786.5938886675335" d="M-1.6798651835918357e-15,9.144760131445917A9.144760131445917,9.144760131445917,0,1,1,1.6798651835918357e-15,-9.144760131445917A9.144760131445917,9.144760131445917,0,1,1,-1.6798651835918357e-15,9.144760131445917Z" fill="#1f77b4" stroke="none"/></g><g transform="translate(620.7707821233774,171.45898853879348)" id="Představení"><path id="p_795.7396627729319" d="M-4.610597009472761e-16,2.5098921107608816A2.5098921107608816,2.5098921107608816,0,1,1,4.610597009472761e-16,-2.5098921107608816A2.5098921107608816,2.5098921107608816,0,1,1,-4.610597009472761e-16,2.5098921107608816Z" fill="#ff7f0e" stroke="none"/></g><g transform="translate(154.02403659711038,172.4220954093701)" id="Běžní zaměstnanci"><path id="p_338.31428364986584" d="M-1.9964470684079872e-15,10.86815164338535A10.86815164338535,10.86815164338535,0,1,1,1.9964470684079872e-15,-10.86815164338535A10.86815164338535,10.86815164338535,0,1,1,-1.9964470684079872e-15,10.86815164338535Z" fill="#1f77b4" stroke="none"/></g><g transform="translate(173.3835147875828,172.4220954093701)" id="Představení"><path id="p_351.1709468601635" d="M-8.018993357702167e-16,4.365336663210597A4.365336663210597,4.365336663210597,0,1,1,8.018993357702167e-16,-4.365336663210597A4.365336663210597,4.365336663210597,0,1,1,-8.018993357702167e-16,4.365336663210597Z" fill="#ff7f0e" stroke="none"/></g><g transform="translate(199.12400541410767,172.4220954093701)" id="Běžní zaměstnanci"><path id="p_381.5432851351626" d="M-1.6527559452965387e-15,8.997184311684816A8.997184311684816,8.997184311684816,0,1,1,1.6527559452965387e-15,-8.997184311684816A8.997184311684816,8.997184311684816,0,1,1,-1.6527559452965387e-15,8.997184311684816Z" fill="#1f77b4" stroke="none"/></g><g transform="translate(215.59108693099174,172.4220954093701)" id="Představení"><path id="p_392.3570896616846" d="M-6.142658096554986e-16,3.3439073213227655A3.3439073213227655,3.3439073213227655,0,1,1,6.142658096554986e-16,-3.3439073213227655A3.3439073213227655,3.3439073213227655,0,1,1,-6.142658096554986e-16,3.3439073213227655Z" fill="#ff7f0e" stroke="none"/></g><g transform="translate(446.1381847101327,81.03911826978165)" id="Běžní zaměstnanci"><path id="p_536.368169664312" d="M-1.504637800093548e-15,8.190866684397687A8.190866684397687,8.190866684397687,0,1,1,1.504637800093548e-15,-8.190866684397687A8.190866684397687,8.190866684397687,0,1,1,-1.504637800093548e-15,8.190866684397687Z" fill="#1f77b4" stroke="none"/></g><g transform="translate(463.0144867211419,81.03911826978165)" id="Představení"><path id="p_549.6130504336585" d="M-8.375565400998624e-16,4.55944544273501A4.55944544273501,4.55944544273501,0,1,1,8.375565400998624e-16,-4.55944544273501A4.55944544273501,4.55944544273501,0,1,1,-8.375565400998624e-16,4.55944544273501Z" fill="#ff7f0e" stroke="none"/></g><g transform="translate(487.64708531117435,81.03911826978165)" id="Běžní zaměstnanci"><path id="p_577.381387076624" d="M-1.413582275523205e-15,7.695183495668009A7.695183495668009,7.695183495668009,0,1,1,1.413582275523205e-15,-7.695183495668009A7.695183495668009,7.695183495668009,0,1,1,-1.413582275523205e-15,7.695183495668009Z" fill="#1f77b4" stroke="none"/></g><g transform="translate(503.2539548456454,81.03911826978165)" id="Představení"><path id="p_589.0787692703536" d="M-6.954211018012908e-16,3.7856961549265744A3.7856961549265744,3.7856961549265744,0,1,1,6.954211018012908e-16,-3.7856961549265744A3.7856961549265744,3.7856961549265744,0,1,1,-6.954211018012908e-16,3.7856961549265744Z" fill="#ff7f0e" stroke="none"/></g><g transform="translate(203.87632430240575,415.8650445324796)" id="Běžní zaměstnanci"><path id="p_629.0373121569967" d="M-1.523940065299712e-15,8.29594332211126A8.29594332211126,8.29594332211126,0,1,1,1.523940065299712e-15,-8.29594332211126A8.29594332211126,8.29594332211126,0,1,1,-1.523940065299712e-15,8.29594332211126Z" fill="#1f77b4" stroke="none"/></g><g transform="translate(219.99981657676724,415.8650445324796)" id="Představení"><path id="p_640.5664201776206" d="M-6.799653697408142e-16,3.7015590683737414A3.7015590683737414,3.7015590683737414,0,1,1,6.799653697408142e-16,-3.7015590683737414A3.7015590683737414,3.7015590683737414,0,1,1,-6.799653697408142e-16,3.7015590683737414Z" fill="#ff7f0e" stroke="none"/></g><g transform="translate(349.36641846975357,85.71260029005697)" id="Běžní zaměstnanci"><path id="p_443.80484013443316" d="M-1.41921036258237e-15,7.725821374622624A7.725821374622624,7.725821374622624,0,1,1,1.41921036258237e-15,-7.725821374622624A7.725821374622624,7.725821374622624,0,1,1,-1.41921036258237e-15,7.725821374622624Z" fill="#1f77b4" stroke="none"/></g><g transform="translate(364.89845398452684,85.71260029005697)" id="Představení"><path id="p_455.29127853085794" d="M-6.760462283385821e-16,3.6802242562741183A3.6802242562741183,3.6802242562741183,0,1,1,6.760462283385821e-16,-3.6802242562741183A3.6802242562741183,3.6802242562741183,0,1,1,-6.760462283385821e-16,3.6802242562741183Z" fill="#ff7f0e" stroke="none"/></g><g transform="translate(571.8116137423198,398.69784383690154)" id="Běžní zaměstnanci"><path id="p_977.9452633974824" d="M-1.1822383492900938e-15,6.435805818261038A6.435805818261038,6.435805818261038,0,1,1,1.1822383492900938e-15,-6.435805818261038A6.435805818261038,6.435805818261038,0,1,1,-1.1822383492900938e-15,6.435805818261038Z" fill="#1f77b4" stroke="none"/></g><g transform="translate(585.235126748797,398.69784383690154)" id="Představení"><path id="p_987.7946878900383" d="M-5.25688940523642e-16,2.8617173043397606A2.8617173043397606,2.8617173043397606,0,1,1,5.25688940523642e-16,-2.8617173043397606A2.8617173043397606,2.8617173043397606,0,1,1,-5.25688940523642e-16,2.8617173043397606Z" fill="#ff7f0e" stroke="none"/></g><g transform="translate(320.9497881748822,525.2931651434052)" id="Běžní zaměstnanci"><path id="p_851.5538345858006" d="M-7.918960418646476e-16,4.310881267513194A4.310881267513194,4.310881267513194,0,1,1,7.918960418646476e-16,-4.310881267513194A4.310881267513194,4.310881267513194,0,1,1,-7.918960418646476e-16,4.310881267513194Z" fill="#1f77b4" stroke="none"/></g><g transform="translate(330.9236480714722,525.2931651434052)" id="Představení"><path id="p_858.7538019600778" d="M-2.823402520702582e-16,1.5369887452003004A1.5369887452003004,1.5369887452003004,0,1,1,2.823402520702582e-16,-1.5369887452003004A1.5369887452003004,1.5369887452003004,0,1,1,-2.823402520702582e-16,1.5369887452003004Z" fill="#ff7f0e" stroke="none"/></g><g transform="translate(347.2849466914264,525.2931651434052)" id="Běžní zaměstnanci"><path id="p_876.0244520579561" d="M-4.4938540858122245e-16,2.44634022312448A2.44634022312448,2.44634022312448,0,1,1,4.4938540858122245e-16,-2.44634022312448A2.44634022312448,2.44634022312448,0,1,1,-4.4938540858122245e-16,2.44634022312448Z" fill="#1f77b4" stroke="none"/></g><g transform="translate(353.8572767984274,525.2931651434052)" id="Představení"><path id="p_880.1504419418326" d="M0,0Z" fill="#ff7f0e" stroke="none"/></g></g><g id="labels"><g transform="translate(234.62069097662965,298.5838143752462)"><text text-anchor="middle" dominant-baseline="text-before-edge" transform="translate(0,-6.5)" style="opacity: 1;"><tspan x="0" y="0" dy="0" style="font-family: Arial, sans-serif; font-size: 10px; fill: black; font-weight: normal;">19543</tspan></text></g><g transform="translate(312.3975667401879,298.5838143752462)"><text text-anchor="middle" dominant-baseline="text-before-edge" transform="translate(0,-6.5)" style="opacity: 1;"><tspan x="0" y="0" dy="0" style="font-family: Arial, sans-serif; font-size: 10px; fill: black; font-weight: normal;">2097</tspan></text></g><g transform="translate(357.38304543079283,298.5838143752462)"><text text-anchor="middle" dominant-baseline="text-before-edge" transform="translate(0,-6.5)" style="opacity: 1;"><tspan x="0" y="0" dy="0" style="font-family: Arial, sans-serif; font-size: 10px; fill: black; font-weight: normal;">1323</tspan></text></g><g transform="translate(380.94771564560125,298.5838143752462)"><text text-anchor="middle" dominant-baseline="text-before-edge" transform="translate(0,-6.5)" style="opacity: 1;"><tspan x="0" y="0" dy="0" style="font-family: Arial, sans-serif; font-size: 10px; fill: black; font-weight: normal;">159</tspan></text></g><g transform="translate(452.80567888781667,298.5838143752462)"><text text-anchor="middle" dominant-baseline="text-before-edge" transform="translate(0,-6.5)" style="opacity: 1;"><tspan x="0" y="0" dy="0" style="font-family: Arial, sans-serif; font-size: 10px; fill: black; font-weight: normal;">13567</tspan></text></g><g transform="translate(520.9740761553386,298.5838143752462)"><text text-anchor="middle" dominant-baseline="text-before-edge" transform="translate(0,-6.5)" style="opacity: 1;"><tspan x="0" y="0" dy="0" style="font-family: Arial, sans-serif; font-size: 10px; fill: black; font-weight: normal;">2016</tspan></text></g><g transform="translate(565.1731460510881,298.5838143752462)"><text text-anchor="middle" dominant-baseline="text-before-edge" transform="translate(0,-6.5)" style="opacity: 1;"><tspan x="0" y="0" dy="0" style="font-family: Arial, sans-serif; font-size: 10px; fill: black; font-weight: normal;">1245</tspan></text></g><g transform="translate(588.8149693635265,298.5838143752462)"><text text-anchor="middle" dominant-baseline="text-before-edge" transform="translate(0,-6.5)" style="opacity: 1;"><tspan x="0" y="0" dy="0" style="font-family: Arial, sans-serif; font-size: 10px; fill: black; font-weight: normal;">193</tspan></text></g><g transform="translate(364.12411634922415,445.15360707838596)"><text text-anchor="middle" dominant-baseline="text-before-edge" transform="translate(0,-6.5)" style="opacity: 1;"><tspan x="0" y="0" dy="0" style="font-family: Arial, sans-serif; font-size: 10px; fill: black; font-weight: normal;">5015</tspan></text></g><g transform="translate(407.2867798523622,445.15360707838596)"><text text-anchor="middle" dominant-baseline="text-before-edge" transform="translate(0,-6.5)" style="opacity: 1;"><tspan x="0" y="0" dy="0" style="font-family: Arial, sans-serif; font-size: 10px; fill: black; font-weight: normal;">759</tspan></text></g><g transform="translate(440.31868594129253,445.15360707838596)"><text text-anchor="middle" dominant-baseline="text-before-edge" transform="translate(0,-6.5)" style="opacity: 1;"><tspan x="0" y="0" dy="0" style="font-family: Arial, sans-serif; font-size: 10px; fill: black; font-weight: normal;">600</tspan></text></g><g transform="translate(458.5667121369328,445.15360707838596)"><text text-anchor="middle" dominant-baseline="text-before-edge" transform="translate(0,-6.5)" style="opacity: 0;"><tspan x="0" y="0" dy="0" style="font-family: Arial, sans-serif; font-size: 10px; fill: black; font-weight: normal;">123</tspan></text></g><g transform="translate(364.2546903851712,162.95806248127647)"><text text-anchor="middle" dominant-baseline="text-before-edge" transform="translate(0,-6.5)" style="opacity: 1;"><tspan x="0" y="0" dy="0" style="font-family: Arial, sans-serif; font-size: 10px; fill: black; font-weight: normal;">2525</tspan></text></g><g transform="translate(395.0918182325821,162.95806248127647)"><text text-anchor="middle" dominant-baseline="text-before-edge" transform="translate(0,-6.5)" style="opacity: 1;"><tspan x="0" y="0" dy="0" style="font-family: Arial, sans-serif; font-size: 10px; fill: black; font-weight: normal;">291</tspan></text></g><g transform="translate(427.0743741029446,162.95806248127647)"><text text-anchor="middle" dominant-baseline="text-before-edge" transform="translate(0,-6.5)" style="opacity: 1;"><tspan x="0" y="0" dy="0" style="font-family: Arial, sans-serif; font-size: 10px; fill: black; font-weight: normal;">1046</tspan></text></g><g transform="translate(448.9759445798668,162.95806248127647)"><text text-anchor="middle" dominant-baseline="text-before-edge" transform="translate(0,-6.5)" style="opacity: 0;"><tspan x="0" y="0" dy="0" style="font-family: Arial, sans-serif; font-size: 10px; fill: black; font-weight: normal;">155</tspan></text></g><g transform="translate(247.36069206262331,123.66118731570472)"><text text-anchor="middle" dominant-baseline="text-before-edge" transform="translate(0,-6.5)" style="opacity: 1;"><tspan x="0" y="0" dy="0" style="font-family: Arial, sans-serif; font-size: 10px; fill: black; font-weight: normal;">2355</tspan></text></g><g transform="translate(280.0435600680446,123.66118731570472)"><text text-anchor="middle" dominant-baseline="text-before-edge" transform="translate(0,-6.5)" style="opacity: 1;"><tspan x="0" y="0" dy="0" style="font-family: Arial, sans-serif; font-size: 10px; fill: black; font-weight: normal;">549</tspan></text></g><g transform="translate(310.22219570309494,123.66118731570472)"><text text-anchor="middle" dominant-baseline="text-before-edge" transform="translate(0,-6.5)" style="opacity: 1;"><tspan x="0" y="0" dy="0" style="font-family: Arial, sans-serif; font-size: 10px; fill: black; font-weight: normal;">459</tspan></text></g><g transform="translate(326.39991069014246,123.66118731570472)"><text text-anchor="middle" dominant-baseline="text-before-edge" transform="translate(0,-6.5)" style="opacity: 0;"><tspan x="0" y="0" dy="0" style="font-family: Arial, sans-serif; font-size: 10px; fill: black; font-weight: normal;">80</tspan></text></g><g transform="translate(240.75416082443743,468.5706960431373)"><text text-anchor="middle" dominant-baseline="text-before-edge" transform="translate(0,-6.5)" style="opacity: 1;"><tspan x="0" y="0" dy="0" style="font-family: Arial, sans-serif; font-size: 10px; fill: black; font-weight: normal;">1607</tspan></text></g><g transform="translate(267.65094561247577,468.5706960431373)"><text text-anchor="middle" dominant-baseline="text-before-edge" transform="translate(0,-6.5)" style="opacity: 1;"><tspan x="0" y="0" dy="0" style="font-family: Arial, sans-serif; font-size: 10px; fill: black; font-weight: normal;">299</tspan></text></g><g transform="translate(295.61272166583757,468.5706960431373)"><text text-anchor="middle" dominant-baseline="text-before-edge" transform="translate(0,-6.5)" style="opacity: 1;"><tspan x="0" y="0" dy="0" style="font-family: Arial, sans-serif; font-size: 10px; fill: black; font-weight: normal;">483</tspan></text></g><g transform="translate(312.98513327258075,468.5706960431373)"><text text-anchor="middle" dominant-baseline="text-before-edge" transform="translate(0,-6.5)" style="opacity: 0;"><tspan x="0" y="0" dy="0" style="font-family: Arial, sans-serif; font-size: 10px; fill: black; font-weight: normal;">130</tspan></text></g><g transform="translate(490.76820330303116,157.60066919501355)"><text text-anchor="middle" dominant-baseline="text-before-edge" transform="translate(0,-6.5)" style="opacity: 1;"><tspan x="0" y="0" dy="0" style="font-family: Arial, sans-serif; font-size: 10px; fill: black; font-weight: normal;">1700</tspan></text></g><g transform="translate(519.311838497642,157.60066919501355)"><text text-anchor="middle" dominant-baseline="text-before-edge" transform="translate(0,-6.5)" style="opacity: 1;"><tspan x="0" y="0" dy="0" style="font-family: Arial, sans-serif; font-size: 10px; fill: black; font-weight: normal;">412</tspan></text></g><g transform="translate(494.28616604150875,453.8058030323138)"><text text-anchor="middle" dominant-baseline="text-before-edge" transform="translate(0,-6.5)" style="opacity: 1;"><tspan x="0" y="0" dy="0" style="font-family: Arial, sans-serif; font-size: 10px; fill: black; font-weight: normal;">766</tspan></text></g><g transform="translate(514.69024595882,453.8058030323138)"><text text-anchor="middle" dominant-baseline="text-before-edge" transform="translate(0,-6.5)" style="opacity: 0;"><tspan x="0" y="0" dy="0" style="font-family: Arial, sans-serif; font-size: 10px; fill: black; font-weight: normal;">178</tspan></text></g><g transform="translate(543.3032048883888,453.8058030323138)"><text text-anchor="middle" dominant-baseline="text-before-edge" transform="translate(0,-6.5)" style="opacity: 1;"><tspan x="0" y="0" dy="0" style="font-family: Arial, sans-serif; font-size: 10px; fill: black; font-weight: normal;">760</tspan></text></g><g transform="translate(563.6641840502047,453.8058030323138)"><text text-anchor="middle" dominant-baseline="text-before-edge" transform="translate(0,-6.5)" style="opacity: 0;"><tspan x="0" y="0" dy="0" style="font-family: Arial, sans-serif; font-size: 10px; fill: black; font-weight: normal;">178</tspan></text></g><g transform="translate(558.4407501102481,171.45898853879348)"><text text-anchor="middle" dominant-baseline="text-before-edge" transform="translate(0,-6.5)" style="opacity: 1;"><tspan x="0" y="0" dy="0" style="font-family: Arial, sans-serif; font-size: 10px; fill: black; font-weight: normal;">851</tspan></text></g><g transform="translate(578.8054925287136,171.45898853879348)"><text text-anchor="middle" dominant-baseline="text-before-edge" transform="translate(0,-6.5)" style="opacity: 0;"><tspan x="0" y="0" dy="0" style="font-family: Arial, sans-serif; font-size: 10px; fill: black; font-weight: normal;">138</tspan></text></g><g transform="translate(604.9901399972941,171.45898853879348)"><text text-anchor="middle" dominant-baseline="text-before-edge" transform="translate(0,-6.5)" style="opacity: 1;"><tspan x="0" y="0" dy="0" style="font-family: Arial, sans-serif; font-size: 10px; fill: black; font-weight: normal;">531</tspan></text></g><g transform="translate(620.7707821233774,171.45898853879348)"><text text-anchor="middle" dominant-baseline="text-before-edge" transform="translate(0,-6.5)" style="opacity: 0;"><tspan x="0" y="0" dy="0" style="font-family: Arial, sans-serif; font-size: 10px; fill: black; font-weight: normal;">40</tspan></text></g><g transform="translate(154.02403659711038,172.4220954093701)"><text text-anchor="middle" dominant-baseline="text-before-edge" transform="translate(0,-6.5)" style="opacity: 1;"><tspan x="0" y="0" dy="0" style="font-family: Arial, sans-serif; font-size: 10px; fill: black; font-weight: normal;">750</tspan></text></g><g transform="translate(173.3835147875828,172.4220954093701)"><text text-anchor="middle" dominant-baseline="text-before-edge" transform="translate(0,-6.5)" style="opacity: 0;"><tspan x="0" y="0" dy="0" style="font-family: Arial, sans-serif; font-size: 10px; fill: black; font-weight: normal;">121</tspan></text></g><g transform="translate(199.12400541410767,172.4220954093701)"><text text-anchor="middle" dominant-baseline="text-before-edge" transform="translate(0,-6.5)" style="opacity: 1;"><tspan x="0" y="0" dy="0" style="font-family: Arial, sans-serif; font-size: 10px; fill: black; font-weight: normal;">514</tspan></text></g><g transform="translate(215.59108693099174,172.4220954093701)"><text text-anchor="middle" dominant-baseline="text-before-edge" transform="translate(0,-6.5)" style="opacity: 0;"><tspan x="0" y="0" dy="0" style="font-family: Arial, sans-serif; font-size: 10px; fill: black; font-weight: normal;">71</tspan></text></g><g transform="translate(446.1381847101327,81.03911826978165)"><text text-anchor="middle" dominant-baseline="text-before-edge" transform="translate(0,-6.5)" style="opacity: 1;"><tspan x="0" y="0" dy="0" style="font-family: Arial, sans-serif; font-size: 10px; fill: black; font-weight: normal;">426</tspan></text></g><g transform="translate(463.0144867211419,81.03911826978165)"><text text-anchor="middle" dominant-baseline="text-before-edge" transform="translate(0,-6.5)" style="opacity: 0;"><tspan x="0" y="0" dy="0" style="font-family: Arial, sans-serif; font-size: 10px; fill: black; font-weight: normal;">132</tspan></text></g><g transform="translate(487.64708531117435,81.03911826978165)"><text text-anchor="middle" dominant-baseline="text-before-edge" transform="translate(0,-6.5)" style="opacity: 1;"><tspan x="0" y="0" dy="0" style="font-family: Arial, sans-serif; font-size: 10px; fill: black; font-weight: normal;">376</tspan></text></g><g transform="translate(503.2539548456454,81.03911826978165)"><text text-anchor="middle" dominant-baseline="text-before-edge" transform="translate(0,-6.5)" style="opacity: 0;"><tspan x="0" y="0" dy="0" style="font-family: Arial, sans-serif; font-size: 10px; fill: black; font-weight: normal;">91</tspan></text></g><g transform="translate(203.87632430240575,415.8650445324796)"><text text-anchor="middle" dominant-baseline="text-before-edge" transform="translate(0,-6.5)" style="opacity: 1;"><tspan x="0" y="0" dy="0" style="font-family: Arial, sans-serif; font-size: 10px; fill: black; font-weight: normal;">437</tspan></text></g><g transform="translate(219.99981657676724,415.8650445324796)"><text text-anchor="middle" dominant-baseline="text-before-edge" transform="translate(0,-6.5)" style="opacity: 0;"><tspan x="0" y="0" dy="0" style="font-family: Arial, sans-serif; font-size: 10px; fill: black; font-weight: normal;">87</tspan></text></g><g transform="translate(349.36641846975357,85.71260029005697)"><text text-anchor="middle" dominant-baseline="text-before-edge" transform="translate(0,-6.5)" style="opacity: 1;"><tspan x="0" y="0" dy="0" style="font-family: Arial, sans-serif; font-size: 10px; fill: black; font-weight: normal;">379</tspan></text></g><g transform="translate(364.89845398452684,85.71260029005697)"><text text-anchor="middle" dominant-baseline="text-before-edge" transform="translate(0,-6.5)" style="opacity: 0;"><tspan x="0" y="0" dy="0" style="font-family: Arial, sans-serif; font-size: 10px; fill: black; font-weight: normal;">86</tspan></text></g><g transform="translate(571.8116137423198,398.69784383690154)"><text text-anchor="middle" dominant-baseline="text-before-edge" transform="translate(0,-6.5)" style="opacity: 1;"><tspan x="0" y="0" dy="0" style="font-family: Arial, sans-serif; font-size: 10px; fill: black; font-weight: normal;">263</tspan></text></g><g transform="translate(585.235126748797,398.69784383690154)"><text text-anchor="middle" dominant-baseline="text-before-edge" transform="translate(0,-6.5)" style="opacity: 0;"><tspan x="0" y="0" dy="0" style="font-family: Arial, sans-serif; font-size: 10px; fill: black; font-weight: normal;">52</tspan></text></g><g transform="translate(320.9497881748822,525.2931651434052)"><text text-anchor="middle" dominant-baseline="text-before-edge" transform="translate(0,-6.5)" style="opacity: 1;"><tspan x="0" y="0" dy="0" style="font-family: Arial, sans-serif; font-size: 10px; fill: black; font-weight: normal;">118</tspan></text></g><g transform="translate(330.9236480714722,525.2931651434052)"><text text-anchor="middle" dominant-baseline="text-before-edge" transform="translate(0,-6.5)" style="opacity: 0;"><tspan x="0" y="0" dy="0" style="font-family: Arial, sans-serif; font-size: 10px; fill: black; font-weight: normal;">15</tspan></text></g><g transform="translate(347.2849466914264,525.2931651434052)"><text text-anchor="middle" dominant-baseline="text-before-edge" transform="translate(0,-6.5)" style="opacity: 1;"><tspan x="0" y="0" dy="0" style="font-family: Arial, sans-serif; font-size: 10px; fill: black; font-weight: normal;">38</tspan></text></g><g transform="translate(353.8572767984274,525.2931651434052)"><text text-anchor="middle" dominant-baseline="text-before-edge" transform="translate(0,-6.5)" style="opacity: 0;"><tspan x="0" y="0" dy="0" style="font-family: Arial, sans-serif; font-size: 10px; fill: black; font-weight: normal;">0</tspan></text></g></g></g><g id="legend" transform="translate(805,20)"><g transform="translate(5,0)"><g class="legendSize" transform="translate(0,0)"><g class="legendCells" transform="translate(50,17)"><g class="cell" transform="translate(0, 25)"><circle class="swatch" r="25" fill="none" stroke="#ccc"/><text class="label" transform="translate( 55,&#xA;          5)" font-family="&quot;Arial&quot;, sans-serif" font-size="10px"><tspan x="0" dy="0em">3968.5</tspan></text></g><g class="cell" transform="translate(0, 125)"><circle class="swatch" r="50" fill="none" stroke="#ccc"/><text class="label" transform="translate( 55,&#xA;          5)" font-family="&quot;Arial&quot;, sans-serif" font-size="10px"><tspan x="0" dy="0em">15874.1</tspan></text></g></g><text class="legendTitle" font-family="&quot;Arial&quot;, sans-serif" font-size="12px" font-weight="bold"><tspan x="0" dy="0em">n [sum]</tspan></text></g><g class="legendColor" transform="translate(0,225)"><g class="legendCells" transform="translate(0,17)"><g class="cell" transform="translate(0, 0)"><rect class="swatch" height="15" width="15" style="fill: rgb(31, 119, 180);"/><text class="label" transform="translate( 20, 12.5)" font-family="&quot;Arial&quot;, sans-serif" font-size="10px"><tspan x="0" dy="0em">Běžní zaměstnanci</tspan></text></g><g class="cell" transform="translate(0, 22)"><rect class="swatch" height="15" width="15" style="fill: rgb(255, 127, 14);"/><text class="label" transform="translate( 20, 12.5)" font-family="&quot;Arial&quot;, sans-serif" font-size="10px"><tspan x="0" dy="0em">Představení</tspan></text></g></g><text class="legendTitle" font-family="&quot;Arial&quot;, sans-serif" font-size="12px" font-weight="bold"><tspan x="0" dy="0em">level_nazev [csvDistinct]</tspan></text></g></g></g></svg>