<svg xmlns="http://www.w3.org/2000/svg" width="650" height="450"><rect width="650" height="450" x="0" y="0" fill="#FFFFFF" id="backgorund"/><g transform="translate(20,20)" id="viz"><g id="nodes"><g transform="translate(231,206)"><path id="p_643" d="M-3.765788907378111e-14,205A205,205,0,1,1,3.765788907378111e-14,-205A205,205,0,1,1,-3.765788907378111e-14,205Z" fill="none" stroke="#ccc"/><text fill="black" text-anchor="middle" font-family="'Arial', sans-serif" font-size="8" dominant-baseline="middle"><textPath href="#p_643" startOffset="50%"/></text></g><g transform="translate(161.90306669564796,209.04974475066118)" id="MPSV"><path id="p_447.9760534836972" d="M-1.3965243003283768e-14,76.02324203738806A76.02324203738806,76.02324203738806,0,1,1,1.3965243003283768e-14,-76.02324203738806A76.02324203738806,76.02324203738806,0,1,1,-1.3965243003283768e-14,76.02324203738806Z" fill="none" stroke="#ccc"/><text fill="black" text-anchor="middle" font-family="'Arial', sans-serif" font-size="8" dominant-baseline="middle"><textPath href="#p_447.9760534836972" startOffset="50%">MPSV</textPath></text></g><g transform="translate(311.4491275663419,209.04974475066118)" id="MFČR"><path id="p_591.4047105100051" d="M-1.2841494147715924e-14,69.90583819300211A69.90583819300211,69.90583819300211,0,1,1,1.2841494147715924e-14,-69.90583819300211A69.90583819300211,69.90583819300211,0,1,1,-1.2841494147715924e-14,69.90583819300211Z" fill="none" stroke="#ccc"/><text fill="black" text-anchor="middle" font-family="'Arial', sans-serif" font-size="8" dominant-baseline="middle"><textPath href="#p_591.4047105100051" startOffset="50%">MFČR</textPath></text></g><g transform="translate(241.8702515599716,311.5892604869139)" id="MZe"><path id="p_604.8542959733775" d="M-9.257371624395138e-15,50.39478392649201A50.39478392649201,50.39478392649201,0,1,1,9.257371624395138e-15,-50.39478392649201A50.39478392649201,50.39478392649201,0,1,1,-9.257371624395138e-15,50.39478392649201Z" fill="none" stroke="#ccc"/><text fill="black" text-anchor="middle" font-family="'Arial', sans-serif" font-size="8" dominant-baseline="middle"><textPath href="#p_604.8542959733775" startOffset="50%">MZe</textPath></text></g><g transform="translate(241.64257156871577,113.47684850045486)" id="MVČR"><path id="p_400.9483386878448" d="M-8.234938754339471e-15,44.828918618674145A44.828918618674145,44.828918618674145,0,1,1,8.234938754339471e-15,-44.828918618674145A44.828918618674145,44.828918618674145,0,1,1,-8.234938754339471e-15,44.828918618674145Z" fill="none" stroke="#ccc"/><text fill="black" text-anchor="middle" font-family="'Arial', sans-serif" font-size="8" dominant-baseline="middle"><textPath href="#p_400.9483386878448" startOffset="50%">MVČR</textPath></text></g><g transform="translate(154.71814685754669,87.28144729769687)" id="MZd"><path id="p_285.33945730172854" d="M-7.777706681801973e-15,42.339863146484994A42.339863146484994,42.339863146484994,0,1,1,7.777706681801973e-15,-42.339863146484994A42.339863146484994,42.339863146484994,0,1,1,-7.777706681801973e-15,42.339863146484994Z" fill="none" stroke="#ccc"/><text fill="black" text-anchor="middle" font-family="'Arial', sans-serif" font-size="8" dominant-baseline="middle"><textPath href="#p_285.33945730172854" startOffset="50%">MZd</textPath></text></g><g transform="translate(149.8251646038936,327.4686453410644)" id="MŽP"><path id="p_517.6868252135549" d="M-7.23637950861751e-15,39.393015268596955A39.393015268596955,39.393015268596955,0,1,1,7.23637950861751e-15,-39.393015268596955A39.393015268596955,39.393015268596955,0,1,1,-7.23637950861751e-15,39.393015268596955Z" fill="none" stroke="#ccc"/><text fill="black" text-anchor="middle" font-family="'Arial', sans-serif" font-size="8" dominant-baseline="middle"><textPath href="#p_517.6868252135549" startOffset="50%">MŽP</textPath></text></g><g transform="translate(314.7561619049976,110.86839872691071)" id="MZV"><path id="p_451.33876731929126" d="M-4.539926116975451e-15,24.714206687382976A24.714206687382976,24.714206687382976,0,1,1,4.539926116975451e-15,-24.714206687382976A24.714206687382976,24.714206687382976,0,1,1,-4.539926116975451e-15,24.714206687382976Z" fill="none" stroke="#ccc"/><text fill="black" text-anchor="middle" font-family="'Arial', sans-serif" font-size="8" dominant-baseline="middle"><textPath href="#p_451.33876731929126" startOffset="50%">MZV</textPath></text></g><g transform="translate(332.8254680384599,317.6324041199164)" id="MPO"><path id="p_688.6018588616884" d="M-6.8232396635674515e-15,37.1439867033121A37.1439867033121,37.1439867033121,0,1,1,6.8232396635674515e-15,-37.1439867033121A37.1439867033121,37.1439867033121,0,1,1,-6.8232396635674515e-15,37.1439867033121Z" fill="none" stroke="#ccc"/><text fill="black" text-anchor="middle" font-family="'Arial', sans-serif" font-size="8" dominant-baseline="middle"><textPath href="#p_688.6018588616884" startOffset="50%">MPO</textPath></text></g><g transform="translate(376.0960143762834,122.90766356065785)" id="MŠMT"><path id="p_534.1826609732536" d="M-6.278577326029758e-15,34.178983036312445A34.178983036312445,34.178983036312445,0,1,1,6.278577326029758e-15,-34.178983036312445A34.178983036312445,34.178983036312445,0,1,1,-6.278577326029758e-15,34.178983036312445Z" fill="none" stroke="#ccc"/><text fill="black" text-anchor="middle" font-family="'Arial', sans-serif" font-size="8" dominant-baseline="middle"><textPath href="#p_534.1826609732536" startOffset="50%">MŠMT</textPath></text></g><g transform="translate(84.6487573269107,125.74281915488336)" id="MMR"><path id="p_245.36593107419128" d="M-6.240987690701466e-15,33.974354592397226A33.974354592397226,33.974354592397226,0,1,1,6.240987690701466e-15,-33.974354592397226A33.974354592397226,33.974354592397226,0,1,1,-6.240987690701466e-15,33.974354592397226Z" fill="none" stroke="#ccc"/><text fill="black" text-anchor="middle" font-family="'Arial', sans-serif" font-size="8" dominant-baseline="middle"><textPath href="#p_245.36593107419128" startOffset="50%">MMR</textPath></text></g><g transform="translate(84.37802043652442,289.9662130463182)" id="MO"><path id="p_407.7647427272712" d="M-5.955550930937487e-15,32.42050924442854A32.42050924442854,32.42050924442854,0,1,1,5.955550930937487e-15,-32.42050924442854A32.42050924442854,32.42050924442854,0,1,1,-5.955550930937487e-15,32.42050924442854Z" fill="none" stroke="#ccc"/><text fill="black" text-anchor="middle" font-family="'Arial', sans-serif" font-size="8" dominant-baseline="middle"><textPath href="#p_407.7647427272712" startOffset="50%">MO</textPath></text></g><g transform="translate(295.4380309696357,53.89474183892395)" id="MD"><path id="p_382.1612710022071" d="M-5.846800265177656e-15,31.828498193647487A31.828498193647487,31.828498193647487,0,1,1,5.846800265177656e-15,-31.828498193647487A31.828498193647487,31.828498193647487,0,1,1,-5.846800265177656e-15,31.828498193647487Z" fill="none" stroke="#ccc"/><text fill="black" text-anchor="middle" font-family="'Arial', sans-serif" font-size="8" dominant-baseline="middle"><textPath href="#p_382.1612710022071" startOffset="50%">MD</textPath></text></g><g transform="translate(209.49190921630424,56.76804580624895)" id="ÚV"><path id="p_284.0026544040519" d="M-3.0755839809958113e-15,16.742699381498692A16.742699381498692,16.742699381498692,0,1,1,3.0755839809958113e-15,-16.742699381498692A16.742699381498692,16.742699381498692,0,1,1,-3.0755839809958113e-15,16.742699381498692Z" fill="none" stroke="#ccc"/><text fill="black" text-anchor="middle" font-family="'Arial', sans-serif" font-size="8" dominant-baseline="middle"><textPath href="#p_284.0026544040519" startOffset="50%">ÚV</textPath></text></g><g transform="translate(371.687185235274,275.76445847989385)" id="MSp"><path id="p_664.8147337869793" d="M-3.0058508820905638e-15,16.363090071811477A16.363090071811477,16.363090071811477,0,1,1,3.0058508820905638e-15,-16.363090071811477A16.363090071811477,16.363090071811477,0,1,1,-3.0058508820905638e-15,16.363090071811477Z" fill="none" stroke="#ccc"/><text fill="black" text-anchor="middle" font-family="'Arial', sans-serif" font-size="8" dominant-baseline="middle"><textPath href="#p_664.8147337869793" startOffset="50%">MSp</textPath></text></g><g transform="translate(195.7435004290886,362.9341598325458)" id="MKČR"><path id="p_574.687456519725" d="M-2.757254841498686e-15,15.009796258090603A15.009796258090603,15.009796258090603,0,1,1,2.757254841498686e-15,-15.009796258090603A15.009796258090603,15.009796258090603,0,1,1,-2.757254841498686e-15,15.009796258090603Z" fill="none" stroke="#ccc"/><text fill="black" text-anchor="middle" font-family="'Arial', sans-serif" font-size="8" dominant-baseline="middle"><textPath href="#p_574.687456519725" startOffset="50%">MKČR</textPath></text></g><g transform="translate(142.19295411229348,209.04974475066118)" id="Mimo ministerstvo"><path id="p_404.9388476766845" d="M-9.680125495819024e-15,52.69614881372983A52.69614881372983,52.69614881372983,0,1,1,9.680125495819024e-15,-52.69614881372983A52.69614881372983,52.69614881372983,0,1,1,-9.680125495819024e-15,52.69614881372983Z" fill="none" stroke="#ccc"/><text fill="black" text-anchor="middle" font-family="'Arial', sans-serif" font-size="8" dominant-baseline="middle"><textPath href="#p_404.9388476766845" startOffset="50%">Mimo ministerstvo</textPath></text></g><g transform="translate(216.40770582952968,209.04974475066118)" id="Centrální ministerstvo"><path id="p_444.3590728433935" d="M-3.288474660626409e-15,17.9016222632026A17.9016222632026,17.9016222632026,0,1,1,3.288474660626409e-15,-17.9016222632026A17.9016222632026,17.9016222632026,0,1,1,-3.288474660626409e-15,17.9016222632026Z" fill="none" stroke="#ccc"/><text fill="black" text-anchor="middle" font-family="'Arial', sans-serif" font-size="8" dominant-baseline="middle"><textPath href="#p_444.3590728433935" startOffset="50%">Centrální ministerstvo</textPath></text></g><g transform="translate(291.6894965124369,209.04974475066118)" id="Mimo ministerstvo"><path id="p_548.2684677618914" d="M-8.547280244782428e-15,46.52922649879338A46.52922649879338,46.52922649879338,0,1,1,8.547280244782428e-15,-46.52922649879338A46.52922649879338,46.52922649879338,0,1,1,-8.547280244782428e-15,46.52922649879338Z" fill="none" stroke="#ccc"/><text fill="black" text-anchor="middle" font-family="'Arial', sans-serif" font-size="8" dominant-baseline="middle"><textPath href="#p_548.2684677618914" startOffset="50%">Mimo ministerstvo</textPath></text></g><g transform="translate(359.7868443852871,209.04974475066118)" id="Centrální ministerstvo"><path id="p_587.7877298697014" d="M-3.29757105609516e-15,17.9511407337531A17.9511407337531,17.9511407337531,0,1,1,3.29757105609516e-15,-17.9511407337531A17.9511407337531,17.9511407337531,0,1,1,-3.29757105609516e-15,17.9511407337531Z" fill="none" stroke="#ccc"/><text fill="black" text-anchor="middle" font-family="'Arial', sans-serif" font-size="8" dominant-baseline="middle"><textPath href="#p_587.7877298697014" startOffset="50%">Centrální ministerstvo</textPath></text></g><g transform="translate(225.57247222541469,311.5892604869139)" id="Mimo ministerstvo"><path id="p_568.6417566639599" d="M-5.599089565545e-15,30.480023951631356A30.480023951631356,30.480023951631356,0,1,1,5.599089565545e-15,-30.480023951631356A30.480023951631356,30.480023951631356,0,1,1,-5.599089565545e-15,30.480023951631356Z" fill="none" stroke="#ccc"/><text fill="black" text-anchor="middle" font-family="'Arial', sans-serif" font-size="8" dominant-baseline="middle"><textPath href="#p_568.6417566639599" startOffset="50%">Mimo ministerstvo</textPath></text></g><g transform="translate(274.1587658317548,311.5892604869139)" id="Centrální ministerstvo"><path id="p_601.2373153330738" d="M-2.6616392120118037e-15,14.489289014405028A14.489289014405028,14.489289014405028,0,1,1,2.6616392120118037e-15,-14.489289014405028A14.489289014405028,14.489289014405028,0,1,1,-2.6616392120118037e-15,14.489289014405028Z" fill="none" stroke="#ccc"/><text fill="black" text-anchor="middle" font-family="'Arial', sans-serif" font-size="8" dominant-baseline="middle"><textPath href="#p_601.2373153330738" startOffset="50%">Centrální ministerstvo</textPath></text></g><g transform="translate(222.9998711557446,113.47684850045486)" id="Centrální ministerstvo"><path id="p_360.04595722159866" d="M-4.145901681549349e-15,22.5692375653992A22.5692375653992,22.5692375653992,0,1,1,4.145901681549349e-15,-22.5692375653992A22.5692375653992,22.5692375653992,0,1,1,-4.145901681549349e-15,22.5692375653992Z" fill="none" stroke="#ccc"/><text fill="black" text-anchor="middle" font-family="'Arial', sans-serif" font-size="8" dominant-baseline="middle"><textPath href="#p_360.04595722159866" startOffset="50%">Centrální ministerstvo</textPath></text></g><g transform="translate(266.0202994542668,113.47684850045486)" id="Mimo ministerstvo"><path id="p_397.331358047541" d="M-3.092394225951786e-15,16.834210092819315A16.834210092819315,16.834210092819315,0,1,1,3.092394225951786e-15,-16.834210092819315A16.834210092819315,16.834210092819315,0,1,1,-3.092394225951786e-15,16.834210092819315Z" fill="none" stroke="#ccc"/><text fill="black" text-anchor="middle" font-family="'Arial', sans-serif" font-size="8" dominant-baseline="middle"><textPath href="#p_397.331358047541" startOffset="50%">Mimo ministerstvo</textPath></text></g><g transform="translate(139.749136525949,87.28144729769687)" id="Mimo ministerstvo"><path id="p_251.78445599822948" d="M-4.363515528893874e-15,23.75387217458358A23.75387217458358,23.75387217458358,0,1,1,4.363515528893874e-15,-23.75387217458358A23.75387217458358,23.75387217458358,0,1,1,-4.363515528893874e-15,23.75387217458358Z" fill="none" stroke="#ccc"/><text fill="black" text-anchor="middle" font-family="'Arial', sans-serif" font-size="8" dominant-baseline="middle"><textPath href="#p_251.78445599822948" startOffset="50%">Mimo ministerstvo</textPath></text></g><g transform="translate(180.28050935228214,87.28144729769687)" id="Centrální ministerstvo"><path id="p_281.7224766614248" d="M-2.417548306069766e-15,13.160520011445788A13.160520011445788,13.160520011445788,0,1,1,2.417548306069766e-15,-13.160520011445788A13.160520011445788,13.160520011445788,0,1,1,-2.417548306069766e-15,13.160520011445788Z" fill="none" stroke="#ccc"/><text fill="black" text-anchor="middle" font-family="'Arial', sans-serif" font-size="8" dominant-baseline="middle"><textPath href="#p_281.7224766614248" startOffset="50%">Centrální ministerstvo</textPath></text></g><g transform="translate(134.08937301274275,327.4686453410644)" id="Mimo ministerstvo"><path id="p_482.5982613909495" d="M-3.681332923435714e-15,20.04024303714236A20.04024303714236,20.04024303714236,0,1,1,3.681332923435714e-15,-20.04024303714236A20.04024303714236,20.04024303714236,0,1,1,-3.681332923435714e-15,20.04024303714236Z" fill="none" stroke="#ccc"/><text fill="black" text-anchor="middle" font-family="'Arial', sans-serif" font-size="8" dominant-baseline="middle"><textPath href="#p_482.5982613909495" startOffset="50%">Mimo ministerstvo</textPath></text></g><g transform="translate(171.67389796118783,327.4686453410644)" id="Centrální ministerstvo"><path id="p_514.0698445732512" d="M-2.5584037383434616e-15,13.927301270998964A13.927301270998964,13.927301270998964,0,1,1,2.5584037383434616e-15,-13.927301270998964A13.927301270998964,13.927301270998964,0,1,1,-2.5584037383434616e-15,13.927301270998964Z" fill="none" stroke="#ccc"/><text fill="black" text-anchor="middle" font-family="'Arial', sans-serif" font-size="8" dominant-baseline="middle"><textPath href="#p_514.0698445732512" startOffset="50%">Centrální ministerstvo</textPath></text></g><g transform="translate(314.7561619049976,110.86839872691071)" id="Centrální ministerstvo"><path id="p_447.72178667898754" d="M-3.87549755241656e-15,21.097226047079218A21.097226047079218,21.097226047079218,0,1,1,3.87549755241656e-15,-21.097226047079218A21.097226047079218,21.097226047079218,0,1,1,-3.87549755241656e-15,21.097226047079218Z" fill="none" stroke="#ccc"/><text fill="black" text-anchor="middle" font-family="'Arial', sans-serif" font-size="8" dominant-baseline="middle"><textPath href="#p_447.72178667898754" startOffset="50%">Centrální ministerstvo</textPath></text></g><g transform="translate(315.17155132971885,317.6324041199164)" id="Mimo ministerstvo"><path id="p_649.6770448039025" d="M-2.9158392105425054e-15,15.873089354267295A15.873089354267295,15.873089354267295,0,1,1,2.9158392105425054e-15,-15.873089354267295A15.873089354267295,15.873089354267295,0,1,1,-2.9158392105425054e-15,15.873089354267295Z" fill="none" stroke="#ccc"/><text fill="black" text-anchor="middle" font-family="'Arial', sans-serif" font-size="8" dominant-baseline="middle"><textPath href="#p_649.6770448039025" startOffset="50%">Mimo ministerstvo</textPath></text></g><g transform="translate(350.5070477128791,317.6324041199164)" id="Centrální ministerstvo"><path id="p_684.9848782213846" d="M-2.910757606186611e-15,15.845426388589177A15.845426388589177,15.845426388589177,0,1,1,2.910757606186611e-15,-15.845426388589177A15.845426388589177,15.845426388589177,0,1,1,-2.910757606186611e-15,15.845426388589177Z" fill="none" stroke="#ccc"/><text fill="black" text-anchor="middle" font-family="'Arial', sans-serif" font-size="8" dominant-baseline="middle"><textPath href="#p_684.9848782213846" startOffset="50%">Centrální ministerstvo</textPath></text></g><g transform="translate(361.3818537056332,122.90766356065785)" id="Centrální ministerstvo"><path id="p_501.1373589916496" d="M-2.911201296353127e-15,15.847841725358522A15.847841725358522,15.847841725358522,0,1,1,2.911201296353127e-15,-15.847841725358522A15.847841725358522,15.847841725358522,0,1,1,-2.911201296353127e-15,15.847841725358522Z" fill="none" stroke="#ccc"/><text fill="black" text-anchor="middle" font-family="'Arial', sans-serif" font-size="8" dominant-baseline="middle"><textPath href="#p_501.1373589916496" startOffset="50%">Centrální ministerstvo</textPath></text></g><g transform="translate(393.7523464217938,122.90766356065785)" id="Mimo ministerstvo"><path id="p_530.5656803329499" d="M-2.370733182838295e-15,12.905670350498294A12.905670350498294,12.905670350498294,0,1,1,2.370733182838295e-15,-12.905670350498294A12.905670350498294,12.905670350498294,0,1,1,-2.370733182838295e-15,12.905670350498294Z" fill="none" stroke="#ccc"/><text fill="black" text-anchor="middle" font-family="'Arial', sans-serif" font-size="8" dominant-baseline="middle"><textPath href="#p_530.5656803329499" startOffset="50%">Mimo ministerstvo</textPath></text></g><g transform="translate(69.49402550873421,125.74281915488336)" id="Centrální ministerstvo"><path id="p_211.43948679753456" d="M-2.7926800541826185e-15,15.202642133916985A15.202642133916985,15.202642133916985,0,1,1,2.7926800541826185e-15,-15.202642133916985A15.202642133916985,15.202642133916985,0,1,1,-2.7926800541826185e-15,15.202642133916985Z" fill="none" stroke="#ccc"/><text fill="black" text-anchor="middle" font-family="'Arial', sans-serif" font-size="8" dominant-baseline="middle"><textPath href="#p_211.43948679753456" startOffset="50%">Centrální ministerstvo</textPath></text></g><g transform="translate(101.65988978097957,125.74281915488336)" id="Mimo ministerstvo"><path id="p_241.74895043388756" d="M-2.451664789680513e-15,13.346241498024614A13.346241498024614,13.346241498024614,0,1,1,2.451664789680513e-15,-13.346241498024614A13.346241498024614,13.346241498024614,0,1,1,-2.451664789680513e-15,13.346241498024614Z" fill="none" stroke="#ccc"/><text fill="black" text-anchor="middle" font-family="'Arial', sans-serif" font-size="8" dominant-baseline="middle"><textPath href="#p_241.74895043388756" startOffset="50%">Mimo ministerstvo</textPath></text></g><g transform="translate(71.78925208152313,289.9662130463182)" id="Centrální ministerstvo"><path id="p_378.97022537696483" d="M-2.9786031357046218e-15,16.214760249123483A16.214760249123483,16.214760249123483,0,1,1,2.9786031357046218e-15,-16.214760249123483A16.214760249123483,16.214760249123483,0,1,1,-2.9786031357046218e-15,16.214760249123483Z" fill="none" stroke="#ccc"/><text fill="black" text-anchor="middle" font-family="'Arial', sans-serif" font-size="8" dominant-baseline="middle"><textPath href="#p_378.97022537696483" startOffset="50%">Centrální ministerstvo</textPath></text></g><g transform="translate(102.40127100579979,289.9662130463182)" id="Mimo ministerstvo"><path id="p_404.1477620869674" d="M-1.9803049483945298e-15,10.780278034849424A10.780278034849424,10.780278034849424,0,1,1,1.9803049483945298e-15,-10.780278034849424A10.780278034849424,10.780278034849424,0,1,1,-1.9803049483945298e-15,10.780278034849424Z" fill="none" stroke="#ccc"/><text fill="black" text-anchor="middle" font-family="'Arial', sans-serif" font-size="8" dominant-baseline="middle"><textPath href="#p_404.1477620869674" startOffset="50%">Mimo ministerstvo</textPath></text></g><g transform="translate(280.835401180111,53.89474183892395)" id="Mimo ministerstvo"><path id="p_349.3390307828539" d="M-2.499912125987476e-15,13.608887763818991A13.608887763818991,13.608887763818991,0,1,1,2.499912125987476e-15,-13.608887763818991A13.608887763818991,13.608887763818991,0,1,1,-2.499912125987476e-15,13.608887763818991Z" fill="none" stroke="#ccc"/><text fill="black" text-anchor="middle" font-family="'Arial', sans-serif" font-size="8" dominant-baseline="middle"><textPath href="#p_349.3390307828539" startOffset="50%">Mimo ministerstvo</textPath></text></g><g transform="translate(310.85540905360654,53.89474183892395)" id="Centrální ministerstvo"><path id="p_378.54429036190334" d="M-2.3502452923518436e-15,12.794139469372862A12.794139469372862,12.794139469372862,0,1,1,2.3502452923518436e-15,-12.794139469372862A12.794139469372862,12.794139469372862,0,1,1,-2.3502452923518436e-15,12.794139469372862Z" fill="none" stroke="#ccc"/><text fill="black" text-anchor="middle" font-family="'Arial', sans-serif" font-size="8" dominant-baseline="middle"><textPath href="#p_378.54429036190334" startOffset="50%">Centrální ministerstvo</textPath></text></g><g transform="translate(209.49190921630424,56.76804580624895)" id="Centrální ministerstvo"><path id="p_280.3856737637481" d="M-2.4111554164369207e-15,13.125718741194937A13.125718741194937,13.125718741194937,0,1,1,2.4111554164369207e-15,-13.125718741194937A13.125718741194937,13.125718741194937,0,1,1,-2.4111554164369207e-15,13.125718741194937Z" fill="none" stroke="#ccc"/><text fill="black" text-anchor="middle" font-family="'Arial', sans-serif" font-size="8" dominant-baseline="middle"><textPath href="#p_280.3856737637481" startOffset="50%">Centrální ministerstvo</textPath></text></g><g transform="translate(371.687185235274,275.76445847989385)" id="Centrální ministerstvo"><path id="p_661.1977531466756" d="M-2.341422317531673e-15,12.74610943150772A12.74610943150772,12.74610943150772,0,1,1,2.341422317531673e-15,-12.74610943150772A12.74610943150772,12.74610943150772,0,1,1,-2.341422317531673e-15,12.74610943150772Z" fill="none" stroke="#ccc"/><text fill="black" text-anchor="middle" font-family="'Arial', sans-serif" font-size="8" dominant-baseline="middle"><textPath href="#p_661.1977531466756" startOffset="50%">Centrální ministerstvo</textPath></text></g><g transform="translate(195.7435004290886,362.9341598325458)" id="Centrální ministerstvo"><path id="p_571.0704758794212" d="M-2.092826276939796e-15,11.39281561778685A11.39281561778685,11.39281561778685,0,1,1,2.092826276939796e-15,-11.39281561778685A11.39281561778685,11.39281561778685,0,1,1,-2.092826276939796e-15,11.39281561778685Z" fill="none" stroke="#ccc"/><text fill="black" text-anchor="middle" font-family="'Arial', sans-serif" font-size="8" dominant-baseline="middle"><textPath href="#p_571.0704758794212" startOffset="50%">Centrální ministerstvo</textPath></text></g><g transform="translate(128.72071578726076,209.04974475066118)" id="Běžní zaměstnanci"><path id="p_374.37739038631537" d="M-6.540886899944894e-15,35.60692984839338A35.60692984839338,35.60692984839338,0,1,1,6.540886899944894e-15,-35.60692984839338A35.60692984839338,35.60692984839338,0,1,1,-6.540886899944894e-15,35.60692984839338Z" fill="#9b9b9b" stroke="none"/></g><g transform="translate(179.60837428083872,209.04974475066118)" id="Představení"><path id="p_401.32186703638075" d="M-2.1425957490357956e-15,11.663748004880832A11.663748004880832,11.663748004880832,0,1,1,2.1425957490357956e-15,-11.663748004880832A11.663748004880832,11.663748004880832,0,1,1,-2.1425957490357956e-15,11.663748004880832Z" fill="#97b1ff" stroke="none"/></g><g transform="translate(211.38749699644103,209.04974475066118)" id="Běžní zaměstnanci"><path id="p_430.70167453691244" d="M-1.7018486942935278e-15,9.264432789810206A9.264432789810206,9.264432789810206,0,1,1,1.7018486942935278e-15,-9.264432789810206A9.264432789810206,9.264432789810206,0,1,1,-1.7018486942935278e-15,9.264432789810206Z" fill="#9b9b9b" stroke="none"/></g><g transform="translate(227.48062893949177,209.04974475066118)" id="Představení"><path id="p_440.7420922030897" d="M-5.899831194945454e-16,3.211718512936762A3.211718512936762,3.211718512936762,0,1,1,5.899831194945454e-16,-3.211718512936762A3.211718512936762,3.211718512936762,0,1,1,-5.899831194945454e-16,3.211718512936762Z" fill="#97b1ff" stroke="none"/></g><g transform="translate(278.4447420725541,209.04974475066118)" id="Běžní zaměstnanci"><path id="p_518.1619782418221" d="M-5.449829760679265e-15,29.66749141860684A29.66749141860684,29.66749141860684,0,1,1,5.449829760679265e-15,-29.66749141860684A29.66749141860684,29.66749141860684,0,1,1,-5.449829760679265e-15,29.66749141860684Z" fill="#9b9b9b" stroke="none"/></g><g transform="translate(323.1654782511956,209.04974475066118)" id="Představení"><path id="p_544.6514871215877" d="M-2.1008076372648275e-15,11.436264119730911A11.436264119730911,11.436264119730911,0,1,1,2.1008076372648275e-15,-11.436264119730911A11.436264119730911,11.436264119730911,0,1,1,-2.1008076372648275e-15,11.436264119730911Z" fill="#97b1ff" stroke="none"/></g><g transform="translate(354.43986736639937,209.04974475066118)" id="Běžní zaměstnanci"><path id="p_573.4767951916222" d="M-1.6509187478419728e-15,8.987183074561617A8.987183074561617,8.987183074561617,0,1,1,1.6509187478419728e-15,-8.987183074561617A8.987183074561617,8.987183074561617,0,1,1,-1.6509187478419728e-15,8.987183074561617Z" fill="#9b9b9b" stroke="none"/></g><g transform="translate(370.5825177800006,209.04974475066118)" id="Představení"><path id="p_584.1707492293976" d="M-6.500094614148522e-16,3.538486698735854A3.538486698735854,3.538486698735854,0,1,1,6.500094614148522e-16,-3.538486698735854A3.538486698735854,3.538486698735854,0,1,1,-6.500094614148522e-16,3.538486698735854Z" fill="#97b1ff" stroke="none"/></g><g transform="translate(216.74684740569785,311.5892604869139)" id="Běžní zaměstnanci"><path id="p_547.3735263842225" d="M-3.3134200230948576e-15,18.03741849161075A18.03741849161075,18.03741849161075,0,1,1,3.3134200230948576e-15,-18.03741849161075A18.03741849161075,18.03741849161075,0,1,1,-3.3134200230948576e-15,18.03741849161075Z" fill="#9b9b9b" stroke="none"/></g><g transform="translate(245.4183810371773,311.5892604869139)" id="Představení"><path id="p_565.0247760236562" d="M-1.289026695611806e-15,7.017134499564972A7.017134499564972,7.017134499564972,0,1,1,1.289026695611806e-15,-7.017134499564972A7.017134499564972,7.017134499564972,0,1,1,-1.289026695611806e-15,7.017134499564972Z" fill="#97b1ff" stroke="none"/></g><g transform="translate(269.52545102862666,311.5892604869139)" id="Běžní zaměstnanci"><path id="p_588.3537050865136" d="M-1.1460845259889762e-15,6.238993570973144A6.238993570973144,6.238993570973144,0,1,1,1.1460845259889762e-15,-6.238993570973144A6.238993570973144,6.238993570973144,0,1,1,-1.1460845259889762e-15,6.238993570973144Z" fill="#9b9b9b" stroke="none"/></g><g transform="translate(282.2062497228798,311.5892604869139)" id="Představení"><path id="p_597.62033469277" d="M-5.189118391844922e-16,2.8248244829762554A2.8248244829762554,2.8248244829762554,0,1,1,5.189118391844922e-16,-2.8248244829762554A2.8248244829762554,2.8248244829762554,0,1,1,-5.189118391844922e-16,2.8248244829762554Z" fill="#97b1ff" stroke="none"/></g><g transform="translate(216.84642458982424,113.47684850045486)" id="Běžní zaměstnanci"><path id="p_344.1220834494542" d="M-2.3511033208886653e-15,12.798810359175098A12.798810359175098,12.798810359175098,0,1,1,2.3511033208886653e-15,-12.798810359175098A12.798810359175098,12.798810359175098,0,1,1,-2.3511033208886653e-15,12.798810359175098Z" fill="#9b9b9b" stroke="none"/></g><g transform="translate(237.60717183507157,113.47684850045486)" id="Představení"><path id="p_356.4289765812949" d="M-7.981555138223488e-16,4.344956245768471A4.344956245768471,4.344956245768471,0,1,1,7.981555138223488e-16,-4.344956245768471A4.344956245768471,4.344956245768471,0,1,1,-7.981555138223488e-16,4.344956245768471Z" fill="#97b1ff" stroke="none"/></g><g transform="translate(261.04074692493595,113.47684850045486)" id="Běžní zaměstnanci"><path id="p_383.75527234857555" d="M-1.513236701458224e-15,8.2376769231847A8.2376769231847,8.2376769231847,0,1,1,1.513236701458224e-15,-8.2376769231847A8.2376769231847,8.2376769231847,0,1,1,-1.513236701458224e-15,8.2376769231847Z" fill="#9b9b9b" stroke="none"/></g><g transform="translate(276.0664666976034,113.47684850045486)" id="Představení"><path id="p_393.71437740723724" d="M-5.825146776552263e-16,3.171062209178983A3.171062209178983,3.171062209178983,0,1,1,5.825146776552263e-16,-3.171062209178983A3.171062209178983,3.171062209178983,0,1,1,-5.825146776552263e-16,3.171062209178983Z" fill="#97b1ff" stroke="none"/></g><g transform="translate(131.9726974532977,87.28144729769687)" id="Běžní zaměstnanci"><path id="p_232.6145972126231" d="M-2.2705782814719587e-15,12.360452461628523A12.360452461628523,12.360452461628523,0,1,1,2.2705782814719587e-15,-12.360452461628523A12.360452461628523,12.360452461628523,0,1,1,-2.2705782814719587e-15,12.360452461628523Z" fill="#9b9b9b" stroke="none"/></g><g transform="translate(153.9180793077294,87.28144729769687)" id="Představení"><path id="p_248.16747535792572" d="M-1.0962944005835793e-15,5.967948752499427A5.967948752499427,5.967948752499427,0,1,1,1.0962944005835793e-15,-5.967948752499427A5.967948752499427,5.967948752499427,0,1,1,-1.0962944005835793e-15,5.967948752499427Z" fill="#97b1ff" stroke="none"/></g><g transform="translate(176.19386068882912,87.28144729769687)" id="Běžní zaměstnanci"><path id="p_269.932198694215" d="M-1.0024145607702448e-15,5.456890707689025A5.456890707689025,5.456890707689025,0,1,1,1.0024145607702448e-15,-5.456890707689025A5.456890707689025,5.456890707689025,0,1,1,-1.0024145607702448e-15,5.456890707689025Z" fill="#9b9b9b" stroke="none"/></g><g transform="translate(187.54589038012304,87.28144729769687)" id="Představení"><path id="p_278.10549602112104" d="M-4.1849089846118546e-16,2.278158343301133A2.278158343301133,2.278158343301133,0,1,1,4.1849089846118546e-16,-2.278158343301133A2.278158343301133,2.278158343301133,0,1,1,-4.1849089846118546e-16,2.278158343301133Z" fill="#97b1ff" stroke="none"/></g><g transform="translate(127.87660689271665,327.4686453410644)" id="Běžní zaměstnanci"><path id="p_466.5557485105936" d="M-1.875637737465661e-15,10.21049627681251A10.21049627681251,10.21049627681251,0,1,1,1.875637737465661e-15,-10.21049627681251A10.21049627681251,10.21049627681251,0,1,1,-1.875637737465661e-15,10.21049627681251Z" fill="#9b9b9b" stroke="none"/></g><g transform="translate(146.10835960970715,327.4686453410644)" id="Představení"><path id="p_478.98128075064574" d="M-8.0905233913171685e-16,4.40427579987422A4.40427579987422,4.40427579987422,0,1,1,8.0905233913171685e-16,-4.40427579987422A4.40427579987422,4.40427579987422,0,1,1,-8.0905233913171685e-16,4.40427579987422Z" fill="#97b1ff" stroke="none"/></g><g transform="translate(166.9613141791493,327.4686453410644)" id="Běžní zaměstnanci"><path id="p_501.0276963688704" d="M-1.0282875771264856e-15,5.597736848656661A5.597736848656661,5.597736848656661,0,1,1,1.0282875771264856e-15,-5.597736848656661A5.597736848656661,5.597736848656661,0,1,1,-1.0282875771264856e-15,5.597736848656661Z" fill="#9b9b9b" stroke="none"/></g><g transform="translate(179.08012512999636,327.4686453410644)" id="Představení"><path id="p_510.4528639329474" d="M-5.334733143786404e-16,2.9040934618866725A2.9040934618866725,2.9040934618866725,0,1,1,5.334733143786404e-16,-2.9040934618866725A2.9040934618866725,2.9040934618866725,0,1,1,-5.334733143786404e-16,2.9040934618866725Z" fill="#97b1ff" stroke="none"/></g><g transform="translate(307.7777075616309,110.86839872691071)" id="Běžní zaměstnanci"><path id="p_430.14789735195035" d="M-1.9291477216676715e-15,10.501791063408755A10.501791063408755,10.501791063408755,0,1,1,1.9291477216676715e-15,-10.501791063408755A10.501791063408755,10.501791063408755,0,1,1,-1.9291477216676715e-15,10.501791063408755Z" fill="#9b9b9b" stroke="none"/></g><g transform="translate(327.0664432885582,110.86839872691071)" id="Představení"><path id="p_444.10480603868376" d="M-9.497069839105527e-16,5.169964023214833A5.169964023214833,5.169964023214833,0,1,1,9.497069839105527e-16,-5.169964023214833A5.169964023214833,5.169964023214833,0,1,1,-9.497069839105527e-16,5.169964023214833Z" fill="#97b1ff" stroke="none"/></g><g transform="translate(309.96486117764647,317.6324041199164)" id="Běžní zaměstnanci"><path id="p_635.646683859454" d="M-1.2949571816504942e-15,7.049418561891172A7.049418561891172,7.049418561891172,0,1,1,1.2949571816504942e-15,-7.049418561891172A7.049418561891172,7.049418561891172,0,1,1,-1.2949571816504942e-15,7.049418561891172Z" fill="#9b9b9b" stroke="none"/></g><g transform="translate(324.0294602117619,317.6324041199164)" id="Představení"><path id="p_646.0600641635988" d="M-6.242391820536754e-16,3.398199831920491A3.398199831920491,3.398199831920491,0,1,1,6.242391820536754e-16,-3.398199831920491A3.398199831920491,3.398199831920491,0,1,1,-6.242391820536754e-16,3.398199831920491Z" fill="#97b1ff" stroke="none"/></g><g transform="translate(345.30035756080673,317.6324041199164)" id="Běžní zaměstnanci"><path id="p_670.9545172769363" d="M-1.2898755772945997e-15,7.021755596213055A7.021755596213055,7.021755596213055,0,1,1,1.2898755772945997e-15,-7.021755596213055A7.021755596213055,7.021755596213055,0,1,1,-1.2898755772945997e-15,7.021755596213055Z" fill="#9b9b9b" stroke="none"/></g><g transform="translate(359.3372936292441,317.6324041199164)" id="Představení"><path id="p_681.3678975810809" d="M-6.242391820536754e-16,3.398199831920491A3.398199831920491,3.398199831920491,0,1,1,6.242391820536754e-16,-3.398199831920491A3.398199831920491,3.398199831920491,0,1,1,-6.242391820536754e-16,3.398199831920491Z" fill="#97b1ff" stroke="none"/></g><g transform="translate(356.5812471813395,122.90766356065785)" id="Běžní zaměstnanci"><path id="p_487.9191653027584" d="M-1.3649156197029066e-15,7.4302545607610515A7.4302545607610515,7.4302545607610515,0,1,1,1.3649156197029066e-15,-7.4302545607610515A7.4302545607610515,7.4302545607610515,0,1,1,-1.3649156197029066e-15,7.4302545607610515Z" fill="#9b9b9b" stroke="none"/></g><g transform="translate(370.6205985865461,122.90766356065785)" id="Představení"><path id="p_497.5203783513458" d="M-5.49642829811885e-16,2.99211620414184A2.99211620414184,2.99211620414184,0,1,1,5.49642829811885e-16,-2.99211620414184A2.99211620414184,2.99211620414184,0,1,1,-5.49642829811885e-16,2.99211620414184Z" fill="#97b1ff" stroke="none"/></g><g transform="translate(390.332954888477,122.90766356065785)" id="Běžní zaměstnanci"><path id="p_520.1099166260126" d="M-1.0781725838332046e-15,5.869298176877722A5.869298176877722,5.869298176877722,0,1,1,1.0781725838332046e-15,-5.869298176877722A5.869298176877722,5.869298176877722,0,1,1,-1.0781725838332046e-15,5.869298176877722Z" fill="#9b9b9b" stroke="none"/></g><g transform="translate(401.4301349188234,122.90766356065785)" id="Představení"><path id="p_526.9486996926463" d="M-2.959177521667551e-16,1.610901213164942A1.610901213164942,1.610901213164942,0,1,1,2.959177521667551e-16,-1.610901213164942A1.610901213164942,1.610901213164942,0,1,1,-2.959177521667551e-16,1.610901213164942Z" fill="#97b1ff" stroke="none"/></g><g transform="translate(64.88377088306103,125.74281915488336)" id="Běžní zaměstnanci"><path id="p_198.60199690588445" d="M-1.281361454035988e-15,6.975406867940056A6.975406867940056,6.975406867940056,0,1,1,1.281361454035988e-15,-6.975406867940056A6.975406867940056,6.975406867940056,0,1,1,-1.281361454035988e-15,6.975406867940056Z" fill="#9b9b9b" stroke="none"/></g><g transform="translate(78.27792269682614,125.74281915488336)" id="Představení"><path id="p_207.82250615723078" d="M-5.146757533082951e-16,2.8017643055213A2.8017643055213,2.8017643055213,0,1,1,5.146757533082951e-16,-2.8017643055213A2.8017643055213,2.8017643055213,0,1,1,-5.146757533082951e-16,2.8017643055213Z" fill="#97b1ff" stroke="none"/></g><g transform="translate(97.70520985469479,125.74281915488336)" id="Běžní zaměstnanci"><path id="p_230.2226099410142" d="M-1.060773308115081e-15,5.774580931436083A5.774580931436083,5.774580931436083,0,1,1,1.060773308115081e-15,-5.774580931436083A5.774580931436083,5.774580931436083,0,1,1,-1.060773308115081e-15,5.774580931436083Z" fill="#9b9b9b" stroke="none"/></g><g transform="translate(109.24296103256754,125.74281915488336)" id="Představení"><path id="p_238.1319697935838" d="M-3.942486347270965e-16,2.1461896061329018A2.1461896061329018,2.1461896061329018,0,1,1,3.942486347270965e-16,-2.1461896061329018A2.1461896061329018,2.1461896061329018,0,1,1,-3.942486347270965e-16,2.1461896061329018Z" fill="#97b1ff" stroke="none"/></g><g transform="translate(67.02134726265788,289.9662130463182)" id="Běžní zaměstnanci"><path id="p_365.81743509893056" d="M-1.4383246648863457e-15,7.829874789954477A7.829874789954477,7.829874789954477,0,1,1,1.4383246648863457e-15,-7.829874789954477A7.829874789954477,7.829874789954477,0,1,1,-1.4383246648863457e-15,7.829874789954477Z" fill="#9b9b9b" stroke="none"/></g><g transform="translate(81.42761719162948,289.9662130463182)" id="Představení"><path id="p_375.35324473666105" d="M-5.43635623979941e-16,2.959414498713378A2.959414498713378,2.959414498713378,0,1,1,5.43635623979941e-16,-2.959414498713378A2.959414498713378,2.959414498713378,0,1,1,-5.43635623979941e-16,2.959414498713378Z" fill="#97b1ff" stroke="none"/></g><g transform="translate(99.34498197145328,289.9662130463182)" id="Běžní zaměstnanci"><path id="p_394.4182033779707" d="M-7.544451963583989e-16,4.107008360199164A4.107008360199164,4.107008360199164,0,1,1,7.544451963583989e-16,-4.107008360199164A4.107008360199164,4.107008360199164,0,1,1,-7.544451963583989e-16,4.107008360199164Z" fill="#9b9b9b" stroke="none"/></g><g transform="translate(108.31676968615082,289.9662130463182)" id="Představení"><path id="p_400.53078144666364" d="M-2.292169051977953e-16,1.247798714194629A1.247798714194629,1.247798714194629,0,1,1,2.292169051977953e-16,-1.247798714194629A1.247798714194629,1.247798714194629,0,1,1,-2.292169051977953e-16,1.247798714194629Z" fill="#97b1ff" stroke="none"/></g><g transform="translate(276.1005634828862,53.89474183892395)" id="Běžní zaměstnanci"><path id="p_336.2523747481005" d="M-9.657079868702948e-16,5.257069426290412A5.257069426290412,5.257069426290412,0,1,1,9.657079868702948e-16,-5.257069426290412A5.257069426290412,5.257069426290412,0,1,1,-9.657079868702948e-16,5.257069426290412Z" fill="#9b9b9b" stroke="none"/></g><g transform="translate(287.90096092655324,53.89474183892395)" id="Představení"><path id="p_345.72205014255013" d="M-5.37561292278846e-16,2.926347377072949A2.926347377072949,2.926347377072949,0,1,1,5.37561292278846e-16,-2.926347377072949A2.926347377072949,2.926347377072949,0,1,1,-5.37561292278846e-16,2.926347377072949Z" fill="#97b1ff" stroke="none"/></g><g transform="translate(306.61717982057513,53.89474183892395)" id="Běžní zaměstnanci"><path id="p_366.45085125553675" d="M-9.072666481502538e-16,4.938929596037694A4.938929596037694,4.938929596037694,0,1,1,9.072666481502538e-16,-4.938929596037694A4.938929596037694,4.938929596037694,0,1,1,-9.072666481502538e-16,4.938929596037694Z" fill="#9b9b9b" stroke="none"/></g><g transform="translate(317.6028289697961,53.89474183892395)" id="Představení"><path id="p_374.9273097215996" d="M-4.4633579736325455e-16,2.429738912879539A2.429738912879539,2.429738912879539,0,1,1,4.4633579736325455e-16,-2.429738912879539A2.429738912879539,2.429738912879539,0,1,1,-4.4633579736325455e-16,2.429738912879539Z" fill="#97b1ff" stroke="none"/></g><g transform="translate(205.3076809238786,56.76804580624895)" id="Běžní zaměstnanci"><path id="p_268.4002365385931" d="M-9.780965840949039e-16,5.324509808465553A5.324509808465553,5.324509808465553,0,1,1,9.780965840949039e-16,-5.324509808465553A5.324509808465553,5.324509808465553,0,1,1,-9.780965840949039e-16,5.324509808465553Z" fill="#9b9b9b" stroke="none"/></g><g transform="translate(216.62490934492166,56.76804580624895)" id="Představení"><path id="p_276.7686931234444" d="M-4.3641598550368166e-16,2.3757379722737553A2.3757379722737553,2.3757379722737553,0,1,1,4.3641598550368166e-16,-2.3757379722737553A2.3757379722737553,2.3757379722737553,0,1,1,-4.3641598550368166e-16,2.3757379722737553Z" fill="#97b1ff" stroke="none"/></g><g transform="translate(367.51665007114923,275.76445847989385)" id="Běžní zaměstnanci"><path id="p_649.2397021781222" d="M-9.108788720512475e-16,4.958593627079181A4.958593627079181,4.958593627079181,0,1,1,9.108788720512475e-16,-4.958593627079181A4.958593627079181,4.958593627079181,0,1,1,-9.108788720512475e-16,4.958593627079181Z" fill="#9b9b9b" stroke="none"/></g><g transform="translate(378.4542691825051,275.76445847989385)" id="Představení"><path id="p_657.5807725063718" d="M-4.339005986420899e-16,2.3620448439729094A2.3620448439729094,2.3620448439729094,0,1,1,4.339005986420899e-16,-2.3620448439729094A2.3620448439729094,2.3620448439729094,0,1,1,-4.339005986420899e-16,2.3620448439729094Z" fill="#97b1ff" stroke="none"/></g><g transform="translate(192.0983001334237,362.9341598325458)" id="Běžní zaměstnanci"><path id="p_560.1630946477876" d="M-7.587852812303492e-16,4.130634681818165A4.130634681818165,4.130634681818165,0,1,1,7.587852812303492e-16,-4.130634681818165A4.130634681818165,4.130634681818165,0,1,1,-7.587852812303492e-16,4.130634681818165Z" fill="#9b9b9b" stroke="none"/></g><g transform="translate(201.68262543105865,362.9341598325458)" id="Představení"><path id="p_567.4534952391175" d="M-3.3739814887111136e-16,1.8367099755130547A1.8367099755130547,1.8367099755130547,0,1,1,3.3739814887111136e-16,-1.8367099755130547A1.8367099755130547,1.8367099755130547,0,1,1,-3.3739814887111136e-16,1.8367099755130547Z" fill="#97b1ff" stroke="none"/></g></g><g id="labels"><g transform="translate(128.72071578726076,209.04974475066118)"><text text-anchor="middle" dominant-baseline="text-before-edge" transform="translate(0,-6.5)" style="opacity: 1;"><tspan x="0" y="0" dy="0" style="font-family: Arial, sans-serif; font-size: 10px; fill: black; font-weight: normal;">19543</tspan></text></g><g transform="translate(179.60837428083872,209.04974475066118)"><text text-anchor="middle" dominant-baseline="text-before-edge" transform="translate(0,-6.5)" style="opacity: 1;"><tspan x="0" y="0" dy="0" style="font-family: Arial, sans-serif; font-size: 10px; fill: black; font-weight: normal;">2097</tspan></text></g><g transform="translate(211.38749699644103,209.04974475066118)"><text text-anchor="middle" dominant-baseline="text-before-edge" transform="translate(0,-6.5)" style="opacity: 1;"><tspan x="0" y="0" dy="0" style="font-family: Arial, sans-serif; font-size: 10px; fill: black; font-weight: normal;">1323</tspan></text></g><g transform="translate(227.48062893949177,209.04974475066118)"><text text-anchor="middle" dominant-baseline="text-before-edge" transform="translate(0,-6.5)" style="opacity: 0;"><tspan x="0" y="0" dy="0" style="font-family: Arial, sans-serif; font-size: 10px; fill: black; font-weight: normal;">159</tspan></text></g><g transform="translate(278.4447420725541,209.04974475066118)"><text text-anchor="middle" dominant-baseline="text-before-edge" transform="translate(0,-6.5)" style="opacity: 1;"><tspan x="0" y="0" dy="0" style="font-family: Arial, sans-serif; font-size: 10px; fill: black; font-weight: normal;">13567</tspan></text></g><g transform="translate(323.1654782511956,209.04974475066118)"><text text-anchor="middle" dominant-baseline="text-before-edge" transform="translate(0,-6.5)" style="opacity: 1;"><tspan x="0" y="0" dy="0" style="font-family: Arial, sans-serif; font-size: 10px; fill: black; font-weight: normal;">2016</tspan></text></g><g transform="translate(354.43986736639937,209.04974475066118)"><text text-anchor="middle" dominant-baseline="text-before-edge" transform="translate(0,-6.5)" style="opacity: 1;"><tspan x="0" y="0" dy="0" style="font-family: Arial, sans-serif; font-size: 10px; fill: black; font-weight: normal;">1245</tspan></text></g><g transform="translate(370.5825177800006,209.04974475066118)"><text text-anchor="middle" dominant-baseline="text-before-edge" transform="translate(0,-6.5)" style="opacity: 0;"><tspan x="0" y="0" dy="0" style="font-family: Arial, sans-serif; font-size: 10px; fill: black; font-weight: normal;">193</tspan></text></g><g transform="translate(216.74684740569785,311.5892604869139)"><text text-anchor="middle" dominant-baseline="text-before-edge" transform="translate(0,-6.5)" style="opacity: 1;"><tspan x="0" y="0" dy="0" style="font-family: Arial, sans-serif; font-size: 10px; fill: black; font-weight: normal;">5015</tspan></text></g><g transform="translate(245.4183810371773,311.5892604869139)"><text text-anchor="middle" dominant-baseline="text-before-edge" transform="translate(0,-6.5)" style="opacity: 1;"><tspan x="0" y="0" dy="0" style="font-family: Arial, sans-serif; font-size: 10px; fill: black; font-weight: normal;">759</tspan></text></g><g transform="translate(269.52545102862666,311.5892604869139)"><text text-anchor="middle" dominant-baseline="text-before-edge" transform="translate(0,-6.5)" style="opacity: 1;"><tspan x="0" y="0" dy="0" style="font-family: Arial, sans-serif; font-size: 10px; fill: black; font-weight: normal;">600</tspan></text></g><g transform="translate(282.2062497228798,311.5892604869139)"><text text-anchor="middle" dominant-baseline="text-before-edge" transform="translate(0,-6.5)" style="opacity: 0;"><tspan x="0" y="0" dy="0" style="font-family: Arial, sans-serif; font-size: 10px; fill: black; font-weight: normal;">123</tspan></text></g><g transform="translate(216.84642458982424,113.47684850045486)"><text text-anchor="middle" dominant-baseline="text-before-edge" transform="translate(0,-6.5)" style="opacity: 1;"><tspan x="0" y="0" dy="0" style="font-family: Arial, sans-serif; font-size: 10px; fill: black; font-weight: normal;">2525</tspan></text></g><g transform="translate(237.60717183507157,113.47684850045486)"><text text-anchor="middle" dominant-baseline="text-before-edge" transform="translate(0,-6.5)" style="opacity: 0;"><tspan x="0" y="0" dy="0" style="font-family: Arial, sans-serif; font-size: 10px; fill: black; font-weight: normal;">291</tspan></text></g><g transform="translate(261.04074692493595,113.47684850045486)"><text text-anchor="middle" dominant-baseline="text-before-edge" transform="translate(0,-6.5)" style="opacity: 1;"><tspan x="0" y="0" dy="0" style="font-family: Arial, sans-serif; font-size: 10px; fill: black; font-weight: normal;">1046</tspan></text></g><g transform="translate(276.0664666976034,113.47684850045486)"><text text-anchor="middle" dominant-baseline="text-before-edge" transform="translate(0,-6.5)" style="opacity: 0;"><tspan x="0" y="0" dy="0" style="font-family: Arial, sans-serif; font-size: 10px; fill: black; font-weight: normal;">155</tspan></text></g><g transform="translate(131.9726974532977,87.28144729769687)"><text text-anchor="middle" dominant-baseline="text-before-edge" transform="translate(0,-6.5)" style="opacity: 1;"><tspan x="0" y="0" dy="0" style="font-family: Arial, sans-serif; font-size: 10px; fill: black; font-weight: normal;">2355</tspan></text></g><g transform="translate(153.9180793077294,87.28144729769687)"><text text-anchor="middle" dominant-baseline="text-before-edge" transform="translate(0,-6.5)" style="opacity: 0;"><tspan x="0" y="0" dy="0" style="font-family: Arial, sans-serif; font-size: 10px; fill: black; font-weight: normal;">549</tspan></text></g><g transform="translate(176.19386068882912,87.28144729769687)"><text text-anchor="middle" dominant-baseline="text-before-edge" transform="translate(0,-6.5)" style="opacity: 1;"><tspan x="0" y="0" dy="0" style="font-family: Arial, sans-serif; font-size: 10px; fill: black; font-weight: normal;">459</tspan></text></g><g transform="translate(187.54589038012304,87.28144729769687)"><text text-anchor="middle" dominant-baseline="text-before-edge" transform="translate(0,-6.5)" style="opacity: 0;"><tspan x="0" y="0" dy="0" style="font-family: Arial, sans-serif; font-size: 10px; fill: black; font-weight: normal;">80</tspan></text></g><g transform="translate(127.87660689271665,327.4686453410644)"><text text-anchor="middle" dominant-baseline="text-before-edge" transform="translate(0,-6.5)" style="opacity: 1;"><tspan x="0" y="0" dy="0" style="font-family: Arial, sans-serif; font-size: 10px; fill: black; font-weight: normal;">1607</tspan></text></g><g transform="translate(146.10835960970715,327.4686453410644)"><text text-anchor="middle" dominant-baseline="text-before-edge" transform="translate(0,-6.5)" style="opacity: 0;"><tspan x="0" y="0" dy="0" style="font-family: Arial, sans-serif; font-size: 10px; fill: black; font-weight: normal;">299</tspan></text></g><g transform="translate(166.9613141791493,327.4686453410644)"><text text-anchor="middle" dominant-baseline="text-before-edge" transform="translate(0,-6.5)" style="opacity: 1;"><tspan x="0" y="0" dy="0" style="font-family: Arial, sans-serif; font-size: 10px; fill: black; font-weight: normal;">483</tspan></text></g><g transform="translate(179.08012512999636,327.4686453410644)"><text text-anchor="middle" dominant-baseline="text-before-edge" transform="translate(0,-6.5)" style="opacity: 0;"><tspan x="0" y="0" dy="0" style="font-family: Arial, sans-serif; font-size: 10px; fill: black; font-weight: normal;">130</tspan></text></g><g transform="translate(307.7777075616309,110.86839872691071)"><text text-anchor="middle" dominant-baseline="text-before-edge" transform="translate(0,-6.5)" style="opacity: 1;"><tspan x="0" y="0" dy="0" style="font-family: Arial, sans-serif; font-size: 10px; fill: black; font-weight: normal;">1700</tspan></text></g><g transform="translate(327.0664432885582,110.86839872691071)"><text text-anchor="middle" dominant-baseline="text-before-edge" transform="translate(0,-6.5)" style="opacity: 0;"><tspan x="0" y="0" dy="0" style="font-family: Arial, sans-serif; font-size: 10px; fill: black; font-weight: normal;">412</tspan></text></g><g transform="translate(309.96486117764647,317.6324041199164)"><text text-anchor="middle" dominant-baseline="text-before-edge" transform="translate(0,-6.5)" style="opacity: 1;"><tspan x="0" y="0" dy="0" style="font-family: Arial, sans-serif; font-size: 10px; fill: black; font-weight: normal;">766</tspan></text></g><g transform="translate(324.0294602117619,317.6324041199164)"><text text-anchor="middle" dominant-baseline="text-before-edge" transform="translate(0,-6.5)" style="opacity: 0;"><tspan x="0" y="0" dy="0" style="font-family: Arial, sans-serif; font-size: 10px; fill: black; font-weight: normal;">178</tspan></text></g><g transform="translate(345.30035756080673,317.6324041199164)"><text text-anchor="middle" dominant-baseline="text-before-edge" transform="translate(0,-6.5)" style="opacity: 1;"><tspan x="0" y="0" dy="0" style="font-family: Arial, sans-serif; font-size: 10px; fill: black; font-weight: normal;">760</tspan></text></g><g transform="translate(359.3372936292441,317.6324041199164)"><text text-anchor="middle" dominant-baseline="text-before-edge" transform="translate(0,-6.5)" style="opacity: 0;"><tspan x="0" y="0" dy="0" style="font-family: Arial, sans-serif; font-size: 10px; fill: black; font-weight: normal;">178</tspan></text></g><g transform="translate(356.5812471813395,122.90766356065785)"><text text-anchor="middle" dominant-baseline="text-before-edge" transform="translate(0,-6.5)" style="opacity: 1;"><tspan x="0" y="0" dy="0" style="font-family: Arial, sans-serif; font-size: 10px; fill: black; font-weight: normal;">851</tspan></text></g><g transform="translate(370.6205985865461,122.90766356065785)"><text text-anchor="middle" dominant-baseline="text-before-edge" transform="translate(0,-6.5)" style="opacity: 0;"><tspan x="0" y="0" dy="0" style="font-family: Arial, sans-serif; font-size: 10px; fill: black; font-weight: normal;">138</tspan></text></g><g transform="translate(390.332954888477,122.90766356065785)"><text text-anchor="middle" dominant-baseline="text-before-edge" transform="translate(0,-6.5)" style="opacity: 1;"><tspan x="0" y="0" dy="0" style="font-family: Arial, sans-serif; font-size: 10px; fill: black; font-weight: normal;">531</tspan></text></g><g transform="translate(401.4301349188234,122.90766356065785)"><text text-anchor="middle" dominant-baseline="text-before-edge" transform="translate(0,-6.5)" style="opacity: 0;"><tspan x="0" y="0" dy="0" style="font-family: Arial, sans-serif; font-size: 10px; fill: black; font-weight: normal;">40</tspan></text></g><g transform="translate(64.88377088306103,125.74281915488336)"><text text-anchor="middle" dominant-baseline="text-before-edge" transform="translate(0,-6.5)" style="opacity: 1;"><tspan x="0" y="0" dy="0" style="font-family: Arial, sans-serif; font-size: 10px; fill: black; font-weight: normal;">750</tspan></text></g><g transform="translate(78.27792269682614,125.74281915488336)"><text text-anchor="middle" dominant-baseline="text-before-edge" transform="translate(0,-6.5)" style="opacity: 0;"><tspan x="0" y="0" dy="0" style="font-family: Arial, sans-serif; font-size: 10px; fill: black; font-weight: normal;">121</tspan></text></g><g transform="translate(97.70520985469479,125.74281915488336)"><text text-anchor="middle" dominant-baseline="text-before-edge" transform="translate(0,-6.5)" style="opacity: 1;"><tspan x="0" y="0" dy="0" style="font-family: Arial, sans-serif; font-size: 10px; fill: black; font-weight: normal;">514</tspan></text></g><g transform="translate(109.24296103256754,125.74281915488336)"><text text-anchor="middle" dominant-baseline="text-before-edge" transform="translate(0,-6.5)" style="opacity: 0;"><tspan x="0" y="0" dy="0" style="font-family: Arial, sans-serif; font-size: 10px; fill: black; font-weight: normal;">71</tspan></text></g><g transform="translate(67.02134726265788,289.9662130463182)"><text text-anchor="middle" dominant-baseline="text-before-edge" transform="translate(0,-6.5)" style="opacity: 1;"><tspan x="0" y="0" dy="0" style="font-family: Arial, sans-serif; font-size: 10px; fill: black; font-weight: normal;">945</tspan></text></g><g transform="translate(81.42761719162948,289.9662130463182)"><text text-anchor="middle" dominant-baseline="text-before-edge" transform="translate(0,-6.5)" style="opacity: 0;"><tspan x="0" y="0" dy="0" style="font-family: Arial, sans-serif; font-size: 10px; fill: black; font-weight: normal;">135</tspan></text></g><g transform="translate(99.34498197145328,289.9662130463182)"><text text-anchor="middle" dominant-baseline="text-before-edge" transform="translate(0,-6.5)" style="opacity: 1;"><tspan x="0" y="0" dy="0" style="font-family: Arial, sans-serif; font-size: 10px; fill: black; font-weight: normal;">260</tspan></text></g><g transform="translate(108.31676968615082,289.9662130463182)"><text text-anchor="middle" dominant-baseline="text-before-edge" transform="translate(0,-6.5)" style="opacity: 0;"><tspan x="0" y="0" dy="0" style="font-family: Arial, sans-serif; font-size: 10px; fill: black; font-weight: normal;">24</tspan></text></g><g transform="translate(276.1005634828862,53.89474183892395)"><text text-anchor="middle" dominant-baseline="text-before-edge" transform="translate(0,-6.5)" style="opacity: 1;"><tspan x="0" y="0" dy="0" style="font-family: Arial, sans-serif; font-size: 10px; fill: black; font-weight: normal;">426</tspan></text></g><g transform="translate(287.90096092655324,53.89474183892395)"><text text-anchor="middle" dominant-baseline="text-before-edge" transform="translate(0,-6.5)" style="opacity: 0;"><tspan x="0" y="0" dy="0" style="font-family: Arial, sans-serif; font-size: 10px; fill: black; font-weight: normal;">132</tspan></text></g><g transform="translate(306.61717982057513,53.89474183892395)"><text text-anchor="middle" dominant-baseline="text-before-edge" transform="translate(0,-6.5)" style="opacity: 1;"><tspan x="0" y="0" dy="0" style="font-family: Arial, sans-serif; font-size: 10px; fill: black; font-weight: normal;">376</tspan></text></g><g transform="translate(317.6028289697961,53.89474183892395)"><text text-anchor="middle" dominant-baseline="text-before-edge" transform="translate(0,-6.5)" style="opacity: 0;"><tspan x="0" y="0" dy="0" style="font-family: Arial, sans-serif; font-size: 10px; fill: black; font-weight: normal;">91</tspan></text></g><g transform="translate(205.3076809238786,56.76804580624895)"><text text-anchor="middle" dominant-baseline="text-before-edge" transform="translate(0,-6.5)" style="opacity: 1;"><tspan x="0" y="0" dy="0" style="font-family: Arial, sans-serif; font-size: 10px; fill: black; font-weight: normal;">437</tspan></text></g><g transform="translate(216.62490934492166,56.76804580624895)"><text text-anchor="middle" dominant-baseline="text-before-edge" transform="translate(0,-6.5)" style="opacity: 0;"><tspan x="0" y="0" dy="0" style="font-family: Arial, sans-serif; font-size: 10px; fill: black; font-weight: normal;">87</tspan></text></g><g transform="translate(367.51665007114923,275.76445847989385)"><text text-anchor="middle" dominant-baseline="text-before-edge" transform="translate(0,-6.5)" style="opacity: 1;"><tspan x="0" y="0" dy="0" style="font-family: Arial, sans-serif; font-size: 10px; fill: black; font-weight: normal;">379</tspan></text></g><g transform="translate(378.4542691825051,275.76445847989385)"><text text-anchor="middle" dominant-baseline="text-before-edge" transform="translate(0,-6.5)" style="opacity: 0;"><tspan x="0" y="0" dy="0" style="font-family: Arial, sans-serif; font-size: 10px; fill: black; font-weight: normal;">86</tspan></text></g><g transform="translate(192.0983001334237,362.9341598325458)"><text text-anchor="middle" dominant-baseline="text-before-edge" transform="translate(0,-6.5)" style="opacity: 1;"><tspan x="0" y="0" dy="0" style="font-family: Arial, sans-serif; font-size: 10px; fill: black; font-weight: normal;">263</tspan></text></g><g transform="translate(201.68262543105865,362.9341598325458)"><text text-anchor="middle" dominant-baseline="text-before-edge" transform="translate(0,-6.5)" style="opacity: 0;"><tspan x="0" y="0" dy="0" style="font-family: Arial, sans-serif; font-size: 10px; fill: black; font-weight: normal;">52</tspan></text></g></g></g><g id="legend" transform="translate(500,20)"><g transform="translate(5,0)"><g class="legendSize" transform="translate(0,0)"><g class="legendCells" transform="translate(36,17)"><g class="cell" transform="translate(0, 1)"><circle class="swatch" r="1" fill="none" stroke="#ccc"/><text class="label" transform="translate( 41,&#xA;          5)" font-family="&quot;Arial&quot;, sans-serif" font-size="10px"><tspan x="0" dy="0em">24</tspan></text></g><g class="cell" transform="translate(0, 53.60692984839338)"><circle class="swatch" r="36" fill="none" stroke="#ccc"/><text class="label" transform="translate( 41,&#xA;          5)" font-family="&quot;Arial&quot;, sans-serif" font-size="10px"><tspan x="0" dy="0em">19543</tspan></text></g></g><text class="legendTitle" font-family="&quot;Arial&quot;, sans-serif" font-size="12px" font-weight="bold"><tspan x="0" dy="0em">počet míst</tspan></text></g><g class="legendColor" transform="translate(0,139.60693359375)"><g class="legendCells" transform="translate(0,32.599998474121094)"><g class="cell" transform="translate(0, 0)"><rect class="swatch" height="15" width="15" style="fill: rgb(155, 155, 155);"/><text class="label" transform="translate( 20, 12.5)" font-family="&quot;Arial&quot;, sans-serif" font-size="10px"><tspan x="0" dy="0em">Běžní zaměstnanci</tspan></text></g><g class="cell" transform="translate(0, 22)"><rect class="swatch" height="15" width="15" style="fill: rgb(151, 177, 255);"/><text class="label" transform="translate( 20, 12.5)" font-family="&quot;Arial&quot;, sans-serif" font-size="10px"><tspan x="0" dy="0em">Představení</tspan></text></g></g><text class="legendTitle" font-family="&quot;Arial&quot;, sans-serif" font-size="12px" font-weight="bold"><tspan x="0" dy="1.2em">úroveň řízení</tspan></text></g></g></g></svg>