<svg xmlns="http://www.w3.org/2000/svg" width="950" height="700"><rect width="950" height="700" x="0" y="0" fill="#FFFFFF" id="backgorund"/><g transform="translate(20,20)" id="viz"><g id="nodes"><g transform="translate(381,331)"><path id="p_1043" d="M-6.062001655779397e-14,330A330,330,0,1,1,6.062001655779397e-14,-330A330,330,0,1,1,-6.062001655779397e-14,330Z" fill="none" stroke="#ccc"/><text fill="black" text-anchor="middle" font-family="'Arial', sans-serif" font-size="8" dominant-baseline="middle"><textPath href="#p_1043" startOffset="50%"/></text></g><g transform="translate(262.2104347294222,337.5159050900227)" id="MPSV"><path id="p_732.578338954965" d="M-2.422081930537413e-14,131.85199913552006A131.85199913552006,131.85199913552006,0,1,1,2.422081930537413e-14,-131.85199913552006A131.85199913552006,131.85199913552006,0,1,1,-2.422081930537413e-14,131.85199913552006Z" fill="none" stroke="#ccc"/><text fill="black" text-anchor="middle" font-family="'Arial', sans-serif" font-size="8" dominant-baseline="middle"><textPath href="#p_732.578338954965" startOffset="50%">MPSV</textPath></text></g><g transform="translate(518.6091488517269,337.5159050900227)" id="MFČR"><path id="p_977.4308781656807" d="M-2.2099821383193188e-14,120.30582422393104A120.30582422393104,120.30582422393104,0,1,1,2.2099821383193188e-14,-120.30582422393104A120.30582422393104,120.30582422393104,0,1,1,-2.2099821383193188e-14,120.30582422393104Z" fill="none" stroke="#ccc"/><text fill="black" text-anchor="middle" font-family="'Arial', sans-serif" font-size="8" dominant-baseline="middle"><textPath href="#p_977.4308781656807" startOffset="50%">MFČR</textPath></text></g><g transform="translate(400.03765075253807,508.44261670368076)" id="MZe"><path id="p_992.9603317661021" d="M-1.533503903245705e-14,83.4800643098832A83.4800643098832,83.4800643098832,0,1,1,1.533503903245705e-14,-83.4800643098832A83.4800643098832,83.4800643098832,0,1,1,-1.533503903245705e-14,83.4800643098832Z" fill="none" stroke="#ccc"/><text fill="black" text-anchor="middle" font-family="'Arial', sans-serif" font-size="8" dominant-baseline="middle"><textPath href="#p_992.9603317661021" startOffset="50%">MZe</textPath></text></g><g transform="translate(399.5645801484879,179.89873857258712)" id="MVČR"><path id="p_653.4381988036022" d="M-1.3405267996684332e-14,72.9748800825272A72.9748800825272,72.9748800825272,0,1,1,1.3405267996684332e-14,-72.9748800825272A72.9748800825272,72.9748800825272,0,1,1,-1.3405267996684332e-14,72.9748800825272Z" fill="none" stroke="#ccc"/><text fill="black" text-anchor="middle" font-family="'Arial', sans-serif" font-size="8" dominant-baseline="middle"><textPath href="#p_653.4381988036022" startOffset="50%">MVČR</textPath></text></g><g transform="translate(261.7880862236019,133.14649086251666)" id="MZd"><path id="p_464.2115378261263" d="M-1.2542274213863996e-14,68.27696074000774A68.27696074000774,68.27696074000774,0,1,1,1.2542274213863996e-14,-68.27696074000774A68.27696074000774,68.27696074000774,0,1,1,-1.2542274213863996e-14,68.27696074000774Z" fill="none" stroke="#ccc"/><text fill="black" text-anchor="middle" font-family="'Arial', sans-serif" font-size="8" dominant-baseline="middle"><textPath href="#p_464.2115378261263" startOffset="50%">MZd</textPath></text></g><g transform="translate(252.16025643309604,536.0695931336733)" id="MŽP"><path id="p_851.9448395915094" d="M-1.1520556768853426e-14,62.714990024740125A62.714990024740125,62.714990024740125,0,1,1,1.1520556768853426e-14,-62.714990024740125A62.714990024740125,62.714990024740125,0,1,1,-1.1520556768853426e-14,62.714990024740125Z" fill="none" stroke="#ccc"/><text fill="black" text-anchor="middle" font-family="'Arial', sans-serif" font-size="8" dominant-baseline="middle"><textPath href="#p_851.9448395915094" startOffset="50%">MŽP</textPath></text></g><g transform="translate(516.7469960546863,172.79813943713134)" id="MZV"><path id="p_730.7267117446387" d="M-7.381235811406892e-15,40.18157625282107A40.18157625282107,40.18157625282107,0,1,1,7.381235811406892e-15,-40.18157625282107A40.18157625282107,40.18157625282107,0,1,1,-7.381235811406892e-15,40.18157625282107Z" fill="none" stroke="#ccc"/><text fill="black" text-anchor="middle" font-family="'Arial', sans-serif" font-size="8" dominant-baseline="middle"><textPath href="#p_730.7267117446387" startOffset="50%">MZV</textPath></text></g><g transform="translate(545.8830986610394,518.4890743347476)" id="MPO"><path id="p_1123.8422777952742" d="M-1.0740784003275355e-14,58.47010479948726A58.47010479948726,58.47010479948726,0,1,1,1.0740784003275355e-14,-58.47010479948726A58.47010479948726,58.47010479948726,0,1,1,-1.0740784003275355e-14,58.47010479948726Z" fill="none" stroke="#ccc"/><text fill="black" text-anchor="middle" font-family="'Arial', sans-serif" font-size="8" dominant-baseline="middle"><textPath href="#p_1123.8422777952742" startOffset="50%">MPO</textPath></text></g><g transform="translate(612.9619297592973,187.2640651787491)" id="MŠMT"><path id="p_854.0998612312106" d="M-9.712771667170318e-15,52.873866293164305A52.873866293164305,52.873866293164305,0,1,1,9.712771667170318e-15,-52.873866293164305A52.873866293164305,52.873866293164305,0,1,1,-9.712771667170318e-15,52.873866293164305Z" fill="none" stroke="#ccc"/><text fill="black" text-anchor="middle" font-family="'Arial', sans-serif" font-size="8" dominant-baseline="middle"><textPath href="#p_854.0998612312106" startOffset="50%">MŠMT</textPath></text></g><g transform="translate(148.87771178314816,186.7899557836094)" id="MMR"><path id="p_389.15531188317607" d="M-9.641823841032993e-15,52.487644316418454A52.487644316418454,52.487644316418454,0,1,1,9.641823841032993e-15,-52.487644316418454A52.487644316418454,52.487644316418454,0,1,1,-9.641823841032993e-15,52.487644316418454Z" fill="none" stroke="#ccc"/><text fill="black" text-anchor="middle" font-family="'Arial', sans-serif" font-size="8" dominant-baseline="middle"><textPath href="#p_389.15531188317607" startOffset="50%">MMR</textPath></text></g><g transform="translate(483.502345599204,84.89744020238831)" id="MO"><path id="p_618.9546549359914" d="M-9.103081780141158e-15,49.55486913439902A49.55486913439902,49.55486913439902,0,1,1,9.103081780141158e-15,-49.55486913439902A49.55486913439902,49.55486913439902,0,1,1,-9.103081780141158e-15,49.55486913439902Z" fill="none" stroke="#ccc"/><text fill="black" text-anchor="middle" font-family="'Arial', sans-serif" font-size="8" dominant-baseline="middle"><textPath href="#p_618.9546549359914" startOffset="50%">MO</textPath></text></g><g transform="translate(149.40905747798823,483.5546334144581)" id="MD"><path id="p_682.401180282792" d="M-8.897822451093085e-15,48.43748939034556A48.43748939034556,48.43748939034556,0,1,1,8.897822451093085e-15,-48.43748939034556A48.43748939034556,48.43748939034556,0,1,1,-8.897822451093085e-15,48.43748939034556Z" fill="none" stroke="#ccc"/><text fill="black" text-anchor="middle" font-family="'Arial', sans-serif" font-size="8" dominant-baseline="middle"><textPath href="#p_682.401180282792" startOffset="50%">MD</textPath></text></g><g transform="translate(349.656743902127,90.53949497279095)" id="ÚV"><path id="p_466.3321486973273" d="M-4.617391726150513e-15,25.135909822409317A25.135909822409317,25.135909822409317,0,1,1,4.617391726150513e-15,-25.135909822409317A25.135909822409317,25.135909822409317,0,1,1,-4.617391726150513e-15,25.135909822409317Z" fill="none" stroke="#ccc"/><text fill="black" text-anchor="middle" font-family="'Arial', sans-serif" font-size="8" dominant-baseline="middle"><textPath href="#p_466.3321486973273" startOffset="50%">ÚV</textPath></text></g><g transform="translate(607.5967465898084,456.98187471459374)" id="MSp"><path id="p_1089.9980449180844" d="M-4.4857753448278975e-15,24.419423613682298A24.419423613682298,24.419423613682298,0,1,1,4.4857753448278975e-15,-24.419423613682298A24.419423613682298,24.419423613682298,0,1,1,-4.4857753448278975e-15,24.419423613682298Z" fill="none" stroke="#ccc"/><text fill="black" text-anchor="middle" font-family="'Arial', sans-serif" font-size="8" dominant-baseline="middle"><textPath href="#p_1089.9980449180844" startOffset="50%">MSp</textPath></text></g><g transform="translate(324.4031866963827,587.742981559229)" id="MKČR"><path id="p_935.0113437801585" d="M-4.016567582839707e-15,21.865175524546878A21.865175524546878,21.865175524546878,0,1,1,4.016567582839707e-15,-21.865175524546878A21.865175524546878,21.865175524546878,0,1,1,-4.016567582839707e-15,21.865175524546878Z" fill="none" stroke="#ccc"/><text fill="black" text-anchor="middle" font-family="'Arial', sans-serif" font-size="8" dominant-baseline="middle"><textPath href="#p_935.0113437801585" startOffset="50%">MKČR</textPath></text></g><g transform="translate(230.18078407011762,337.5159050900227)" id="Mimo ministerstvo"><path id="p_664.2781468735021" d="M-1.7558028936976e-14,95.58145771336184A95.58145771336184,95.58145771336184,0,1,1,1.7558028936976e-14,-95.58145771336184A95.58145771336184,95.58145771336184,0,1,1,-1.7558028936976e-14,95.58145771336184Z" fill="none" stroke="#ccc"/><text fill="black" text-anchor="middle" font-family="'Arial', sans-serif" font-size="8" dominant-baseline="middle"><textPath href="#p_664.2781468735021" startOffset="50%">Mimo ministerstvo</textPath></text></g><g transform="translate(359.91233782421085,337.5159050900227)" id="Centrální ministerstvo"><path id="p_728.3374481921113" d="M-5.494231876289119e-15,29.909205277877767A29.909205277877767,29.909205277877767,0,1,1,5.494231876289119e-15,-29.909205277877767A29.909205277877767,29.909205277877767,0,1,1,-5.494231876289119e-15,29.909205277877767Z" fill="none" stroke="#ccc"/><text fill="black" text-anchor="middle" font-family="'Arial', sans-serif" font-size="8" dominant-baseline="middle"><textPath href="#p_728.3374481921113" startOffset="50%">Centrální ministerstvo</textPath></text></g><g transform="translate(486.4860355182431,337.5159050900227)" id="Mimo ministerstvo"><path id="p_908.9437607358594" d="M-1.541986220007906e-14,83.94182012759363A83.94182012759363,83.94182012759363,0,1,1,1.541986220007906e-14,-83.94182012759363A83.94182012759363,83.94182012759363,0,1,1,-1.541986220007906e-14,83.94182012759363Z" fill="none" stroke="#ccc"/><text fill="black" text-anchor="middle" font-family="'Arial', sans-serif" font-size="8" dominant-baseline="middle"><textPath href="#p_908.9437607358594" startOffset="50%">Mimo ministerstvo</textPath></text></g><g transform="translate(604.6714143607473,337.5159050900227)" id="Centrální ministerstvo"><path id="p_973.189987402827" d="M-5.511400691005117e-15,30.002667952056974A30.002667952056974,30.002667952056974,0,1,1,5.511400691005117e-15,-30.002667952056974A30.002667952056974,30.002667952056974,0,1,1,-5.511400691005117e-15,30.002667952056974Z" fill="none" stroke="#ccc"/><text fill="black" text-anchor="middle" font-family="'Arial', sans-serif" font-size="8" dominant-baseline="middle"><textPath href="#p_973.189987402827" startOffset="50%">Centrální ministerstvo</textPath></text></g><g transform="translate(374.4485421188192,508.44261670368076)" id="Mimo ministerstvo"><path id="p_937.5412237358107" d="M-9.855357040520053e-15,53.65006491331072A53.65006491331072,53.65006491331072,0,1,1,9.855357040520053e-15,-53.65006491331072A53.65006491331072,53.65006491331072,0,1,1,-9.855357040520053e-15,53.65006491331072Z" fill="none" stroke="#ccc"/><text fill="black" text-anchor="middle" font-family="'Arial', sans-serif" font-size="8" dominant-baseline="middle"><textPath href="#p_937.5412237358107" startOffset="50%">Mimo ministerstvo</textPath></text></g><g transform="translate(455.80816104727563,508.44261670368076)" id="Centrální ministerstvo"><path id="p_988.7194410032483" d="M-4.311123499827982e-15,23.46866325229203A23.46866325229203,23.46866325229203,0,1,1,4.311123499827982e-15,-23.46866325229203A23.46866325229203,23.46866325229203,0,1,1,-4.311123499827982e-15,23.46866325229203Z" fill="none" stroke="#ccc"/><text fill="black" text-anchor="middle" font-family="'Arial', sans-serif" font-size="8" dominant-baseline="middle"><textPath href="#p_988.7194410032483" startOffset="50%">Centrální ministerstvo</textPath></text></g><g transform="translate(369.5495958305782,179.89873857258712)" id="Centrální ministerstvo"><path id="p_589.1673394049292" d="M-7.112565831237079e-15,38.719005001763904A38.719005001763904,38.719005001763904,0,1,1,7.112565831237079e-15,-38.719005001763904A38.719005001763904,38.719005001763904,0,1,1,-7.112565831237079e-15,38.719005001763904Z" fill="none" stroke="#ccc"/><text fill="black" text-anchor="middle" font-family="'Arial', sans-serif" font-size="8" dominant-baseline="middle"><textPath href="#p_589.1673394049292" startOffset="50%">Centrální ministerstvo</textPath></text></g><g transform="translate(440.4040305316786,179.89873857258712)" id="Mimo ministerstvo"><path id="p_649.1973080407486" d="M-5.124143673338241e-15,27.894538936482853A27.894538936482853,27.894538936482853,0,1,1,5.124143673338241e-15,-27.894538936482853A27.894538936482853,27.894538936482853,0,1,1,-5.124143673338241e-15,27.894538936482853Z" fill="none" stroke="#ccc"/><text fill="black" text-anchor="middle" font-family="'Arial', sans-serif" font-size="8" dominant-baseline="middle"><textPath href="#p_649.1973080407486" startOffset="50%">Mimo ministerstvo</textPath></text></g><g transform="translate(238.7069368019179,133.14649086251666)" id="Mimo ministerstvo"><path id="p_413.80834821990464" d="M-7.523296855138591e-15,40.95492055547011A40.95492055547011,40.95492055547011,0,1,1,7.523296855138591e-15,-40.95492055547011A40.95492055547011,40.95492055547011,0,1,1,-7.523296855138591e-15,40.95492055547011Z" fill="none" stroke="#ccc"/><text fill="black" text-anchor="middle" font-family="'Arial', sans-serif" font-size="8" dominant-baseline="middle"><textPath href="#p_413.80834821990464" startOffset="50%">Mimo ministerstvo</textPath></text></g><g transform="translate(304.8634521604988,133.14649086251666)" id="Centrální ministerstvo"><path id="p_459.9706470632726" d="M-3.850418866616393e-15,20.960704040257184A20.960704040257184,20.960704040257184,0,1,1,3.850418866616393e-15,-20.960704040257184A20.960704040257184,20.960704040257184,0,1,1,-3.850418866616393e-15,20.960704040257184Z" fill="none" stroke="#ccc"/><text fill="black" text-anchor="middle" font-family="'Arial', sans-serif" font-size="8" dominant-baseline="middle"><textPath href="#p_459.9706470632726" startOffset="50%">Centrální ministerstvo</textPath></text></g><g transform="translate(227.63186063583487,536.0695931336733)" id="Mimo ministerstvo"><path id="p_798.6471572341335" d="M-6.23572456391379e-15,33.94570346462531A33.94570346462531,33.94570346462531,0,1,1,6.23572456391379e-15,-33.94570346462531A33.94570346462531,33.94570346462531,0,1,1,-6.23572456391379e-15,33.94570346462531Z" fill="none" stroke="#ccc"/><text fill="black" text-anchor="middle" font-family="'Arial', sans-serif" font-size="8" dominant-baseline="middle"><textPath href="#p_798.6471572341335" startOffset="50%">Mimo ministerstvo</textPath></text></g><g transform="translate(288.22640527914814,536.0695931336733)" id="Centrální ministerstvo"><path id="p_847.7039488286557" d="M-4.1162737128306225e-15,22.40795041583436A22.40795041583436,22.40795041583436,0,1,1,4.1162737128306225e-15,-22.40795041583436A22.40795041583436,22.40795041583436,0,1,1,-4.1162737128306225e-15,22.40795041583436Z" fill="none" stroke="#ccc"/><text fill="black" text-anchor="middle" font-family="'Arial', sans-serif" font-size="8" dominant-baseline="middle"><textPath href="#p_847.7039488286557" startOffset="50%">Centrální ministerstvo</textPath></text></g><g transform="translate(516.7469960546863,172.79813943713134)" id="Centrální ministerstvo"><path id="p_726.4858209817851" d="M-6.60219681666755e-15,35.94068548996743A35.94068548996743,35.94068548996743,0,1,1,6.60219681666755e-15,-35.94068548996743A35.94068548996743,35.94068548996743,0,1,1,-6.60219681666755e-15,35.94068548996743Z" fill="none" stroke="#ccc"/><text fill="black" text-anchor="middle" font-family="'Arial', sans-serif" font-size="8" dominant-baseline="middle"><textPath href="#p_726.4858209817851" startOffset="50%">Centrální ministerstvo</textPath></text></g><g transform="translate(517.7343749152918,518.4890743347476)" id="Mimo ministerstvo"><path id="p_1063.3039395409253" d="M-4.790908343239076e-15,26.08049029088601A26.08049029088601,26.08049029088601,0,1,1,4.790908343239076e-15,-26.08049029088601A26.08049029088601,26.08049029088601,0,1,1,-4.790908343239076e-15,26.08049029088601Z" fill="none" stroke="#ccc"/><text fill="black" text-anchor="middle" font-family="'Arial', sans-serif" font-size="8" dominant-baseline="middle"><textPath href="#p_1063.3039395409253" startOffset="50%">Mimo ministerstvo</textPath></text></g><g transform="translate(574.0840343333523,518.4890743347476)" id="Centrální ministerstvo"><path id="p_1119.6013870324207" d="M-4.7813171679272655e-15,26.028278364320798A26.028278364320798,26.028278364320798,0,1,1,4.7813171679272655e-15,-26.028278364320798A26.028278364320798,26.028278364320798,0,1,1,-4.7813171679272655e-15,26.028278364320798Z" fill="none" stroke="#ccc"/><text fill="black" text-anchor="middle" font-family="'Arial', sans-serif" font-size="8" dominant-baseline="middle"><textPath href="#p_1119.6013870324207" startOffset="50%">Centrální ministerstvo</textPath></text></g><g transform="translate(590.361791373718,187.2640651787491)" id="Centrální ministerstvo"><path id="p_804.6586936971985" d="M-4.7821546023029364e-15,26.032837144731356A26.032837144731356,26.032837144731356,0,1,1,4.7821546023029364e-15,-26.032837144731356A26.032837144731356,26.032837144731356,0,1,1,-4.7821546023029364e-15,26.032837144731356Z" fill="none" stroke="#ccc"/><text fill="black" text-anchor="middle" font-family="'Arial', sans-serif" font-size="8" dominant-baseline="middle"><textPath href="#p_804.6586936971985" startOffset="50%">Centrální ministerstvo</textPath></text></g><g transform="translate(641.1152122854554,187.2640651787491)" id="Mimo ministerstvo"><path id="p_849.858970468357" d="M-3.762058572758369e-15,20.47969300415249A20.47969300415249,20.47969300415249,0,1,1,3.762058572758369e-15,-20.47969300415249A20.47969300415249,20.47969300415249,0,1,1,-3.762058572758369e-15,20.47969300415249Z" fill="none" stroke="#ccc"/><text fill="black" text-anchor="middle" font-family="'Arial', sans-serif" font-size="8" dominant-baseline="middle"><textPath href="#p_849.858970468357" startOffset="50%">Mimo ministerstvo</textPath></text></g><g transform="translate(125.4460259536304,186.7899557836094)" id="Centrální ministerstvo"><path id="p_338.0510494612869" d="M-4.558453988831854e-15,24.81506772404706A24.81506772404706,24.81506772404706,0,1,1,4.558453988831854e-15,-24.81506772404706A24.81506772404706,24.81506772404706,0,1,1,-4.558453988831854e-15,24.81506772404706Z" fill="none" stroke="#ccc"/><text fill="black" text-anchor="middle" font-family="'Arial', sans-serif" font-size="8" dominant-baseline="middle"><textPath href="#p_338.0510494612869" startOffset="50%">Centrální ministerstvo</textPath></text></g><g transform="translate(175.81322488862205,186.7899557836094)" id="Mimo ministerstvo"><path id="p_384.9144211203224" d="M-3.9148113600921255e-15,21.31124044809094A21.31124044809094,21.31124044809094,0,1,1,3.9148113600921255e-15,-21.31124044809094A21.31124044809094,21.31124044809094,0,1,1,-3.9148113600921255e-15,21.31124044809094Z" fill="none" stroke="#ccc"/><text fill="black" text-anchor="middle" font-family="'Arial', sans-serif" font-size="8" dominant-baseline="middle"><textPath href="#p_384.9144211203224" startOffset="50%">Mimo ministerstvo</textPath></text></g><g transform="translate(464.9137376040451,84.89744020238831)" id="Centrální ministerstvo"><path id="p_577.53654818282" d="M-4.909370893120385e-15,26.72537037638651A26.72537037638651,26.72537037638651,0,1,1,4.909370893120385e-15,-26.72537037638651A26.72537037638651,26.72537037638651,0,1,1,-4.909370893120385e-15,26.72537037638651Z" fill="none" stroke="#ccc"/><text fill="black" text-anchor="middle" font-family="'Arial', sans-serif" font-size="8" dominant-baseline="middle"><textPath href="#p_577.53654818282" startOffset="50%">Centrální ministerstvo</textPath></text></g><g transform="translate(512.3481613570173,84.89744020238831)" id="Mimo ministerstvo"><path id="p_614.7137641731376" d="M-3.02515239491176e-15,16.46816261373205A16.46816261373205,16.46816261373205,0,1,1,3.02515239491176e-15,-16.46816261373205A16.46816261373205,16.46816261373205,0,1,1,-3.02515239491176e-15,16.46816261373205Z" fill="none" stroke="#ccc"/><text fill="black" text-anchor="middle" font-family="'Arial', sans-serif" font-size="8" dominant-baseline="middle"><textPath href="#p_614.7137641731376" startOffset="50%">Mimo ministerstvo</textPath></text></g><g transform="translate(127.0194258848777,483.5546334144581)" id="Mimo ministerstvo"><path id="p_633.3810263337173" d="M-4.005874856665054e-15,21.806967034381397A21.806967034381397,21.806967034381397,0,1,1,4.005874856665054e-15,-21.806967034381397A21.806967034381397,21.806967034381397,0,1,1,-4.005874856665054e-15,21.806967034381397Z" fill="none" stroke="#ccc"/><text fill="black" text-anchor="middle" font-family="'Arial', sans-serif" font-size="8" dominant-baseline="middle"><textPath href="#p_633.3810263337173" startOffset="50%">Mimo ministerstvo</textPath></text></g><g transform="translate(173.33646989379645,483.5546334144581)" id="Centrální ministerstvo"><path id="p_678.1602895199383" d="M-3.723389102319018e-15,20.269186211683706A20.269186211683706,20.269186211683706,0,1,1,3.723389102319018e-15,-20.269186211683706A20.269186211683706,20.269186211683706,0,1,1,-3.723389102319018e-15,20.269186211683706Z" fill="none" stroke="#ccc"/><text fill="black" text-anchor="middle" font-family="'Arial', sans-serif" font-size="8" dominant-baseline="middle"><textPath href="#p_678.1602895199383" startOffset="50%">Centrální ministerstvo</textPath></text></g><g transform="translate(349.656743902127,90.53949497279095)" id="Centrální ministerstvo"><path id="p_462.0912579344737" d="M-3.83835273141117e-15,20.89501905955568A20.89501905955568,20.89501905955568,0,1,1,3.83835273141117e-15,-20.89501905955568A20.89501905955568,20.89501905955568,0,1,1,-3.83835273141117e-15,20.89501905955568Z" fill="none" stroke="#ccc"/><text fill="black" text-anchor="middle" font-family="'Arial', sans-serif" font-size="8" dominant-baseline="middle"><textPath href="#p_462.0912579344737" startOffset="50%">Centrální ministerstvo</textPath></text></g><g transform="translate(607.5967465898084,456.98187471459374)" id="Centrální ministerstvo"><path id="p_1085.7571541552306" d="M-3.706736350088555e-15,20.17853285082866A20.17853285082866,20.17853285082866,0,1,1,3.706736350088555e-15,-20.17853285082866A20.17853285082866,20.17853285082866,0,1,1,-3.706736350088555e-15,20.17853285082866Z" fill="none" stroke="#ccc"/><text fill="black" text-anchor="middle" font-family="'Arial', sans-serif" font-size="8" dominant-baseline="middle"><textPath href="#p_1085.7571541552306" startOffset="50%">Centrální ministerstvo</textPath></text></g><g transform="translate(324.4031866963827,587.742981559229)" id="Centrální ministerstvo"><path id="p_930.7704530173049" d="M-3.2375285881003644e-15,17.62428476169324A17.62428476169324,17.62428476169324,0,1,1,3.2375285881003644e-15,-17.62428476169324A17.62428476169324,17.62428476169324,0,1,1,-3.2375285881003644e-15,17.62428476169324Z" fill="none" stroke="#ccc"/><text fill="black" text-anchor="middle" font-family="'Arial', sans-serif" font-size="8" dominant-baseline="middle"><textPath href="#p_930.7704530173049" startOffset="50%">Centrální ministerstvo</textPath></text></g><g transform="translate(206.045824359603,337.5159050900227)" id="Běžní zaměstnanci"><path id="p_611.7673366896194" d="M-1.234546976868185e-14,67.2056072399936A67.2056072399936,67.2056072399936,0,1,1,1.234546976868185e-14,-67.2056072399936A67.2056072399936,67.2056072399936,0,1,1,-1.234546976868185e-14,67.2056072399936Z" fill="#9b9b9b" stroke="none"/></g><g transform="translate(299.50683669153807,337.5159050900227)" id="Představení"><path id="p_660.0372561106486" d="M-4.0440006761851374e-15,22.014514329087802A22.014514329087802,22.014514329087802,0,1,1,4.0440006761851374e-15,-22.014514329087802A22.014514329087802,22.014514329087802,0,1,1,-4.0440006761851374e-15,22.014514329087802Z" fill="#97b1ff" stroke="none"/></g><g transform="translate(351.72999679873755,337.5159050900227)" id="Běžní zaměstnanci"><path id="p_707.7318753783111" d="M-3.212121219593086e-15,17.485973489550837A17.485973489550837,17.485973489550837,0,1,1,3.212121219593086e-15,-17.485973489550837A17.485973489550837,17.485973489550837,0,1,1,-3.212121219593086e-15,17.485973489550837Z" fill="#9b9b9b" stroke="none"/></g><g transform="translate(379.51875669518853,337.5159050900227)" id="Představení"><path id="p_724.0965574292577" d="M-1.1135521645870204e-15,6.061895644046478A6.061895644046478,6.061895644046478,0,1,1,1.1135521645870204e-15,-6.061895644046478A6.061895644046478,6.061895644046478,0,1,1,-1.1135521645870204e-15,6.061895644046478Z" fill="#97b1ff" stroke="none"/></g><g transform="translate(462.7804358425281,337.5159050900227)" id="Běžní zaměstnanci"><path id="p_857.2916706215758" d="M-1.0286175190629783e-14,55.995329689025A55.995329689025,55.995329689025,0,1,1,1.0286175190629783e-14,-55.995329689025A55.995329689025,55.995329689025,0,1,1,-1.0286175190629783e-14,55.995329689025Z" fill="#9b9b9b" stroke="none"/></g><g transform="translate(544.6018105886949,337.5159050900227)" id="Představení"><path id="p_904.7028699730057" d="M-3.965128517340266e-15,21.58515429428819A21.58515429428819,21.58515429428819,0,1,1,3.965128517340266e-15,-21.58515429428819A21.58515429428819,21.58515429428819,0,1,1,-3.965128517340266e-15,21.58515429428819Z" fill="#97b1ff" stroke="none"/></g><g transform="translate(595.8723210781476,337.5159050900227)" id="Běžní zaměstnanci"><path id="p_951.350910074774" d="M-3.115994482675565e-15,16.962683906603612A16.962683906603612,16.962683906603612,0,1,1,3.115994482675565e-15,-16.962683906603612A16.962683906603612,16.962683906603612,0,1,1,-3.115994482675565e-15,16.962683906603612Z" fill="#9b9b9b" stroke="none"/></g><g transform="translate(623.7545436487778,337.5159050900227)" id="Představení"><path id="p_968.9490966399734" d="M-1.2268477162205384e-15,6.678647901172908A6.678647901172908,6.678647901172908,0,1,1,1.2268477162205384e-15,-6.678647901172908A6.678647901172908,6.678647901172908,0,1,1,-1.2268477162205384e-15,6.678647901172908Z" fill="#97b1ff" stroke="none"/></g><g transform="translate(359.0837426991222,508.44261670368076)" id="Běžní zaměstnanci"><path id="p_902.570734133563" d="M-6.2538501814497524e-15,34.04437473076007A34.04437473076007,34.04437473076007,0,1,1,6.2538501814497524e-15,-34.04437473076007A34.04437473076007,34.04437473076007,0,1,1,-6.2538501814497524e-15,34.04437473076007Z" fill="#9b9b9b" stroke="none"/></g><g transform="translate(410.6133622310061,508.44261670368076)" id="Představení"><path id="p_933.3003329729571" d="M-2.432948366961288e-15,13.2443540382702A13.2443540382702,13.2443540382702,0,1,1,2.432948366961288e-15,-13.2443540382702A13.2443540382702,13.2443540382702,0,1,1,-2.432948366961288e-15,13.2443540382702Z" fill="#97b1ff" stroke="none"/></g><g transform="translate(448.3560556341321,508.44261670368076)" id="Běžní zaměstnanci"><path id="p_969.5743394141077" d="M-2.163154948921404e-15,11.775667076294852A11.775667076294852,11.775667076294852,0,1,1,2.163154948921404e-15,-11.775667076294852A11.775667076294852,11.775667076294852,0,1,1,-2.163154948921404e-15,11.775667076294852Z" fill="#9b9b9b" stroke="none"/></g><g transform="translate(469.7042735049973,508.44261670368076)" id="Představení"><path id="p_984.4785502403948" d="M-9.794100587975642e-16,5.331660031716725A5.331660031716725,5.331660031716725,0,1,1,9.794100587975642e-16,-5.331660031716725A5.331660031716725,5.331660031716725,0,1,1,-9.794100587975642e-16,5.331660031716725Z" fill="#97b1ff" stroke="none"/></g><g transform="translate(359.228347286077,179.89873857258712)" id="Běžní zaměstnanci"><path id="p_564.2839515530732" d="M-4.437544237513579e-15,24.156865694409035A24.156865694409035,24.156865694409035,0,1,1,4.437544237513579e-15,-24.156865694409035A24.156865694409035,24.156865694409035,0,1,1,-4.437544237513579e-15,24.156865694409035Z" fill="#9b9b9b" stroke="none"/></g><g transform="translate(395.826906906414,179.89873857258712)" id="Představení"><path id="p_584.9264486420756" d="M-1.5064631016144848e-15,8.20080316307441A8.20080316307441,8.20080316307441,0,1,1,1.5064631016144848e-15,-8.20080316307441A8.20080316307441,8.20080316307441,0,1,1,-1.5064631016144848e-15,8.20080316307441Z" fill="#97b1ff" stroke="none"/></g><g transform="translate(432.29842545602764,179.89873857258712)" id="Běžní zaměstnanci"><path id="p_628.7452071265931" d="M-2.8561291819416323e-15,15.548043097978296A15.548043097978296,15.548043097978296,0,1,1,2.8561291819416323e-15,-15.548043097978296A15.548043097978296,15.548043097978296,0,1,1,-2.8561291819416323e-15,15.548043097978296Z" fill="#9b9b9b" stroke="none"/></g><g transform="translate(458.0725190110837,179.89873857258712)" id="Představení"><path id="p_644.956417277895" d="M-1.0994559992875948e-15,5.9851596942241025A5.9851596942241025,5.9851596942241025,0,1,1,1.0994559992875948e-15,-5.9851596942241025A5.9851596942241025,5.9851596942241025,0,1,1,-1.0994559992875948e-15,5.9851596942241025Z" fill="#97b1ff" stroke="none"/></g><g transform="translate(225.3224026154018,133.14649086251666)" id="Běžní zaměstnanci"><path id="p_382.7983890840189" d="M-4.2855588179599635e-15,23.329495606100398A23.329495606100398,23.329495606100398,0,1,1,4.2855588179599635e-15,-23.329495606100398A23.329495606100398,23.329495606100398,0,1,1,-4.2855588179599635e-15,23.329495606100398Z" fill="#9b9b9b" stroke="none"/></g><g transform="translate(264.1568777894451,133.14649086251666)" id="Představení"><path id="p_409.56745745705103" d="M-2.0691795450696133e-15,11.264088805089255A11.264088805089255,11.264088805089255,0,1,1,2.0691795450696133e-15,-11.264088805089255A11.264088805089255,11.264088805089255,0,1,1,-2.0691795450696133e-15,11.264088805089255Z" fill="#97b1ff" stroke="none"/></g><g transform="translate(298.4431411208336,133.14649086251666)" id="Běžní zaměstnanci"><path id="p_442.8891342210886" d="M-1.8919878672385875e-15,10.299502237738333A10.299502237738333,10.299502237738333,0,1,1,1.8919878672385875e-15,-10.299502237738333A10.299502237738333,10.299502237738333,0,1,1,-1.8919878672385875e-15,10.299502237738333Z" fill="#9b9b9b" stroke="none"/></g><g transform="translate(317.28339977966397,133.14649086251666)" id="Představení"><path id="p_455.729756300419" d="M-7.898725072687924e-16,4.299865658238399A4.299865658238399,4.299865658238399,0,1,1,7.898725072687924e-16,-4.299865658238399A4.299865658238399,4.299865658238399,0,1,1,-7.898725072687924e-16,4.299865658238399Z" fill="#97b1ff" stroke="none"/></g><g transform="translate(217.19865055261474,536.0695931336733)" id="Běžní zaměstnanci"><path id="p_773.5398463048396" d="M-3.5401359691873328e-15,19.271602618551533A19.271602618551533,19.271602618551533,0,1,1,3.5401359691873328e-15,-19.271602618551533A19.271602618551533,19.271602618551533,0,1,1,-3.5401359691873328e-15,19.271602618551533Z" fill="#9b9b9b" stroke="none"/></g><g transform="translate(249.02390863581323,536.0695931336733)" id="Představení"><path id="p_794.4062664712798" d="M-1.5270301026174443e-15,8.312764701793323A8.312764701793323,8.312764701793323,0,1,1,1.5270301026174443e-15,-8.312764701793323A8.312764701793323,8.312764701793323,0,1,1,-1.5270301026174443e-15,8.312764701793323Z" fill="#97b1ff" stroke="none"/></g><g transform="translate(280.62468517342506,536.0695931336733)" id="Běžní zaměstnanci"><path id="p_828.259617854356" d="M-1.9408213887681026e-15,10.565339547257642A10.565339547257642,10.565339547257642,0,1,1,1.9408213887681026e-15,-10.565339547257642A10.565339547257642,10.565339547257642,0,1,1,-1.9408213887681026e-15,10.565339547257642Z" fill="#9b9b9b" stroke="none"/></g><g transform="translate(300.9121902078326,536.0695931336733)" id="Představení"><path id="p_843.4630580658022" d="M-1.0068938319535077e-15,5.48127472429627A5.48127472429627,5.48127472429627,0,1,1,1.0068938319535077e-15,-5.48127472429627A5.48127472429627,5.48127472429627,0,1,1,-1.0068938319535077e-15,5.48127472429627Z" fill="#97b1ff" stroke="none"/></g><g transform="translate(504.8686026258304,172.79813943713134)" id="Běžní zaměstnanci"><path id="p_698.4881433612196" d="M-3.6411323481790144e-15,19.82140129825793A19.82140129825793,19.82140129825793,0,1,1,3.6411323481790144e-15,-19.82140129825793A19.82140129825793,19.82140129825793,0,1,1,-3.6411323481790144e-15,19.82140129825793Z" fill="#9b9b9b" stroke="none"/></g><g transform="translate(538.6888427343711,172.79813943713134)" id="Představení"><path id="p_722.2449302189315" d="M-1.792505976379522e-15,9.757948047429048A9.757948047429048,9.757948047429048,0,1,1,1.792505976379522e-15,-9.757948047429048A9.757948047429048,9.757948047429048,0,1,1,-1.792505976379522e-15,9.757948047429048Z" fill="#97b1ff" stroke="none"/></g><g transform="translate(509.20006335108974,518.4890743347476)" id="Běžní zaměstnanci"><path id="p_1041.9944256496676" d="M-2.4441417474957887e-15,13.30528796383031A13.30528796383031,13.30528796383031,0,1,1,2.4441417474957887e-15,-13.30528796383031A13.30528796383031,13.30528796383031,0,1,1,-2.4441417474957887e-15,13.30528796383031Z" fill="#9b9b9b" stroke="none"/></g><g transform="translate(533.1601082605489,518.4890743347476)" id="Představení"><path id="p_1059.0630487780718" d="M-1.1782081036342737e-15,6.413866182775247A6.413866182775247,6.413866182775247,0,1,1,1.1782081036342737e-15,-6.413866182775247A6.413866182775247,6.413866182775247,0,1,1,-1.1782081036342737e-15,6.413866182775247Z" fill="#97b1ff" stroke="none"/></g><g transform="translate(565.5497227691502,518.4890743347476)" id="Běžní zaměstnanci"><path id="p_1098.2918731411628" d="M-2.4345505721839788e-15,13.2530760372651A13.2530760372651,13.2530760372651,0,1,1,2.4345505721839788e-15,-13.2530760372651A13.2530760372651,13.2530760372651,0,1,1,-2.4345505721839788e-15,13.2530760372651Z" fill="#9b9b9b" stroke="none"/></g><g transform="translate(589.4575557520442,518.4890743347476)" id="Představení"><path id="p_1115.360496269567" d="M-1.1782081036342737e-15,6.413866182775247A6.413866182775247,6.413866182775247,0,1,1,1.1782081036342737e-15,-6.413866182775247A6.413866182775247,6.413866182775247,0,1,1,-1.1782081036342737e-15,6.413866182775247Z" fill="#97b1ff" stroke="none"/></g><g transform="translate(582.5939344550382,187.2640651787491)" id="Běžní zaměstnanci"><path id="p_784.882089096985" d="M-2.576183440809205e-15,14.024089463197848A14.024089463197848,14.024089463197848,0,1,1,2.576183440809205e-15,-14.024089463197848A14.024089463197848,14.024089463197848,0,1,1,-2.576183440809205e-15,14.024089463197848Z" fill="#9b9b9b" stroke="none"/></g><g transform="translate(606.5063262183427,187.2640651787491)" id="Představení"><path id="p_800.4178029343449" d="M-1.0374126693847182e-15,5.647411537253056A5.647411537253056,5.647411537253056,0,1,1,1.0374126693847182e-15,-5.647411537253056A5.647411537253056,5.647411537253056,0,1,1,-1.0374126693847182e-15,5.647411537253056Z" fill="#97b1ff" stroke="none"/></g><g transform="translate(635.954302738897,187.2640651787491)" id="Běžní zaměstnanci"><path id="p_835.2962606123866" d="M-2.034975874486771e-15,11.077892694740507A11.077892694740507,11.077892694740507,0,1,1,2.034975874486771e-15,-11.077892694740507A11.077892694740507,11.077892694740507,0,1,1,-2.034975874486771e-15,11.077892694740507Z" fill="#9b9b9b" stroke="none"/></g><g transform="translate(654.3135503616228,187.2640651787491)" id="Představení"><path id="p_845.6180797055034" d="M-5.585242061625836e-16,3.0404641651315303A3.0404641651315303,3.0404641651315303,0,1,1,5.585242061625836e-16,-3.0404641651315303A3.0404641651315303,3.0404641651315303,0,1,1,-5.585242061625836e-16,3.0404641651315303Z" fill="#97b1ff" stroke="none"/></g><g transform="translate(118.0374450239377,186.7899557836094)" id="Běžní zaměstnanci"><path id="p_318.99299683904786" d="M-2.4184807558266727e-15,13.165596031500746A13.165596031500746,13.165596031500746,0,1,1,2.4184807558266727e-15,-13.165596031500746A13.165596031500746,13.165596031500746,0,1,1,-2.4184807558266727e-15,13.165596031500746Z" fill="#9b9b9b" stroke="none"/></g><g transform="translate(140.73206736655797,186.7899557836094)" id="Představení"><path id="p_333.8101586984332" d="M-9.71414740896169e-16,5.288135548265866A5.288135548265866,5.288135548265866,0,1,1,9.71414740896169e-16,-5.288135548265866A5.288135548265866,5.288135548265866,0,1,1,-9.71414740896169e-16,5.288135548265866Z" fill="#97b1ff" stroke="none"/></g><g transform="translate(169.6419956753274,186.7899557836094)" id="Běžní zaměstnanci"><path id="p_368.33107193087943" d="M-2.002135949922892e-15,10.899120471942645A10.899120471942645,10.899120471942645,0,1,1,2.002135949922892e-15,-10.899120471942645A10.899120471942645,10.899120471942645,0,1,1,-2.002135949922892e-15,10.899120471942645Z" fill="#9b9b9b" stroke="none"/></g><g transform="translate(188.83279074199152,186.7899557836094)" id="Představení"><path id="p_380.67353035746874" d="M-7.441169180602204e-16,4.050783831867842A4.050783831867842,4.050783831867842,0,1,1,7.441169180602204e-16,-4.050783831867842A4.050783831867842,4.050783831867842,0,1,1,-7.441169180602204e-16,4.050783831867842Z" fill="#97b1ff" stroke="none"/></g><g transform="translate(457.20760288327614,84.89744020238831)" id="Běžní zaměstnanci"><path id="p_557.8833879784283" d="M-2.714737915442848e-15,14.778344892763934A14.778344892763934,14.778344892763934,0,1,1,2.714737915442848e-15,-14.778344892763934A14.778344892763934,14.778344892763934,0,1,1,-2.714737915442848e-15,14.778344892763934Z" fill="#9b9b9b" stroke="none"/></g><g transform="translate(481.8125278782358,84.89744020238831)" id="Představení"><path id="p_573.2956574199662" d="M-1.0260744855685239e-15,5.5856893393421245A5.5856893393421245,5.5856893393421245,0,1,1,1.0260744855685239e-15,-5.5856893393421245A5.5856893393421245,5.5856893393421245,0,1,1,-1.0260744855685239e-15,5.5856893393421245Z" fill="#97b1ff" stroke="none"/></g><g transform="translate(507.8725825603315,84.89744020238831)" id="Běžní zaměstnanci"><path id="p_601.5217158169124" d="M-1.4239629130184664e-15,7.751693054192632A7.751693054192632,7.751693054192632,0,1,1,1.4239629130184664e-15,-7.751693054192632A7.751693054192632,7.751693054192632,0,1,1,-1.4239629130184664e-15,7.751693054192632Z" fill="#9b9b9b" stroke="none"/></g><g transform="translate(522.2202997926368,84.89744020238831)" id="Představení"><path id="p_610.472873410284" d="M-4.3263098978428077e-16,2.3551334152589702A2.3551334152589702,2.3551334152589702,0,1,1,4.3263098978428077e-16,-2.3551334152589702A2.3551334152589702,2.3551334152589702,0,1,1,-4.3263098978428077e-16,2.3551334152589702Z" fill="#97b1ff" stroke="none"/></g><g transform="translate(119.37570305974216,483.5546334144581)" id="Běžní zaměstnanci"><path id="p_613.8526899205925" d="M-1.8227067582199407e-15,9.922353446392219A9.922353446392219,9.922353446392219,0,1,1,1.8227067582199407e-15,-9.922353446392219A9.922353446392219,9.922353446392219,0,1,1,-1.8227067582199407e-15,9.922353446392219Z" fill="#9b9b9b" stroke="none"/></g><g transform="translate(139.06222471269675,483.5546334144581)" id="Představení"><path id="p_629.1401355708635" d="M-1.0146096063360998e-15,5.523277443708726A5.523277443708726,5.523277443708726,0,1,1,1.0146096063360998e-15,-5.523277443708726A5.523277443708726,5.523277443708726,0,1,1,-1.0146096063360998e-15,5.523277443708726Z" fill="#97b1ff" stroke="none"/></g><g transform="translate(166.63006105609935,483.5546334144581)" id="Běžní zaměstnanci"><path id="p_660.5065810816905" d="M-1.7124027900507856e-15,9.32188661113298A9.32188661113298,9.32188661113298,0,1,1,1.7124027900507856e-15,-9.32188661113298A9.32188661113298,9.32188661113298,0,1,1,-1.7124027900507856e-15,9.32188661113298Z" fill="#9b9b9b" stroke="none"/></g><g transform="translate(184.77880188635623,483.5546334144581)" id="Představení"><path id="p_673.9193987570847" d="M-8.424278201592186e-16,4.5859634562702745A4.5859634562702745,4.5859634562702745,0,1,1,8.424278201592186e-16,-4.5859634562702745A4.5859634562702745,4.5859634562702745,0,1,1,-8.424278201592186e-16,4.5859634562702745Z" fill="#97b1ff" stroke="none"/></g><g transform="translate(343.05225808953753,90.53949497279095)" id="Běžní zaměstnanci"><path id="p_444.64139554644106" d="M-1.8460893751115545e-15,10.049642484112557A10.049642484112557,10.049642484112557,0,1,1,1.8460893751115545e-15,-10.049642484112557A10.049642484112557,10.049642484112557,0,1,1,-1.8460893751115545e-15,10.049642484112557Z" fill="#9b9b9b" stroke="none"/></g><g transform="translate(361.82683176766636,90.53949497279095)" id="Představení"><path id="p_457.85036717162" d="M-8.237048641906023e-16,4.484040431162671A4.484040431162671,4.484040431162671,0,1,1,8.237048641906023e-16,-4.484040431162671A4.484040431162671,4.484040431162671,0,1,1,-8.237048641906023e-16,4.484040431162671Z" fill="#97b1ff" stroke="none"/></g><g transform="translate(601.0181056059191,456.98187471459374)" id="Běžní zaměstnanci"><path id="p_1068.3589814245986" d="M-1.7192206118002802e-15,9.359001104085786A9.359001104085786,9.359001104085786,0,1,1,1.7192206118002802e-15,-9.359001104085786A9.359001104085786,9.359001104085786,0,1,1,-1.7192206118002802e-15,9.359001104085786Z" fill="#9b9b9b" stroke="none"/></g><g transform="translate(619.076193075321,456.98187471459374)" id="Představení"><path id="p_1081.5162633923771" d="M-8.189572461792618e-16,4.458195602462423A4.458195602462423,4.458195602462423,0,1,1,8.189572461792618e-16,-4.458195602462423A4.458195602462423,4.458195602462423,0,1,1,-8.189572461792618e-16,4.458195602462423Z" fill="#97b1ff" stroke="none"/></g><g transform="translate(318.8160787929784,587.742981559229)" id="Běžní zaměstnanci"><path id="p_915.3553464476425" d="M-1.4321545218017687e-15,7.7962860954352475A7.7962860954352475,7.7962860954352475,0,1,1,1.4321545218017687e-15,-7.7962860954352475A7.7962860954352475,7.7962860954352475,0,1,1,-1.4321545218017687e-15,7.7962860954352475Z" fill="#9b9b9b" stroke="none"/></g><g transform="translate(334.3199181732448,587.742981559229)" id="Představení"><path id="p_926.5295622544513" d="M-6.368155741895824e-16,3.4666625219775375A3.4666625219775375,3.4666625219775375,0,1,1,6.368155741895824e-16,-3.4666625219775375A3.4666625219775375,3.4666625219775375,0,1,1,-6.368155741895824e-16,3.4666625219775375Z" fill="#97b1ff" stroke="none"/></g></g><g id="labels"><g transform="translate(206.045824359603,337.5159050900227)"><text text-anchor="middle" dominant-baseline="text-before-edge" transform="translate(0,-6.5)" style="opacity: 1;"><tspan x="0" y="0" dy="0" style="font-family: Arial, sans-serif; font-size: 10px; fill: black; font-weight: normal;">19543</tspan></text></g><g transform="translate(299.50683669153807,337.5159050900227)"><text text-anchor="middle" dominant-baseline="text-before-edge" transform="translate(0,-6.5)" style="opacity: 1;"><tspan x="0" y="0" dy="0" style="font-family: Arial, sans-serif; font-size: 10px; fill: black; font-weight: normal;">2097</tspan></text></g><g transform="translate(351.72999679873755,337.5159050900227)"><text text-anchor="middle" dominant-baseline="text-before-edge" transform="translate(0,-6.5)" style="opacity: 1;"><tspan x="0" y="0" dy="0" style="font-family: Arial, sans-serif; font-size: 10px; fill: black; font-weight: normal;">1323</tspan></text></g><g transform="translate(379.51875669518853,337.5159050900227)"><text text-anchor="middle" dominant-baseline="text-before-edge" transform="translate(0,-6.5)" style="opacity: 1;"><tspan x="0" y="0" dy="0" style="font-family: Arial, sans-serif; font-size: 10px; fill: black; font-weight: normal;">159</tspan></text></g><g transform="translate(462.7804358425281,337.5159050900227)"><text text-anchor="middle" dominant-baseline="text-before-edge" transform="translate(0,-6.5)" style="opacity: 1;"><tspan x="0" y="0" dy="0" style="font-family: Arial, sans-serif; font-size: 10px; fill: black; font-weight: normal;">13567</tspan></text></g><g transform="translate(544.6018105886949,337.5159050900227)"><text text-anchor="middle" dominant-baseline="text-before-edge" transform="translate(0,-6.5)" style="opacity: 1;"><tspan x="0" y="0" dy="0" style="font-family: Arial, sans-serif; font-size: 10px; fill: black; font-weight: normal;">2016</tspan></text></g><g transform="translate(595.8723210781476,337.5159050900227)"><text text-anchor="middle" dominant-baseline="text-before-edge" transform="translate(0,-6.5)" style="opacity: 1;"><tspan x="0" y="0" dy="0" style="font-family: Arial, sans-serif; font-size: 10px; fill: black; font-weight: normal;">1245</tspan></text></g><g transform="translate(623.7545436487778,337.5159050900227)"><text text-anchor="middle" dominant-baseline="text-before-edge" transform="translate(0,-6.5)" style="opacity: 1;"><tspan x="0" y="0" dy="0" style="font-family: Arial, sans-serif; font-size: 10px; fill: black; font-weight: normal;">193</tspan></text></g><g transform="translate(359.0837426991222,508.44261670368076)"><text text-anchor="middle" dominant-baseline="text-before-edge" transform="translate(0,-6.5)" style="opacity: 1;"><tspan x="0" y="0" dy="0" style="font-family: Arial, sans-serif; font-size: 10px; fill: black; font-weight: normal;">5015</tspan></text></g><g transform="translate(410.6133622310061,508.44261670368076)"><text text-anchor="middle" dominant-baseline="text-before-edge" transform="translate(0,-6.5)" style="opacity: 1;"><tspan x="0" y="0" dy="0" style="font-family: Arial, sans-serif; font-size: 10px; fill: black; font-weight: normal;">759</tspan></text></g><g transform="translate(448.3560556341321,508.44261670368076)"><text text-anchor="middle" dominant-baseline="text-before-edge" transform="translate(0,-6.5)" style="opacity: 1;"><tspan x="0" y="0" dy="0" style="font-family: Arial, sans-serif; font-size: 10px; fill: black; font-weight: normal;">600</tspan></text></g><g transform="translate(469.7042735049973,508.44261670368076)"><text text-anchor="middle" dominant-baseline="text-before-edge" transform="translate(0,-6.5)" style="opacity: 1;"><tspan x="0" y="0" dy="0" style="font-family: Arial, sans-serif; font-size: 10px; fill: black; font-weight: normal;">123</tspan></text></g><g transform="translate(359.228347286077,179.89873857258712)"><text text-anchor="middle" dominant-baseline="text-before-edge" transform="translate(0,-6.5)" style="opacity: 1;"><tspan x="0" y="0" dy="0" style="font-family: Arial, sans-serif; font-size: 10px; fill: black; font-weight: normal;">2525</tspan></text></g><g transform="translate(395.826906906414,179.89873857258712)"><text text-anchor="middle" dominant-baseline="text-before-edge" transform="translate(0,-6.5)" style="opacity: 1;"><tspan x="0" y="0" dy="0" style="font-family: Arial, sans-serif; font-size: 10px; fill: black; font-weight: normal;">291</tspan></text></g><g transform="translate(432.29842545602764,179.89873857258712)"><text text-anchor="middle" dominant-baseline="text-before-edge" transform="translate(0,-6.5)" style="opacity: 1;"><tspan x="0" y="0" dy="0" style="font-family: Arial, sans-serif; font-size: 10px; fill: black; font-weight: normal;">1046</tspan></text></g><g transform="translate(458.0725190110837,179.89873857258712)"><text text-anchor="middle" dominant-baseline="text-before-edge" transform="translate(0,-6.5)" style="opacity: 1;"><tspan x="0" y="0" dy="0" style="font-family: Arial, sans-serif; font-size: 10px; fill: black; font-weight: normal;">155</tspan></text></g><g transform="translate(225.3224026154018,133.14649086251666)"><text text-anchor="middle" dominant-baseline="text-before-edge" transform="translate(0,-6.5)" style="opacity: 1;"><tspan x="0" y="0" dy="0" style="font-family: Arial, sans-serif; font-size: 10px; fill: black; font-weight: normal;">2355</tspan></text></g><g transform="translate(264.1568777894451,133.14649086251666)"><text text-anchor="middle" dominant-baseline="text-before-edge" transform="translate(0,-6.5)" style="opacity: 1;"><tspan x="0" y="0" dy="0" style="font-family: Arial, sans-serif; font-size: 10px; fill: black; font-weight: normal;">549</tspan></text></g><g transform="translate(298.4431411208336,133.14649086251666)"><text text-anchor="middle" dominant-baseline="text-before-edge" transform="translate(0,-6.5)" style="opacity: 1;"><tspan x="0" y="0" dy="0" style="font-family: Arial, sans-serif; font-size: 10px; fill: black; font-weight: normal;">459</tspan></text></g><g transform="translate(317.28339977966397,133.14649086251666)"><text text-anchor="middle" dominant-baseline="text-before-edge" transform="translate(0,-6.5)" style="opacity: 1;"><tspan x="0" y="0" dy="0" style="font-family: Arial, sans-serif; font-size: 10px; fill: black; font-weight: normal;">80</tspan></text></g><g transform="translate(217.19865055261474,536.0695931336733)"><text text-anchor="middle" dominant-baseline="text-before-edge" transform="translate(0,-6.5)" style="opacity: 1;"><tspan x="0" y="0" dy="0" style="font-family: Arial, sans-serif; font-size: 10px; fill: black; font-weight: normal;">1607</tspan></text></g><g transform="translate(249.02390863581323,536.0695931336733)"><text text-anchor="middle" dominant-baseline="text-before-edge" transform="translate(0,-6.5)" style="opacity: 1;"><tspan x="0" y="0" dy="0" style="font-family: Arial, sans-serif; font-size: 10px; fill: black; font-weight: normal;">299</tspan></text></g><g transform="translate(280.62468517342506,536.0695931336733)"><text text-anchor="middle" dominant-baseline="text-before-edge" transform="translate(0,-6.5)" style="opacity: 1;"><tspan x="0" y="0" dy="0" style="font-family: Arial, sans-serif; font-size: 10px; fill: black; font-weight: normal;">483</tspan></text></g><g transform="translate(300.9121902078326,536.0695931336733)"><text text-anchor="middle" dominant-baseline="text-before-edge" transform="translate(0,-6.5)" style="opacity: 0;"><tspan x="0" y="0" dy="0" style="font-family: Arial, sans-serif; font-size: 10px; fill: black; font-weight: normal;">130</tspan></text></g><g transform="translate(504.8686026258304,172.79813943713134)"><text text-anchor="middle" dominant-baseline="text-before-edge" transform="translate(0,-6.5)" style="opacity: 1;"><tspan x="0" y="0" dy="0" style="font-family: Arial, sans-serif; font-size: 10px; fill: black; font-weight: normal;">1700</tspan></text></g><g transform="translate(538.6888427343711,172.79813943713134)"><text text-anchor="middle" dominant-baseline="text-before-edge" transform="translate(0,-6.5)" style="opacity: 1;"><tspan x="0" y="0" dy="0" style="font-family: Arial, sans-serif; font-size: 10px; fill: black; font-weight: normal;">412</tspan></text></g><g transform="translate(509.20006335108974,518.4890743347476)"><text text-anchor="middle" dominant-baseline="text-before-edge" transform="translate(0,-6.5)" style="opacity: 1;"><tspan x="0" y="0" dy="0" style="font-family: Arial, sans-serif; font-size: 10px; fill: black; font-weight: normal;">766</tspan></text></g><g transform="translate(533.1601082605489,518.4890743347476)"><text text-anchor="middle" dominant-baseline="text-before-edge" transform="translate(0,-6.5)" style="opacity: 1;"><tspan x="0" y="0" dy="0" style="font-family: Arial, sans-serif; font-size: 10px; fill: black; font-weight: normal;">178</tspan></text></g><g transform="translate(565.5497227691502,518.4890743347476)"><text text-anchor="middle" dominant-baseline="text-before-edge" transform="translate(0,-6.5)" style="opacity: 1;"><tspan x="0" y="0" dy="0" style="font-family: Arial, sans-serif; font-size: 10px; fill: black; font-weight: normal;">760</tspan></text></g><g transform="translate(589.4575557520442,518.4890743347476)"><text text-anchor="middle" dominant-baseline="text-before-edge" transform="translate(0,-6.5)" style="opacity: 1;"><tspan x="0" y="0" dy="0" style="font-family: Arial, sans-serif; font-size: 10px; fill: black; font-weight: normal;">178</tspan></text></g><g transform="translate(582.5939344550382,187.2640651787491)"><text text-anchor="middle" dominant-baseline="text-before-edge" transform="translate(0,-6.5)" style="opacity: 1;"><tspan x="0" y="0" dy="0" style="font-family: Arial, sans-serif; font-size: 10px; fill: black; font-weight: normal;">851</tspan></text></g><g transform="translate(606.5063262183427,187.2640651787491)"><text text-anchor="middle" dominant-baseline="text-before-edge" transform="translate(0,-6.5)" style="opacity: 1;"><tspan x="0" y="0" dy="0" style="font-family: Arial, sans-serif; font-size: 10px; fill: black; font-weight: normal;">138</tspan></text></g><g transform="translate(635.954302738897,187.2640651787491)"><text text-anchor="middle" dominant-baseline="text-before-edge" transform="translate(0,-6.5)" style="opacity: 1;"><tspan x="0" y="0" dy="0" style="font-family: Arial, sans-serif; font-size: 10px; fill: black; font-weight: normal;">531</tspan></text></g><g transform="translate(654.3135503616228,187.2640651787491)"><text text-anchor="middle" dominant-baseline="text-before-edge" transform="translate(0,-6.5)" style="opacity: 1;"><tspan x="0" y="0" dy="0" style="font-family: Arial, sans-serif; font-size: 10px; fill: black; font-weight: normal;">40</tspan></text></g><g transform="translate(118.0374450239377,186.7899557836094)"><text text-anchor="middle" dominant-baseline="text-before-edge" transform="translate(0,-6.5)" style="opacity: 1;"><tspan x="0" y="0" dy="0" style="font-family: Arial, sans-serif; font-size: 10px; fill: black; font-weight: normal;">750</tspan></text></g><g transform="translate(140.73206736655797,186.7899557836094)"><text text-anchor="middle" dominant-baseline="text-before-edge" transform="translate(0,-6.5)" style="opacity: 1;"><tspan x="0" y="0" dy="0" style="font-family: Arial, sans-serif; font-size: 10px; fill: black; font-weight: normal;">121</tspan></text></g><g transform="translate(169.6419956753274,186.7899557836094)"><text text-anchor="middle" dominant-baseline="text-before-edge" transform="translate(0,-6.5)" style="opacity: 1;"><tspan x="0" y="0" dy="0" style="font-family: Arial, sans-serif; font-size: 10px; fill: black; font-weight: normal;">514</tspan></text></g><g transform="translate(188.83279074199152,186.7899557836094)"><text text-anchor="middle" dominant-baseline="text-before-edge" transform="translate(0,-6.5)" style="opacity: 1;"><tspan x="0" y="0" dy="0" style="font-family: Arial, sans-serif; font-size: 10px; fill: black; font-weight: normal;">71</tspan></text></g><g transform="translate(457.20760288327614,84.89744020238831)"><text text-anchor="middle" dominant-baseline="text-before-edge" transform="translate(0,-6.5)" style="opacity: 1;"><tspan x="0" y="0" dy="0" style="font-family: Arial, sans-serif; font-size: 10px; fill: black; font-weight: normal;">945</tspan></text></g><g transform="translate(481.8125278782358,84.89744020238831)"><text text-anchor="middle" dominant-baseline="text-before-edge" transform="translate(0,-6.5)" style="opacity: 1;"><tspan x="0" y="0" dy="0" style="font-family: Arial, sans-serif; font-size: 10px; fill: black; font-weight: normal;">135</tspan></text></g><g transform="translate(507.8725825603315,84.89744020238831)"><text text-anchor="middle" dominant-baseline="text-before-edge" transform="translate(0,-6.5)" style="opacity: 1;"><tspan x="0" y="0" dy="0" style="font-family: Arial, sans-serif; font-size: 10px; fill: black; font-weight: normal;">260</tspan></text></g><g transform="translate(522.2202997926368,84.89744020238831)"><text text-anchor="middle" dominant-baseline="text-before-edge" transform="translate(0,-6.5)" style="opacity: 0;"><tspan x="0" y="0" dy="0" style="font-family: Arial, sans-serif; font-size: 10px; fill: black; font-weight: normal;">24</tspan></text></g><g transform="translate(119.37570305974216,483.5546334144581)"><text text-anchor="middle" dominant-baseline="text-before-edge" transform="translate(0,-6.5)" style="opacity: 1;"><tspan x="0" y="0" dy="0" style="font-family: Arial, sans-serif; font-size: 10px; fill: black; font-weight: normal;">426</tspan></text></g><g transform="translate(139.06222471269675,483.5546334144581)"><text text-anchor="middle" dominant-baseline="text-before-edge" transform="translate(0,-6.5)" style="opacity: 0;"><tspan x="0" y="0" dy="0" style="font-family: Arial, sans-serif; font-size: 10px; fill: black; font-weight: normal;">132</tspan></text></g><g transform="translate(166.63006105609935,483.5546334144581)"><text text-anchor="middle" dominant-baseline="text-before-edge" transform="translate(0,-6.5)" style="opacity: 1;"><tspan x="0" y="0" dy="0" style="font-family: Arial, sans-serif; font-size: 10px; fill: black; font-weight: normal;">376</tspan></text></g><g transform="translate(184.77880188635623,483.5546334144581)"><text text-anchor="middle" dominant-baseline="text-before-edge" transform="translate(0,-6.5)" style="opacity: 1;"><tspan x="0" y="0" dy="0" style="font-family: Arial, sans-serif; font-size: 10px; fill: black; font-weight: normal;">91</tspan></text></g><g transform="translate(343.05225808953753,90.53949497279095)"><text text-anchor="middle" dominant-baseline="text-before-edge" transform="translate(0,-6.5)" style="opacity: 1;"><tspan x="0" y="0" dy="0" style="font-family: Arial, sans-serif; font-size: 10px; fill: black; font-weight: normal;">437</tspan></text></g><g transform="translate(361.82683176766636,90.53949497279095)"><text text-anchor="middle" dominant-baseline="text-before-edge" transform="translate(0,-6.5)" style="opacity: 1;"><tspan x="0" y="0" dy="0" style="font-family: Arial, sans-serif; font-size: 10px; fill: black; font-weight: normal;">87</tspan></text></g><g transform="translate(601.0181056059191,456.98187471459374)"><text text-anchor="middle" dominant-baseline="text-before-edge" transform="translate(0,-6.5)" style="opacity: 1;"><tspan x="0" y="0" dy="0" style="font-family: Arial, sans-serif; font-size: 10px; fill: black; font-weight: normal;">379</tspan></text></g><g transform="translate(619.076193075321,456.98187471459374)"><text text-anchor="middle" dominant-baseline="text-before-edge" transform="translate(0,-6.5)" style="opacity: 1;"><tspan x="0" y="0" dy="0" style="font-family: Arial, sans-serif; font-size: 10px; fill: black; font-weight: normal;">86</tspan></text></g><g transform="translate(318.8160787929784,587.742981559229)"><text text-anchor="middle" dominant-baseline="text-before-edge" transform="translate(0,-6.5)" style="opacity: 1;"><tspan x="0" y="0" dy="0" style="font-family: Arial, sans-serif; font-size: 10px; fill: black; font-weight: normal;">263</tspan></text></g><g transform="translate(334.3199181732448,587.742981559229)"><text text-anchor="middle" dominant-baseline="text-before-edge" transform="translate(0,-6.5)" style="opacity: 0;"><tspan x="0" y="0" dy="0" style="font-family: Arial, sans-serif; font-size: 10px; fill: black; font-weight: normal;">52</tspan></text></g></g></g><g id="legend" transform="translate(800,20)"><g transform="translate(5,0)"><g class="legendColor" transform="translate(0,182.5)"><g class="legendCells" transform="translate(0,32.599998474121094)"><g class="cell" transform="translate(0, 0)"><rect class="swatch" height="15" width="15" style="fill: rgb(155, 155, 155);"/><text class="label" transform="translate( 20, 12.5)" font-family="&quot;Arial&quot;, sans-serif" font-size="10px"><tspan x="0" dy="0em">Běžní zaměstnanci</tspan></text></g><g class="cell" transform="translate(0, 22)"><rect class="swatch" height="15" width="15" style="fill: rgb(151, 177, 255);"/><text class="label" transform="translate( 20, 12.5)" font-family="&quot;Arial&quot;, sans-serif" font-size="10px"><tspan x="0" dy="0em">Představení</tspan></text></g></g><text class="legendTitle" font-family="&quot;Arial&quot;, sans-serif" font-size="12px" font-weight="bold"><tspan x="0" dy="1.2em">Úroveň řízení</tspan></text></g></g></g></svg>